<ttFont>
    <TTGlyph name=".notdef" xMin="34" yMin="0" xMax="306" yMax="682">
      <contour>
        <pt x="34" y="0" on="1"/>
        <pt x="34" y="682" on="1"/>
        <pt x="306" y="682" on="1"/>
        <pt x="306" y="0" on="1"/>
      </contour>
      <contour>
        <pt x="68" y="34" on="1"/>
        <pt x="272" y="34" on="1"/>
        <pt x="272" y="648" on="1"/>
        <pt x="68" y="648" on="1"/>
      </contour>
    </TTGlyph>
    <TTGlyph name="A" xMin="0" yMin="0" xMax="600" yMax="583">
      <contour>
        <pt x="100" y="583" on="1"/>
        <pt x="341" y="583" on="1"/>
        <pt x="544" y="82" on="1"/>
        <pt x="600" y="82" on="1"/>
        <pt x="600" y="0" on="1"/>
        <pt x="363" y="0" on="1"/>
        <pt x="363" y="82" on="1"/>
        <pt x="451" y="82" on="1"/>
        <pt x="412" y="180" on="1"/>
        <pt x="187" y="180" on="1"/>
        <pt x="148" y="82" on="1"/>
        <pt x="237" y="82" on="1"/>
        <pt x="237" y="0" on="1"/>
        <pt x="0" y="0" on="1"/>
        <pt x="0" y="82" on="1"/>
        <pt x="58" y="82" on="1"/>
        <pt x="229" y="501" on="1"/>
        <pt x="100" y="501" on="1"/>
      </contour>
      <contour>
        <pt x="380" y="262" on="1"/>
        <pt x="300" y="453" on="1"/>
        <pt x="221" y="262" on="1"/>
      </contour>
    </TTGlyph>
    <TTGlyph name="AE" xMin="2" yMin="0" xMax="595" yMax="583">
      <contour>
        <pt x="124" y="583" on="1"/>
        <pt x="595" y="583" on="1"/>
        <pt x="595" y="367" on="1"/>
        <pt x="524" y="367" on="1"/>
        <pt x="516" y="501" on="1"/>
        <pt x="364" y="501" on="1"/>
        <pt x="364" y="333" on="1"/>
        <pt x="406" y="333" on="1"/>
        <pt x="406" y="414" on="1"/>
        <pt x="483" y="414" on="1"/>
        <pt x="483" y="190" on="1"/>
        <pt x="406" y="190" on="1"/>
        <pt x="406" y="256" on="1"/>
        <pt x="364" y="256" on="1"/>
        <pt x="364" y="82" on="1"/>
        <pt x="516" y="82" on="1"/>
        <pt x="524" y="218" on="1"/>
        <pt x="595" y="218" on="1"/>
        <pt x="595" y="0" on="1"/>
        <pt x="278" y="0" on="1"/>
        <pt x="278" y="179" on="1"/>
        <pt x="171" y="179" on="1"/>
        <pt x="136" y="82" on="1"/>
        <pt x="213" y="82" on="1"/>
        <pt x="213" y="0" on="1"/>
        <pt x="2" y="0" on="1"/>
        <pt x="2" y="82" on="1"/>
        <pt x="59" y="82" on="1"/>
        <pt x="213" y="501" on="1"/>
        <pt x="124" y="501" on="1"/>
      </contour>
      <contour>
        <pt x="278" y="256" on="1"/>
        <pt x="278" y="486" on="1"/>
        <pt x="276" y="486" on="1"/>
        <pt x="192" y="256" on="1"/>
      </contour>
    </TTGlyph>
    <TTGlyph name="Aacute" xMin="0" yMin="0" xMax="600" yMax="772">
      <component glyphName="A" x="0" y="0" flags="0x1004"/>
      <component glyphName="acute" x="0" y="130" flags="0x1004"/>
    </TTGlyph>
    <TTGlyph name="Abreve" xMin="0" yMin="0" xMax="600" yMax="792">
      <component glyphName="A" x="0" y="0" flags="0x1004"/>
      <component glyphName="breve" x="0" y="130" flags="0x1004"/>
    </TTGlyph>
    <TTGlyph name="Acircumflex" xMin="0" yMin="0" xMax="600" yMax="782">
      <component glyphName="A" x="0" y="0" flags="0x1004"/>
      <component glyphName="circumflex" x="0" y="130" flags="0x1004"/>
    </TTGlyph>
    <TTGlyph name="Adieresis" xMin="0" yMin="0" xMax="600" yMax="778">
      <component glyphName="A" x="0" y="0" flags="0x1004"/>
      <component glyphName="dieresis" x="0" y="130" flags="0x1004"/>
    </TTGlyph>
    <TTGlyph name="Agrave" xMin="0" yMin="0" xMax="600" yMax="772">
      <component glyphName="A" x="0" y="0" flags="0x1004"/>
      <component glyphName="grave" x="0" y="130" flags="0x1004"/>
    </TTGlyph>
    <TTGlyph name="Amacron" xMin="0" yMin="0" xMax="600" yMax="765">
      <component glyphName="A" x="0" y="0" flags="0x1004"/>
      <component glyphName="macron" x="0" y="130" flags="0x1004"/>
    </TTGlyph>
    <TTGlyph name="Aogonek" xMin="0" yMin="-144" xMax="600" yMax="583">
      <contour>
        <pt x="572" y="-49" on="1"/>
        <pt x="557" y="-115" on="1"/>
        <pt x="513" y="-144" on="0"/>
        <pt x="465" y="-144" on="1"/>
        <pt x="427" y="-144" on="0"/>
        <pt x="376" y="-102" on="0"/>
        <pt x="376" y="-72" on="1"/>
        <pt x="376" y="-29" on="0"/>
        <pt x="427" y="-2" on="1"/>
        <pt x="427" y="0" on="1"/>
        <pt x="363" y="0" on="1"/>
        <pt x="363" y="82" on="1"/>
        <pt x="451" y="82" on="1"/>
        <pt x="412" y="180" on="1"/>
        <pt x="187" y="180" on="1"/>
        <pt x="148" y="82" on="1"/>
        <pt x="237" y="82" on="1"/>
        <pt x="237" y="0" on="1"/>
        <pt x="0" y="0" on="1"/>
        <pt x="0" y="82" on="1"/>
        <pt x="58" y="82" on="1"/>
        <pt x="229" y="501" on="1"/>
        <pt x="100" y="501" on="1"/>
        <pt x="100" y="583" on="1"/>
        <pt x="341" y="583" on="1"/>
        <pt x="544" y="82" on="1"/>
        <pt x="600" y="82" on="1"/>
        <pt x="600" y="0" on="1"/>
        <pt x="560" y="0" on="1"/>
        <pt x="526" y="-7" on="0"/>
        <pt x="466" y="-37" on="0"/>
        <pt x="466" y="-55" on="1"/>
        <pt x="466" y="-66" on="0"/>
        <pt x="485" y="-78" on="0"/>
        <pt x="497" y="-78" on="1"/>
        <pt x="522" y="-78" on="0"/>
      </contour>
      <contour>
        <pt x="380" y="262" on="1"/>
        <pt x="300" y="453" on="1"/>
        <pt x="221" y="262" on="1"/>
      </contour>
    </TTGlyph>
    <TTGlyph name="Aring" xMin="0" yMin="0" xMax="600" yMax="823">
      <component glyphName="A" x="0" y="0" flags="0x1004"/>
      <component glyphName="ring" x="0" y="130" flags="0x1004"/>
    </TTGlyph>
    <TTGlyph name="Atilde" xMin="0" yMin="0" xMax="600" yMax="790">
      <component glyphName="A" x="0" y="0" flags="0x1004"/>
      <component glyphName="tilde" x="0" y="130" flags="0x1004"/>
    </TTGlyph>
    <TTGlyph name="B" xMin="34" yMin="0" xMax="556" yMax="583">
      <contour>
        <pt x="34" y="583" on="1"/>
        <pt x="318" y="583" on="1"/>
        <pt x="418" y="583" on="0"/>
        <pt x="468" y="540" on="1"/>
        <pt x="521" y="494" on="0"/>
        <pt x="521" y="423" on="1"/>
        <pt x="521" y="350" on="0"/>
        <pt x="467" y="309" on="1"/>
        <pt x="556" y="263" on="0"/>
        <pt x="556" y="171" on="1"/>
        <pt x="556" y="136" on="0"/>
        <pt x="535" y="80" on="0"/>
        <pt x="506" y="45" on="0"/>
        <pt x="458" y="19" on="0"/>
        <pt x="419" y="7" on="0"/>
        <pt x="361" y="1" on="0"/>
        <pt x="332" y="0" on="0"/>
        <pt x="309" y="0" on="1"/>
        <pt x="34" y="0" on="1"/>
        <pt x="34" y="82" on="1"/>
        <pt x="115" y="82" on="1"/>
        <pt x="115" y="501" on="1"/>
        <pt x="34" y="501" on="1"/>
      </contour>
      <contour>
        <pt x="316" y="501" on="1"/>
        <pt x="202" y="501" on="1"/>
        <pt x="202" y="344" on="1"/>
        <pt x="311" y="344" on="1"/>
        <pt x="333" y="344" on="0"/>
        <pt x="363" y="348" on="0"/>
        <pt x="408" y="362" on="0"/>
        <pt x="432" y="399" on="0"/>
        <pt x="432" y="428" on="1"/>
        <pt x="432" y="501" on="0"/>
      </contour>
      <contour>
        <pt x="303" y="262" on="1"/>
        <pt x="202" y="262" on="1"/>
        <pt x="202" y="82" on="1"/>
        <pt x="307" y="82" on="1"/>
        <pt x="347" y="82" on="0"/>
        <pt x="397" y="87" on="0"/>
        <pt x="444" y="103" on="0"/>
        <pt x="466" y="138" on="0"/>
        <pt x="466" y="166" on="1"/>
        <pt x="466" y="262" on="0"/>
      </contour>
    </TTGlyph>
    <TTGlyph name="C" xMin="52" yMin="-16" xMax="611" yMax="600">
      <contour>
        <pt x="553" y="178" on="1"/>
        <pt x="611" y="114" on="1"/>
        <pt x="477" y="-16" on="0"/>
        <pt x="333" y="-16" on="1"/>
        <pt x="204" y="-16" on="0"/>
        <pt x="52" y="164" on="0"/>
        <pt x="52" y="298" on="1"/>
        <pt x="52" y="435" on="0"/>
        <pt x="215" y="600" on="0"/>
        <pt x="314" y="600" on="1"/>
        <pt x="348" y="600" on="0"/>
        <pt x="406" y="579" on="0"/>
        <pt x="436" y="557" on="0"/>
        <pt x="459" y="537" on="1"/>
        <pt x="465" y="593" on="1"/>
        <pt x="548" y="593" on="1"/>
        <pt x="543" y="530" on="0"/>
        <pt x="543" y="496" on="1"/>
        <pt x="543" y="439" on="0"/>
        <pt x="553" y="371" on="1"/>
        <pt x="470" y="360" on="1"/>
        <pt x="466" y="387" on="0"/>
        <pt x="460" y="416" on="0"/>
        <pt x="440" y="466" on="0"/>
        <pt x="413" y="493" on="0"/>
        <pt x="362" y="514" on="0"/>
        <pt x="328" y="514" on="1"/>
        <pt x="252" y="514" on="0"/>
        <pt x="144" y="399" on="0"/>
        <pt x="144" y="299" on="1"/>
        <pt x="144" y="204" on="0"/>
        <pt x="240" y="70" on="0"/>
        <pt x="332" y="70" on="1"/>
        <pt x="379" y="70" on="0"/>
        <pt x="475" y="112" on="0"/>
        <pt x="522" y="149" on="0"/>
      </contour>
    </TTGlyph>
    <TTGlyph name="Cacute" xMin="52" yMin="-16" xMax="611" yMax="772">
      <component glyphName="C" x="0" y="0" flags="0x1004"/>
      <component glyphName="acute" x="0" y="130" flags="0x1004"/>
    </TTGlyph>
    <TTGlyph name="Ccaron" xMin="52" yMin="-16" xMax="611" yMax="782">
      <component glyphName="C" x="0" y="0" flags="0x1004"/>
      <component glyphName="caron" x="18" y="130" flags="0x1004"/>
    </TTGlyph>
    <TTGlyph name="Ccedilla" xMin="52" yMin="-183" xMax="611" yMax="600">
      <contour>
        <pt x="370" y="-14" on="1"/>
        <pt x="370" y="-18" on="1"/>
        <pt x="445" y="-37" on="0"/>
        <pt x="445" y="-102" on="1"/>
        <pt x="445" y="-138" on="0"/>
        <pt x="398" y="-183" on="0"/>
        <pt x="348" y="-183" on="1"/>
        <pt x="293" y="-183" on="0"/>
        <pt x="219" y="-164" on="1"/>
        <pt x="230" y="-95" on="1"/>
        <pt x="326" y="-113" on="0"/>
        <pt x="345" y="-113" on="1"/>
        <pt x="363" y="-113" on="0"/>
        <pt x="363" y="-89" on="0"/>
        <pt x="334" y="-84" on="1"/>
        <pt x="332" y="-84" on="0"/>
        <pt x="313" y="-81" on="0"/>
        <pt x="292" y="-78" on="0"/>
        <pt x="290" y="-78" on="1"/>
        <pt x="297" y="-14" on="1"/>
        <pt x="191" y="-4" on="0"/>
        <pt x="52" y="168" on="0"/>
        <pt x="52" y="298" on="1"/>
        <pt x="52" y="435" on="0"/>
        <pt x="215" y="600" on="0"/>
        <pt x="314" y="600" on="1"/>
        <pt x="348" y="600" on="0"/>
        <pt x="406" y="579" on="0"/>
        <pt x="436" y="557" on="0"/>
        <pt x="459" y="537" on="1"/>
        <pt x="465" y="593" on="1"/>
        <pt x="548" y="593" on="1"/>
        <pt x="543" y="530" on="0"/>
        <pt x="543" y="496" on="1"/>
        <pt x="543" y="439" on="0"/>
        <pt x="553" y="371" on="1"/>
        <pt x="470" y="360" on="1"/>
        <pt x="466" y="383" on="0"/>
        <pt x="462" y="406" on="0"/>
        <pt x="449" y="450" on="0"/>
        <pt x="431" y="474" on="0"/>
        <pt x="402" y="502" on="0"/>
        <pt x="357" y="514" on="0"/>
        <pt x="328" y="514" on="1"/>
        <pt x="252" y="514" on="0"/>
        <pt x="144" y="399" on="0"/>
        <pt x="144" y="299" on="1"/>
        <pt x="144" y="204" on="0"/>
        <pt x="240" y="72" on="0"/>
        <pt x="332" y="72" on="1"/>
        <pt x="368" y="72" on="0"/>
        <pt x="436" y="92" on="0"/>
        <pt x="496" y="130" on="0"/>
        <pt x="530" y="157" on="0"/>
        <pt x="553" y="178" on="1"/>
        <pt x="611" y="114" on="1"/>
        <pt x="555" y="61" on="0"/>
        <pt x="448" y="-2" on="0"/>
      </contour>
    </TTGlyph>
    <TTGlyph name="Ccircumflex" xMin="52" yMin="-16" xMax="611" yMax="782">
      <component glyphName="C" x="0" y="0" flags="0x1004"/>
      <component glyphName="circumflex" x="18" y="130" flags="0x1004"/>
    </TTGlyph>
    <TTGlyph name="Cdotaccent" xMin="52" yMin="-16" xMax="611" yMax="783">
      <component glyphName="C" x="0" y="0" flags="0x1004"/>
      <component glyphName="dotaccent" x="0" y="130" flags="0x1004"/>
    </TTGlyph>
    <TTGlyph name="D" xMin="23" yMin="0" xMax="561" yMax="583">
      <contour>
        <pt x="23" y="583" on="1"/>
        <pt x="284" y="583" on="1"/>
        <pt x="360" y="583" on="0"/>
        <pt x="458" y="553" on="0"/>
        <pt x="498" y="503" on="1"/>
        <pt x="561" y="424" on="0"/>
        <pt x="561" y="301" on="1"/>
        <pt x="561" y="144" on="0"/>
        <pt x="476" y="61" on="1"/>
        <pt x="413" y="0" on="0"/>
        <pt x="281" y="0" on="1"/>
        <pt x="23" y="0" on="1"/>
        <pt x="23" y="82" on="1"/>
        <pt x="100" y="82" on="1"/>
        <pt x="100" y="501" on="1"/>
        <pt x="23" y="501" on="1"/>
      </contour>
      <contour>
        <pt x="285" y="501" on="1"/>
        <pt x="187" y="501" on="1"/>
        <pt x="187" y="82" on="1"/>
        <pt x="281" y="82" on="1"/>
        <pt x="371" y="82" on="0"/>
        <pt x="412" y="123" on="1"/>
        <pt x="469" y="180" on="0"/>
        <pt x="469" y="300" on="1"/>
        <pt x="469" y="389" on="0"/>
        <pt x="430" y="445" on="1"/>
        <pt x="406" y="481" on="0"/>
        <pt x="344" y="501" on="0"/>
      </contour>
    </TTGlyph>
    <TTGlyph name="Dcaron" xMin="23" yMin="0" xMax="561" yMax="782">
      <component glyphName="D" x="0" y="0" flags="0x1004"/>
      <component glyphName="caron" x="0" y="130" flags="0x1004"/>
    </TTGlyph>
    <TTGlyph name="E" xMin="45" yMin="0" xMax="553" yMax="583">
      <contour>
        <pt x="45" y="583" on="1"/>
        <pt x="543" y="583" on="1"/>
        <pt x="548" y="367" on="1"/>
        <pt x="465" y="367" on="1"/>
        <pt x="456" y="501" on="1"/>
        <pt x="215" y="501" on="1"/>
        <pt x="215" y="348" on="1"/>
        <pt x="333" y="348" on="1"/>
        <pt x="333" y="420" on="1"/>
        <pt x="416" y="420" on="1"/>
        <pt x="416" y="195" on="1"/>
        <pt x="333" y="195" on="1"/>
        <pt x="333" y="266" on="1"/>
        <pt x="215" y="266" on="1"/>
        <pt x="215" y="82" on="1"/>
        <pt x="465" y="82" on="1"/>
        <pt x="470" y="217" on="1"/>
        <pt x="553" y="217" on="1"/>
        <pt x="553" y="0" on="1"/>
        <pt x="45" y="0" on="1"/>
        <pt x="45" y="82" on="1"/>
        <pt x="128" y="82" on="1"/>
        <pt x="128" y="501" on="1"/>
        <pt x="45" y="501" on="1"/>
      </contour>
    </TTGlyph>
    <TTGlyph name="Eacute" xMin="45" yMin="0" xMax="553" yMax="772">
      <component glyphName="E" x="0" y="0" flags="0x1004"/>
      <component glyphName="acute" x="0" y="130" flags="0x1004"/>
    </TTGlyph>
    <TTGlyph name="Ecaron" xMin="45" yMin="0" xMax="553" yMax="782">
      <component glyphName="E" x="0" y="0" flags="0x1004"/>
      <component glyphName="caron" x="0" y="130" flags="0x1004"/>
    </TTGlyph>
    <TTGlyph name="Ecircumflex" xMin="45" yMin="0" xMax="553" yMax="782">
      <component glyphName="E" x="0" y="0" flags="0x1004"/>
      <component glyphName="circumflex" x="0" y="130" flags="0x1004"/>
    </TTGlyph>
    <TTGlyph name="Edieresis" xMin="45" yMin="0" xMax="553" yMax="778">
      <component glyphName="E" x="0" y="0" flags="0x1004"/>
      <component glyphName="dieresis" x="0" y="130" flags="0x1004"/>
    </TTGlyph>
    <TTGlyph name="Edotaccent" xMin="45" yMin="0" xMax="553" yMax="783">
      <component glyphName="E" x="0" y="0" flags="0x1004"/>
      <component glyphName="dotaccent" x="0" y="130" flags="0x1004"/>
    </TTGlyph>
    <TTGlyph name="Egrave" xMin="45" yMin="0" xMax="553" yMax="772">
      <component glyphName="E" x="0" y="0" flags="0x1004"/>
      <component glyphName="grave" x="0" y="130" flags="0x1004"/>
    </TTGlyph>
    <TTGlyph name="Emacron" xMin="45" yMin="0" xMax="553" yMax="765">
      <component glyphName="E" x="0" y="0" flags="0x1004"/>
      <component glyphName="macron" x="0" y="130" flags="0x1004"/>
    </TTGlyph>
    <TTGlyph name="Eng" xMin="34" yMin="-131" xMax="538" yMax="595">
      <contour>
        <pt x="34" y="583" on="1"/>
        <pt x="203" y="583" on="1"/>
        <pt x="203" y="537" on="1"/>
        <pt x="298" y="595" on="0"/>
        <pt x="376" y="595" on="1"/>
        <pt x="456" y="595" on="0"/>
        <pt x="538" y="483" on="0"/>
        <pt x="538" y="412" on="1"/>
        <pt x="538" y="38" on="1"/>
        <pt x="538" y="-42" on="0"/>
        <pt x="437" y="-131" on="0"/>
        <pt x="372" y="-131" on="1"/>
        <pt x="275" y="-131" on="1"/>
        <pt x="275" y="-42" on="1"/>
        <pt x="364" y="-42" on="1"/>
        <pt x="412" y="-42" on="0"/>
        <pt x="451" y="16" on="0"/>
        <pt x="451" y="45" on="1"/>
        <pt x="451" y="420" on="1"/>
        <pt x="451" y="506" on="0"/>
        <pt x="377" y="506" on="1"/>
        <pt x="334" y="506" on="0"/>
        <pt x="233" y="455" on="0"/>
        <pt x="203" y="426" on="1"/>
        <pt x="203" y="82" on="1"/>
        <pt x="285" y="82" on="1"/>
        <pt x="285" y="0" on="1"/>
        <pt x="34" y="0" on="1"/>
        <pt x="34" y="82" on="1"/>
        <pt x="116" y="82" on="1"/>
        <pt x="116" y="501" on="1"/>
        <pt x="34" y="501" on="1"/>
      </contour>
    </TTGlyph>
    <TTGlyph name="Eogonek" xMin="45" yMin="-144" xMax="553" yMax="583">
      <contour>
        <pt x="553" y="-49" on="1"/>
        <pt x="537" y="-115" on="1"/>
        <pt x="493" y="-144" on="0"/>
        <pt x="445" y="-144" on="1"/>
        <pt x="407" y="-144" on="0"/>
        <pt x="356" y="-102" on="0"/>
        <pt x="356" y="-72" on="1"/>
        <pt x="356" y="-29" on="0"/>
        <pt x="408" y="-2" on="1"/>
        <pt x="408" y="0" on="1"/>
        <pt x="45" y="0" on="1"/>
        <pt x="45" y="82" on="1"/>
        <pt x="128" y="82" on="1"/>
        <pt x="128" y="501" on="1"/>
        <pt x="45" y="501" on="1"/>
        <pt x="45" y="583" on="1"/>
        <pt x="543" y="583" on="1"/>
        <pt x="548" y="367" on="1"/>
        <pt x="465" y="367" on="1"/>
        <pt x="456" y="501" on="1"/>
        <pt x="215" y="501" on="1"/>
        <pt x="215" y="348" on="1"/>
        <pt x="333" y="348" on="1"/>
        <pt x="333" y="420" on="1"/>
        <pt x="416" y="420" on="1"/>
        <pt x="416" y="195" on="1"/>
        <pt x="333" y="195" on="1"/>
        <pt x="333" y="266" on="1"/>
        <pt x="215" y="266" on="1"/>
        <pt x="215" y="82" on="1"/>
        <pt x="465" y="82" on="1"/>
        <pt x="470" y="217" on="1"/>
        <pt x="553" y="217" on="1"/>
        <pt x="553" y="0" on="1"/>
        <pt x="541" y="0" on="1"/>
        <pt x="508" y="-7" on="0"/>
        <pt x="446" y="-39" on="0"/>
        <pt x="446" y="-55" on="1"/>
        <pt x="446" y="-78" on="0"/>
        <pt x="478" y="-78" on="1"/>
        <pt x="502" y="-78" on="0"/>
      </contour>
    </TTGlyph>
    <TTGlyph name="Eth" xMin="23" yMin="0" xMax="561" yMax="583">
      <contour>
        <pt x="23" y="583" on="1"/>
        <pt x="284" y="583" on="1"/>
        <pt x="360" y="583" on="0"/>
        <pt x="458" y="553" on="0"/>
        <pt x="498" y="503" on="1"/>
        <pt x="561" y="424" on="0"/>
        <pt x="561" y="301" on="1"/>
        <pt x="561" y="144" on="0"/>
        <pt x="476" y="61" on="1"/>
        <pt x="413" y="0" on="0"/>
        <pt x="281" y="0" on="1"/>
        <pt x="23" y="0" on="1"/>
        <pt x="23" y="82" on="1"/>
        <pt x="100" y="82" on="1"/>
        <pt x="100" y="259" on="1"/>
        <pt x="23" y="259" on="1"/>
        <pt x="23" y="343" on="1"/>
        <pt x="100" y="343" on="1"/>
        <pt x="100" y="501" on="1"/>
        <pt x="23" y="501" on="1"/>
      </contour>
      <contour>
        <pt x="285" y="501" on="1"/>
        <pt x="187" y="501" on="1"/>
        <pt x="187" y="343" on="1"/>
        <pt x="333" y="343" on="1"/>
        <pt x="333" y="259" on="1"/>
        <pt x="187" y="259" on="1"/>
        <pt x="187" y="82" on="1"/>
        <pt x="281" y="82" on="1"/>
        <pt x="371" y="82" on="0"/>
        <pt x="412" y="123" on="1"/>
        <pt x="469" y="180" on="0"/>
        <pt x="469" y="300" on="1"/>
        <pt x="469" y="389" on="0"/>
        <pt x="430" y="445" on="1"/>
        <pt x="406" y="481" on="0"/>
        <pt x="344" y="501" on="0"/>
      </contour>
    </TTGlyph>
    <TTGlyph name="F" xMin="62" yMin="0" xMax="558" yMax="583">
      <contour>
        <pt x="62" y="583" on="1"/>
        <pt x="552" y="583" on="1"/>
        <pt x="558" y="368" on="1"/>
        <pt x="477" y="368" on="1"/>
        <pt x="465" y="501" on="1"/>
        <pt x="225" y="501" on="1"/>
        <pt x="225" y="348" on="1"/>
        <pt x="343" y="348" on="1"/>
        <pt x="343" y="420" on="1"/>
        <pt x="426" y="420" on="1"/>
        <pt x="426" y="195" on="1"/>
        <pt x="343" y="195" on="1"/>
        <pt x="343" y="266" on="1"/>
        <pt x="225" y="266" on="1"/>
        <pt x="225" y="82" on="1"/>
        <pt x="352" y="82" on="1"/>
        <pt x="352" y="0" on="1"/>
        <pt x="62" y="0" on="1"/>
        <pt x="62" y="82" on="1"/>
        <pt x="138" y="82" on="1"/>
        <pt x="138" y="501" on="1"/>
        <pt x="62" y="501" on="1"/>
      </contour>
    </TTGlyph>
    <TTGlyph name="G" xMin="37" yMin="-16" xMax="588" yMax="600">
      <contour>
        <pt x="450" y="593" on="1"/>
        <pt x="530" y="593" on="1"/>
        <pt x="526" y="543" on="0"/>
        <pt x="526" y="495" on="1"/>
        <pt x="526" y="431" on="0"/>
        <pt x="538" y="371" on="1"/>
        <pt x="454" y="360" on="1"/>
        <pt x="451" y="384" on="0"/>
        <pt x="446" y="414" on="0"/>
        <pt x="427" y="463" on="0"/>
        <pt x="399" y="491" on="0"/>
        <pt x="347" y="514" on="0"/>
        <pt x="312" y="514" on="1"/>
        <pt x="233" y="514" on="0"/>
        <pt x="129" y="391" on="0"/>
        <pt x="129" y="290" on="1"/>
        <pt x="129" y="192" on="0"/>
        <pt x="229" y="70" on="0"/>
        <pt x="324" y="70" on="1"/>
        <pt x="382" y="70" on="0"/>
        <pt x="454" y="97" on="1"/>
        <pt x="454" y="196" on="1"/>
        <pt x="310" y="196" on="1"/>
        <pt x="310" y="278" on="1"/>
        <pt x="588" y="278" on="1"/>
        <pt x="588" y="196" on="1"/>
        <pt x="541" y="196" on="1"/>
        <pt x="541" y="37" on="1"/>
        <pt x="418" y="-16" on="0"/>
        <pt x="323" y="-16" on="1"/>
        <pt x="229" y="-16" on="0"/>
        <pt x="96" y="75" on="0"/>
        <pt x="37" y="210" on="0"/>
        <pt x="37" y="289" on="1"/>
        <pt x="37" y="424" on="0"/>
        <pt x="195" y="600" on="0"/>
        <pt x="306" y="600" on="1"/>
        <pt x="389" y="600" on="0"/>
        <pt x="444" y="538" on="1"/>
      </contour>
    </TTGlyph>
    <TTGlyph name="Gamma" xMin="47" yMin="0" xMax="547" yMax="583">
      <contour>
        <pt x="47" y="583" on="1"/>
        <pt x="542" y="583" on="1"/>
        <pt x="547" y="371" on="1"/>
        <pt x="469" y="371" on="1"/>
        <pt x="459" y="501" on="1"/>
        <pt x="212" y="501" on="1"/>
        <pt x="212" y="82" on="1"/>
        <pt x="308" y="82" on="1"/>
        <pt x="308" y="0" on="1"/>
        <pt x="47" y="0" on="1"/>
        <pt x="47" y="82" on="1"/>
        <pt x="129" y="82" on="1"/>
        <pt x="129" y="501" on="1"/>
        <pt x="47" y="501" on="1"/>
      </contour>
    </TTGlyph>
    <TTGlyph name="Gbreve" xMin="37" yMin="-16" xMax="588" yMax="792">
      <component glyphName="G" x="0" y="0" flags="0x1004"/>
      <component glyphName="breve" x="18" y="130" flags="0x1004"/>
    </TTGlyph>
    <TTGlyph name="Gcedilla" xMin="37" yMin="-171" xMax="588" yMax="600">
      <contour>
        <pt x="354" y="-15" on="1"/>
        <pt x="353" y="-18" on="1"/>
        <pt x="371" y="-18" on="0"/>
        <pt x="428" y="-60" on="0"/>
        <pt x="428" y="-96" on="1"/>
        <pt x="428" y="-106" on="0"/>
        <pt x="421" y="-127" on="0"/>
        <pt x="404" y="-154" on="0"/>
        <pt x="361" y="-171" on="0"/>
        <pt x="331" y="-171" on="1"/>
        <pt x="286" y="-171" on="0"/>
        <pt x="202" y="-152" on="1"/>
        <pt x="214" y="-83" on="1"/>
        <pt x="286" y="-101" on="0"/>
        <pt x="325" y="-101" on="1"/>
        <pt x="339" y="-101" on="0"/>
        <pt x="344" y="-96" on="1"/>
        <pt x="342" y="-89" on="0"/>
        <pt x="320" y="-84" on="0"/>
        <pt x="273" y="-78" on="1"/>
        <pt x="281" y="-14" on="1"/>
        <pt x="222" y="-5" on="0"/>
        <pt x="130" y="47" on="0"/>
        <pt x="79" y="113" on="0"/>
        <pt x="47" y="194" on="0"/>
        <pt x="37" y="258" on="0"/>
        <pt x="37" y="289" on="1"/>
        <pt x="37" y="424" on="0"/>
        <pt x="195" y="600" on="0"/>
        <pt x="306" y="600" on="1"/>
        <pt x="389" y="600" on="0"/>
        <pt x="444" y="538" on="1"/>
        <pt x="450" y="593" on="1"/>
        <pt x="530" y="593" on="1"/>
        <pt x="526" y="543" on="0"/>
        <pt x="526" y="495" on="1"/>
        <pt x="526" y="431" on="0"/>
        <pt x="538" y="371" on="1"/>
        <pt x="454" y="360" on="1"/>
        <pt x="451" y="384" on="0"/>
        <pt x="446" y="414" on="0"/>
        <pt x="427" y="463" on="0"/>
        <pt x="399" y="491" on="0"/>
        <pt x="347" y="514" on="0"/>
        <pt x="312" y="514" on="1"/>
        <pt x="233" y="514" on="0"/>
        <pt x="129" y="391" on="0"/>
        <pt x="129" y="290" on="1"/>
        <pt x="129" y="192" on="0"/>
        <pt x="229" y="71" on="0"/>
        <pt x="324" y="71" on="1"/>
        <pt x="385" y="71" on="0"/>
        <pt x="454" y="97" on="1"/>
        <pt x="454" y="195" on="1"/>
        <pt x="310" y="195" on="1"/>
        <pt x="310" y="278" on="1"/>
        <pt x="588" y="278" on="1"/>
        <pt x="588" y="195" on="1"/>
        <pt x="541" y="195" on="1"/>
        <pt x="541" y="37" on="1"/>
        <pt x="437" y="-8" on="0"/>
      </contour>
    </TTGlyph>
    <TTGlyph name="Gcircumflex" xMin="37" yMin="-16" xMax="588" yMax="782">
      <component glyphName="G" x="0" y="0" flags="0x1004"/>
      <component glyphName="circumflex" x="18" y="130" flags="0x1004"/>
    </TTGlyph>
    <TTGlyph name="Gdotaccent" xMin="37" yMin="-16" xMax="588" yMax="783">
      <component glyphName="G" x="0" y="0" flags="0x1004"/>
      <component glyphName="dotaccent" x="18" y="130" flags="0x1004"/>
    </TTGlyph>
    <TTGlyph name="H" xMin="28" yMin="0" xMax="572" yMax="583">
      <contour>
        <pt x="28" y="583" on="1"/>
        <pt x="260" y="583" on="1"/>
        <pt x="260" y="501" on="1"/>
        <pt x="188" y="501" on="1"/>
        <pt x="188" y="342" on="1"/>
        <pt x="412" y="342" on="1"/>
        <pt x="412" y="501" on="1"/>
        <pt x="340" y="501" on="1"/>
        <pt x="340" y="583" on="1"/>
        <pt x="572" y="583" on="1"/>
        <pt x="572" y="501" on="1"/>
        <pt x="499" y="501" on="1"/>
        <pt x="499" y="82" on="1"/>
        <pt x="572" y="82" on="1"/>
        <pt x="572" y="0" on="1"/>
        <pt x="340" y="0" on="1"/>
        <pt x="340" y="82" on="1"/>
        <pt x="412" y="82" on="1"/>
        <pt x="412" y="260" on="1"/>
        <pt x="188" y="260" on="1"/>
        <pt x="188" y="82" on="1"/>
        <pt x="260" y="82" on="1"/>
        <pt x="260" y="0" on="1"/>
        <pt x="28" y="0" on="1"/>
        <pt x="28" y="82" on="1"/>
        <pt x="101" y="82" on="1"/>
        <pt x="101" y="501" on="1"/>
        <pt x="28" y="501" on="1"/>
      </contour>
    </TTGlyph>
    <TTGlyph name="Hbar" xMin="27" yMin="0" xMax="573" yMax="583">
      <contour>
        <pt x="28" y="583" on="1"/>
        <pt x="260" y="583" on="1"/>
        <pt x="260" y="501" on="1"/>
        <pt x="188" y="501" on="1"/>
        <pt x="188" y="466" on="1"/>
        <pt x="412" y="466" on="1"/>
        <pt x="412" y="501" on="1"/>
        <pt x="340" y="501" on="1"/>
        <pt x="340" y="583" on="1"/>
        <pt x="572" y="583" on="1"/>
        <pt x="572" y="501" on="1"/>
        <pt x="499" y="501" on="1"/>
        <pt x="499" y="466" on="1"/>
        <pt x="573" y="466" on="1"/>
        <pt x="573" y="382" on="1"/>
        <pt x="499" y="382" on="1"/>
        <pt x="499" y="82" on="1"/>
        <pt x="572" y="82" on="1"/>
        <pt x="572" y="0" on="1"/>
        <pt x="340" y="0" on="1"/>
        <pt x="340" y="82" on="1"/>
        <pt x="412" y="82" on="1"/>
        <pt x="412" y="260" on="1"/>
        <pt x="188" y="260" on="1"/>
        <pt x="188" y="82" on="1"/>
        <pt x="260" y="82" on="1"/>
        <pt x="260" y="0" on="1"/>
        <pt x="28" y="0" on="1"/>
        <pt x="28" y="82" on="1"/>
        <pt x="101" y="82" on="1"/>
        <pt x="101" y="382" on="1"/>
        <pt x="27" y="382" on="1"/>
        <pt x="27" y="466" on="1"/>
        <pt x="101" y="466" on="1"/>
        <pt x="101" y="501" on="1"/>
        <pt x="28" y="501" on="1"/>
      </contour>
      <contour>
        <pt x="412" y="382" on="1"/>
        <pt x="188" y="382" on="1"/>
        <pt x="188" y="343" on="1"/>
        <pt x="412" y="343" on="1"/>
      </contour>
    </TTGlyph>
    <TTGlyph name="Hcircumflex" xMin="28" yMin="0" xMax="572" yMax="782">
      <component glyphName="H" x="0" y="0" flags="0x1004"/>
      <component glyphName="circumflex" x="0" y="130" flags="0x1004"/>
    </TTGlyph>
    <TTGlyph name="I" xMin="88" yMin="0" xMax="513" yMax="583">
      <contour>
        <pt x="88" y="583" on="1"/>
        <pt x="513" y="583" on="1"/>
        <pt x="513" y="501" on="1"/>
        <pt x="344" y="501" on="1"/>
        <pt x="344" y="82" on="1"/>
        <pt x="513" y="82" on="1"/>
        <pt x="513" y="0" on="1"/>
        <pt x="88" y="0" on="1"/>
        <pt x="88" y="82" on="1"/>
        <pt x="257" y="82" on="1"/>
        <pt x="257" y="501" on="1"/>
        <pt x="88" y="501" on="1"/>
      </contour>
    </TTGlyph>
    <TTGlyph name="IJ" xMin="13" yMin="-16" xMax="592" yMax="583">
      <contour>
        <pt x="13" y="583" on="1"/>
        <pt x="269" y="583" on="1"/>
        <pt x="269" y="501" on="1"/>
        <pt x="185" y="501" on="1"/>
        <pt x="185" y="82" on="1"/>
        <pt x="260" y="82" on="1"/>
        <pt x="260" y="0" on="1"/>
        <pt x="13" y="0" on="1"/>
        <pt x="13" y="82" on="1"/>
        <pt x="98" y="82" on="1"/>
        <pt x="98" y="501" on="1"/>
        <pt x="13" y="501" on="1"/>
      </contour>
      <contour>
        <pt x="348" y="583" on="1"/>
        <pt x="592" y="583" on="1"/>
        <pt x="592" y="501" on="1"/>
        <pt x="530" y="501" on="1"/>
        <pt x="530" y="217" on="1"/>
        <pt x="530" y="184" on="0"/>
        <pt x="529" y="147" on="0"/>
        <pt x="523" y="82" on="0"/>
        <pt x="507" y="44" on="0"/>
        <pt x="481" y="3" on="0"/>
        <pt x="437" y="-16" on="0"/>
        <pt x="408" y="-16" on="1"/>
        <pt x="331" y="-16" on="0"/>
        <pt x="298" y="58" on="1"/>
        <pt x="290" y="245" on="1"/>
        <pt x="369" y="245" on="1"/>
        <pt x="369" y="181" on="1"/>
        <pt x="369" y="113" on="0"/>
        <pt x="382" y="71" on="0"/>
        <pt x="407" y="71" on="1"/>
        <pt x="421" y="71" on="0"/>
        <pt x="435" y="90" on="0"/>
        <pt x="443" y="154" on="0"/>
        <pt x="443" y="217" on="1"/>
        <pt x="443" y="501" on="1"/>
        <pt x="348" y="501" on="1"/>
      </contour>
    </TTGlyph>
    <TTGlyph name="Iacute" xMin="88" yMin="0" xMax="513" yMax="772">
      <component glyphName="I" x="0" y="0" flags="0x1004"/>
      <component glyphName="acute" x="0" y="130" flags="0x1004"/>
    </TTGlyph>
    <TTGlyph name="Icircumflex" xMin="88" yMin="0" xMax="513" yMax="782">
      <component glyphName="I" x="0" y="0" flags="0x1004"/>
      <component glyphName="circumflex" x="0" y="130" flags="0x1004"/>
    </TTGlyph>
    <TTGlyph name="Idieresis" xMin="88" yMin="0" xMax="513" yMax="778">
      <component glyphName="I" x="0" y="0" flags="0x1004"/>
      <component glyphName="dieresis" x="0" y="130" flags="0x1004"/>
    </TTGlyph>
    <TTGlyph name="Idotaccent" xMin="88" yMin="0" xMax="513" yMax="783">
      <component glyphName="I" x="0" y="0" flags="0x1004"/>
      <component glyphName="dotaccent" x="0" y="130" flags="0x1004"/>
    </TTGlyph>
    <TTGlyph name="Igrave" xMin="88" yMin="0" xMax="513" yMax="772">
      <component glyphName="I" x="0" y="0" flags="0x1004"/>
      <component glyphName="grave" x="0" y="130" flags="0x1004"/>
    </TTGlyph>
    <TTGlyph name="Imacron" xMin="88" yMin="0" xMax="513" yMax="765">
      <component glyphName="I" x="0" y="0" flags="0x1004"/>
      <component glyphName="macron" x="0" y="130" flags="0x1004"/>
    </TTGlyph>
    <TTGlyph name="Iogonek" xMin="88" yMin="-144" xMax="513" yMax="583">
      <contour>
        <pt x="420" y="-49" on="1"/>
        <pt x="405" y="-115" on="1"/>
        <pt x="361" y="-144" on="0"/>
        <pt x="313" y="-144" on="1"/>
        <pt x="274" y="-144" on="0"/>
        <pt x="223" y="-102" on="0"/>
        <pt x="223" y="-72" on="1"/>
        <pt x="223" y="-29" on="0"/>
        <pt x="275" y="-2" on="1"/>
        <pt x="275" y="0" on="1"/>
        <pt x="88" y="0" on="1"/>
        <pt x="88" y="82" on="1"/>
        <pt x="257" y="82" on="1"/>
        <pt x="257" y="501" on="1"/>
        <pt x="88" y="501" on="1"/>
        <pt x="88" y="583" on="1"/>
        <pt x="513" y="583" on="1"/>
        <pt x="513" y="501" on="1"/>
        <pt x="344" y="501" on="1"/>
        <pt x="344" y="82" on="1"/>
        <pt x="513" y="82" on="1"/>
        <pt x="513" y="0" on="1"/>
        <pt x="408" y="0" on="1"/>
        <pt x="375" y="-7" on="0"/>
        <pt x="314" y="-39" on="0"/>
        <pt x="314" y="-55" on="1"/>
        <pt x="314" y="-66" on="0"/>
        <pt x="333" y="-78" on="0"/>
        <pt x="345" y="-78" on="1"/>
        <pt x="369" y="-78" on="0"/>
      </contour>
    </TTGlyph>
    <TTGlyph name="Itilde" xMin="88" yMin="0" xMax="513" yMax="790">
      <component glyphName="I" x="0" y="0" flags="0x1004"/>
      <component glyphName="tilde" x="0" y="130" flags="0x1004"/>
    </TTGlyph>
    <TTGlyph name="J" xMin="47" yMin="-16" xMax="590" yMax="583">
      <contour>
        <pt x="189" y="583" on="1"/>
        <pt x="590" y="583" on="1"/>
        <pt x="590" y="501" on="1"/>
        <pt x="466" y="501" on="1"/>
        <pt x="466" y="217" on="1"/>
        <pt x="466" y="102" on="0"/>
        <pt x="435" y="55" on="1"/>
        <pt x="388" y="-16" on="0"/>
        <pt x="281" y="-16" on="1"/>
        <pt x="179" y="-16" on="0"/>
        <pt x="57" y="49" on="1"/>
        <pt x="47" y="294" on="1"/>
        <pt x="133" y="294" on="1"/>
        <pt x="138" y="181" on="1"/>
        <pt x="140" y="144" on="0"/>
        <pt x="157" y="107" on="0"/>
        <pt x="181" y="93" on="1"/>
        <pt x="222" y="70" on="0"/>
        <pt x="278" y="70" on="1"/>
        <pt x="307" y="70" on="0"/>
        <pt x="346" y="86" on="0"/>
        <pt x="367" y="108" on="0"/>
        <pt x="377" y="153" on="0"/>
        <pt x="379" y="186" on="0"/>
        <pt x="379" y="217" on="1"/>
        <pt x="379" y="501" on="1"/>
        <pt x="189" y="501" on="1"/>
      </contour>
    </TTGlyph>
    <TTGlyph name="Jcircumflex" xMin="47" yMin="-16" xMax="590" yMax="782">
      <component glyphName="J" x="0" y="0" flags="0x1004"/>
      <component glyphName="circumflex" x="85" y="130" flags="0x1004"/>
    </TTGlyph>
    <TTGlyph name="K" xMin="48" yMin="0" xMax="598" yMax="583">
      <contour>
        <pt x="48" y="583" on="1"/>
        <pt x="299" y="583" on="1"/>
        <pt x="299" y="501" on="1"/>
        <pt x="217" y="501" on="1"/>
        <pt x="217" y="321" on="1"/>
        <pt x="402" y="501" on="1"/>
        <pt x="342" y="501" on="1"/>
        <pt x="342" y="583" on="1"/>
        <pt x="570" y="583" on="1"/>
        <pt x="570" y="501" on="1"/>
        <pt x="515" y="501" on="1"/>
        <pt x="330" y="318" on="1"/>
        <pt x="370" y="293" on="0"/>
        <pt x="438" y="208" on="0"/>
        <pt x="472" y="144" on="0"/>
        <pt x="502" y="82" on="1"/>
        <pt x="598" y="82" on="1"/>
        <pt x="598" y="0" on="1"/>
        <pt x="441" y="0" on="1"/>
        <pt x="363" y="201" on="0"/>
        <pt x="268" y="258" on="1"/>
        <pt x="217" y="210" on="1"/>
        <pt x="217" y="82" on="1"/>
        <pt x="299" y="82" on="1"/>
        <pt x="299" y="0" on="1"/>
        <pt x="48" y="0" on="1"/>
        <pt x="48" y="82" on="1"/>
        <pt x="130" y="82" on="1"/>
        <pt x="130" y="501" on="1"/>
        <pt x="48" y="501" on="1"/>
      </contour>
    </TTGlyph>
    <TTGlyph name="Kcedilla" xMin="48" yMin="-171" xMax="598" yMax="583">
      <contour>
        <pt x="48" y="583" on="1"/>
        <pt x="299" y="583" on="1"/>
        <pt x="299" y="501" on="1"/>
        <pt x="217" y="501" on="1"/>
        <pt x="217" y="327" on="1"/>
        <pt x="393" y="501" on="1"/>
        <pt x="342" y="501" on="1"/>
        <pt x="342" y="583" on="1"/>
        <pt x="570" y="583" on="1"/>
        <pt x="570" y="501" on="1"/>
        <pt x="515" y="501" on="1"/>
        <pt x="330" y="318" on="1"/>
        <pt x="370" y="293" on="0"/>
        <pt x="438" y="208" on="0"/>
        <pt x="472" y="144" on="0"/>
        <pt x="502" y="82" on="1"/>
        <pt x="598" y="82" on="1"/>
        <pt x="598" y="0" on="1"/>
        <pt x="441" y="0" on="1"/>
        <pt x="363" y="201" on="0"/>
        <pt x="268" y="258" on="1"/>
        <pt x="217" y="210" on="1"/>
        <pt x="217" y="82" on="1"/>
        <pt x="299" y="82" on="1"/>
        <pt x="299" y="0" on="1"/>
        <pt x="48" y="0" on="1"/>
        <pt x="48" y="82" on="1"/>
        <pt x="130" y="82" on="1"/>
        <pt x="130" y="501" on="1"/>
        <pt x="48" y="501" on="1"/>
      </contour>
      <contour>
        <pt x="400" y="6" on="1"/>
        <pt x="397" y="-18" on="1"/>
        <pt x="415" y="-18" on="0"/>
        <pt x="472" y="-60" on="0"/>
        <pt x="472" y="-96" on="1"/>
        <pt x="472" y="-106" on="0"/>
        <pt x="465" y="-127" on="0"/>
        <pt x="448" y="-154" on="0"/>
        <pt x="405" y="-171" on="0"/>
        <pt x="375" y="-171" on="1"/>
        <pt x="330" y="-171" on="0"/>
        <pt x="246" y="-152" on="1"/>
        <pt x="258" y="-83" on="1"/>
        <pt x="330" y="-101" on="0"/>
        <pt x="369" y="-101" on="1"/>
        <pt x="383" y="-101" on="0"/>
        <pt x="388" y="-96" on="1"/>
        <pt x="386" y="-89" on="0"/>
        <pt x="364" y="-84" on="0"/>
        <pt x="317" y="-78" on="1"/>
        <pt x="327" y="6" on="1"/>
      </contour>
    </TTGlyph>
    <TTGlyph name="L" xMin="48" yMin="0" xMax="565" yMax="583">
      <contour>
        <pt x="48" y="583" on="1"/>
        <pt x="351" y="583" on="1"/>
        <pt x="351" y="501" on="1"/>
        <pt x="231" y="501" on="1"/>
        <pt x="231" y="82" on="1"/>
        <pt x="467" y="82" on="1"/>
        <pt x="480" y="280" on="1"/>
        <pt x="565" y="280" on="1"/>
        <pt x="552" y="0" on="1"/>
        <pt x="48" y="0" on="1"/>
        <pt x="48" y="82" on="1"/>
        <pt x="144" y="82" on="1"/>
        <pt x="144" y="501" on="1"/>
        <pt x="48" y="501" on="1"/>
      </contour>
    </TTGlyph>
    <TTGlyph name="Lacute" xMin="48" yMin="0" xMax="565" yMax="772">
      <component glyphName="L" x="0" y="0" flags="0x1004"/>
      <component glyphName="acute" x="-100" y="130" flags="0x1004"/>
    </TTGlyph>
    <TTGlyph name="Lcaron" xMin="48" yMin="0" xMax="565" yMax="782">
      <component glyphName="L" x="0" y="0" flags="0x1004"/>
      <component glyphName="caron" x="-100" y="130" flags="0x1004"/>
    </TTGlyph>
    <TTGlyph name="Lcedilla" xMin="48" yMin="-171" xMax="565" yMax="583">
      <contour>
        <pt x="363" y="0" on="1"/>
        <pt x="361" y="-18" on="1"/>
        <pt x="378" y="-18" on="0"/>
        <pt x="435" y="-60" on="0"/>
        <pt x="435" y="-96" on="1"/>
        <pt x="435" y="-106" on="0"/>
        <pt x="428" y="-127" on="0"/>
        <pt x="411" y="-154" on="0"/>
        <pt x="368" y="-171" on="0"/>
        <pt x="338" y="-171" on="1"/>
        <pt x="290" y="-171" on="0"/>
        <pt x="210" y="-152" on="1"/>
        <pt x="221" y="-83" on="1"/>
        <pt x="293" y="-101" on="0"/>
        <pt x="333" y="-101" on="1"/>
        <pt x="347" y="-101" on="0"/>
        <pt x="351" y="-96" on="1"/>
        <pt x="349" y="-89" on="0"/>
        <pt x="328" y="-84" on="0"/>
        <pt x="281" y="-78" on="1"/>
        <pt x="290" y="0" on="1"/>
        <pt x="48" y="0" on="1"/>
        <pt x="48" y="82" on="1"/>
        <pt x="144" y="82" on="1"/>
        <pt x="144" y="501" on="1"/>
        <pt x="48" y="501" on="1"/>
        <pt x="48" y="583" on="1"/>
        <pt x="351" y="583" on="1"/>
        <pt x="351" y="501" on="1"/>
        <pt x="231" y="501" on="1"/>
        <pt x="231" y="82" on="1"/>
        <pt x="467" y="82" on="1"/>
        <pt x="480" y="280" on="1"/>
        <pt x="565" y="280" on="1"/>
        <pt x="552" y="0" on="1"/>
      </contour>
    </TTGlyph>
    <TTGlyph name="Ldot" xMin="48" yMin="0" xMax="565" yMax="583">
      <contour>
        <pt x="48" y="583" on="1"/>
        <pt x="351" y="583" on="1"/>
        <pt x="351" y="501" on="1"/>
        <pt x="231" y="501" on="1"/>
        <pt x="231" y="82" on="1"/>
        <pt x="467" y="82" on="1"/>
        <pt x="480" y="280" on="1"/>
        <pt x="565" y="280" on="1"/>
        <pt x="552" y="0" on="1"/>
        <pt x="48" y="0" on="1"/>
        <pt x="48" y="82" on="1"/>
        <pt x="144" y="82" on="1"/>
        <pt x="144" y="501" on="1"/>
        <pt x="48" y="501" on="1"/>
      </contour>
      <contour>
        <pt x="335" y="399" on="0"/>
        <pt x="401" y="399" on="0"/>
        <pt x="452" y="357" on="0"/>
        <pt x="452" y="289" on="0"/>
        <pt x="401" y="246" on="0"/>
        <pt x="335" y="246" on="0"/>
        <pt x="283" y="289" on="0"/>
        <pt x="283" y="323" on="1"/>
        <pt x="283" y="356" on="0"/>
      </contour>
    </TTGlyph>
    <TTGlyph name="Lquoteright" xMin="48" yMin="0" xMax="575" yMax="583">
      <contour>
        <pt x="48" y="583" on="1"/>
        <pt x="351" y="583" on="1"/>
        <pt x="351" y="501" on="1"/>
        <pt x="231" y="501" on="1"/>
        <pt x="231" y="82" on="1"/>
        <pt x="467" y="82" on="1"/>
        <pt x="480" y="280" on="1"/>
        <pt x="565" y="280" on="1"/>
        <pt x="552" y="0" on="1"/>
        <pt x="48" y="0" on="1"/>
        <pt x="48" y="82" on="1"/>
        <pt x="144" y="82" on="1"/>
        <pt x="144" y="501" on="1"/>
        <pt x="48" y="501" on="1"/>
      </contour>
      <contour>
        <pt x="431" y="583" on="1"/>
        <pt x="575" y="583" on="1"/>
        <pt x="452" y="309" on="1"/>
        <pt x="344" y="309" on="1"/>
      </contour>
    </TTGlyph>
    <TTGlyph name="Lslash" xMin="38" yMin="0" xMax="565" yMax="583">
      <contour>
        <pt x="231" y="264" on="1"/>
        <pt x="231" y="82" on="1"/>
        <pt x="467" y="82" on="1"/>
        <pt x="480" y="280" on="1"/>
        <pt x="565" y="280" on="1"/>
        <pt x="552" y="0" on="1"/>
        <pt x="48" y="0" on="1"/>
        <pt x="48" y="82" on="1"/>
        <pt x="144" y="82" on="1"/>
        <pt x="144" y="219" on="1"/>
        <pt x="82" y="184" on="1"/>
        <pt x="38" y="260" on="1"/>
        <pt x="144" y="321" on="1"/>
        <pt x="144" y="501" on="1"/>
        <pt x="48" y="501" on="1"/>
        <pt x="48" y="583" on="1"/>
        <pt x="351" y="583" on="1"/>
        <pt x="351" y="501" on="1"/>
        <pt x="231" y="501" on="1"/>
        <pt x="231" y="365" on="1"/>
        <pt x="400" y="463" on="1"/>
        <pt x="444" y="387" on="1"/>
      </contour>
    </TTGlyph>
    <TTGlyph name="M" xMin="3" yMin="0" xMax="598" yMax="583">
      <contour>
        <pt x="294" y="289" on="1"/>
        <pt x="312" y="289" on="1"/>
        <pt x="404" y="583" on="1"/>
        <pt x="596" y="583" on="1"/>
        <pt x="596" y="501" on="1"/>
        <pt x="534" y="501" on="1"/>
        <pt x="540" y="82" on="1"/>
        <pt x="598" y="82" on="1"/>
        <pt x="598" y="0" on="1"/>
        <pt x="351" y="0" on="1"/>
        <pt x="351" y="82" on="1"/>
        <pt x="456" y="82" on="1"/>
        <pt x="451" y="438" on="1"/>
        <pt x="439" y="438" on="1"/>
        <pt x="344" y="154" on="1"/>
        <pt x="256" y="154" on="1"/>
        <pt x="162" y="438" on="1"/>
        <pt x="150" y="438" on="1"/>
        <pt x="145" y="82" on="1"/>
        <pt x="250" y="82" on="1"/>
        <pt x="250" y="0" on="1"/>
        <pt x="3" y="0" on="1"/>
        <pt x="3" y="82" on="1"/>
        <pt x="61" y="82" on="1"/>
        <pt x="67" y="501" on="1"/>
        <pt x="3" y="501" on="1"/>
        <pt x="3" y="583" on="1"/>
        <pt x="195" y="583" on="1"/>
      </contour>
    </TTGlyph>
    <TTGlyph name="N" xMin="5" yMin="-12" xMax="594" yMax="583">
      <contour>
        <pt x="5" y="583" on="1"/>
        <pt x="196" y="583" on="1"/>
        <pt x="430" y="150" on="1"/>
        <pt x="447" y="150" on="1"/>
        <pt x="447" y="501" on="1"/>
        <pt x="347" y="501" on="1"/>
        <pt x="347" y="583" on="1"/>
        <pt x="594" y="583" on="1"/>
        <pt x="594" y="501" on="1"/>
        <pt x="527" y="501" on="1"/>
        <pt x="527" y="-12" on="1"/>
        <pt x="420" y="-12" on="1"/>
        <pt x="181" y="428" on="1"/>
        <pt x="163" y="428" on="1"/>
        <pt x="163" y="82" on="1"/>
        <pt x="264" y="82" on="1"/>
        <pt x="264" y="0" on="1"/>
        <pt x="5" y="0" on="1"/>
        <pt x="5" y="82" on="1"/>
        <pt x="83" y="82" on="1"/>
        <pt x="83" y="501" on="1"/>
        <pt x="5" y="501" on="1"/>
      </contour>
    </TTGlyph>
    <TTGlyph name="Nacute" xMin="5" yMin="-12" xMax="594" yMax="772">
      <component glyphName="N" x="0" y="0" flags="0x1004"/>
      <component glyphName="acute" x="0" y="130" flags="0x1004"/>
    </TTGlyph>
    <TTGlyph name="Ncaron" xMin="5" yMin="-12" xMax="594" yMax="782">
      <component glyphName="N" x="0" y="0" flags="0x1004"/>
      <component glyphName="caron" x="0" y="130" flags="0x1004"/>
    </TTGlyph>
    <TTGlyph name="Ncedilla" xMin="5" yMin="-171" xMax="594" yMax="583">
      <contour>
        <pt x="5" y="583" on="1"/>
        <pt x="196" y="583" on="1"/>
        <pt x="430" y="150" on="1"/>
        <pt x="447" y="150" on="1"/>
        <pt x="447" y="501" on="1"/>
        <pt x="347" y="501" on="1"/>
        <pt x="347" y="583" on="1"/>
        <pt x="594" y="583" on="1"/>
        <pt x="594" y="501" on="1"/>
        <pt x="527" y="501" on="1"/>
        <pt x="527" y="-12" on="1"/>
        <pt x="420" y="-12" on="1"/>
        <pt x="181" y="428" on="1"/>
        <pt x="163" y="428" on="1"/>
        <pt x="163" y="82" on="1"/>
        <pt x="264" y="82" on="1"/>
        <pt x="264" y="0" on="1"/>
        <pt x="5" y="0" on="1"/>
        <pt x="5" y="82" on="1"/>
        <pt x="83" y="82" on="1"/>
        <pt x="83" y="501" on="1"/>
        <pt x="5" y="501" on="1"/>
      </contour>
      <contour>
        <pt x="360" y="6" on="1"/>
        <pt x="357" y="-18" on="1"/>
        <pt x="375" y="-18" on="0"/>
        <pt x="432" y="-60" on="0"/>
        <pt x="432" y="-96" on="1"/>
        <pt x="432" y="-106" on="0"/>
        <pt x="425" y="-127" on="0"/>
        <pt x="408" y="-154" on="0"/>
        <pt x="365" y="-171" on="0"/>
        <pt x="335" y="-171" on="1"/>
        <pt x="290" y="-171" on="0"/>
        <pt x="206" y="-152" on="1"/>
        <pt x="217" y="-83" on="1"/>
        <pt x="289" y="-101" on="0"/>
        <pt x="329" y="-101" on="1"/>
        <pt x="343" y="-101" on="0"/>
        <pt x="348" y="-96" on="1"/>
        <pt x="346" y="-89" on="0"/>
        <pt x="324" y="-84" on="0"/>
        <pt x="277" y="-78" on="1"/>
        <pt x="287" y="6" on="1"/>
      </contour>
    </TTGlyph>
    <TTGlyph name="Ntilde" xMin="5" yMin="-12" xMax="594" yMax="790">
      <component glyphName="N" x="0" y="0" flags="0x1004"/>
      <component glyphName="tilde" x="0" y="130" flags="0x1004"/>
    </TTGlyph>
    <TTGlyph name="O" xMin="32" yMin="-16" xMax="568" yMax="600">
      <contour>
        <pt x="32" y="161" on="0"/>
        <pt x="32" y="421" on="0"/>
        <pt x="181" y="600" on="0"/>
        <pt x="300" y="600" on="1"/>
        <pt x="420" y="600" on="0"/>
        <pt x="568" y="422" on="0"/>
        <pt x="568" y="162" on="0"/>
        <pt x="419" y="-16" on="0"/>
        <pt x="181" y="-16" on="0"/>
      </contour>
      <contour>
        <pt x="124" y="292" on="1"/>
        <pt x="124" y="200" on="0"/>
        <pt x="220" y="70" on="0"/>
        <pt x="380" y="70" on="0"/>
        <pt x="476" y="199" on="0"/>
        <pt x="476" y="292" on="1"/>
        <pt x="476" y="382" on="0"/>
        <pt x="381" y="514" on="0"/>
        <pt x="300" y="514" on="1"/>
        <pt x="220" y="514" on="0"/>
        <pt x="124" y="383" on="0"/>
      </contour>
    </TTGlyph>
    <TTGlyph name="OE" xMin="3" yMin="0" xMax="598" yMax="583">
      <contour>
        <pt x="590" y="583" on="1"/>
        <pt x="594" y="367" on="1"/>
        <pt x="523" y="367" on="1"/>
        <pt x="515" y="501" on="1"/>
        <pt x="379" y="501" on="1"/>
        <pt x="379" y="351" on="1"/>
        <pt x="412" y="351" on="1"/>
        <pt x="412" y="414" on="1"/>
        <pt x="489" y="414" on="1"/>
        <pt x="489" y="201" on="1"/>
        <pt x="412" y="201" on="1"/>
        <pt x="412" y="264" on="1"/>
        <pt x="379" y="264" on="1"/>
        <pt x="379" y="82" on="1"/>
        <pt x="517" y="82" on="1"/>
        <pt x="523" y="218" on="1"/>
        <pt x="598" y="218" on="1"/>
        <pt x="598" y="0" on="1"/>
        <pt x="247" y="0" on="1"/>
        <pt x="208" y="0" on="0"/>
        <pt x="170" y="3" on="0"/>
        <pt x="118" y="25" on="0"/>
        <pt x="95" y="47" on="1"/>
        <pt x="3" y="134" on="0"/>
        <pt x="3" y="286" on="1"/>
        <pt x="3" y="339" on="0"/>
        <pt x="35" y="443" on="0"/>
        <pt x="93" y="530" on="0"/>
        <pt x="189" y="583" on="0"/>
        <pt x="247" y="583" on="1"/>
      </contour>
      <contour>
        <pt x="292" y="124" on="1"/>
        <pt x="292" y="464" on="1"/>
        <pt x="292" y="475" on="0"/>
        <pt x="290" y="485" on="0"/>
        <pt x="282" y="500" on="0"/>
        <pt x="260" y="506" on="0"/>
        <pt x="241" y="506" on="1"/>
        <pt x="183" y="506" on="0"/>
        <pt x="95" y="377" on="0"/>
        <pt x="95" y="281" on="1"/>
        <pt x="95" y="194" on="0"/>
        <pt x="170" y="74" on="0"/>
        <pt x="233" y="74" on="1"/>
        <pt x="244" y="74" on="0"/>
        <pt x="266" y="79" on="0"/>
        <pt x="292" y="104" on="0"/>
      </contour>
    </TTGlyph>
    <TTGlyph name="Oacute" xMin="32" yMin="-16" xMax="568" yMax="772">
      <component glyphName="O" x="0" y="0" flags="0x1004"/>
      <component glyphName="acute" x="0" y="130" flags="0x1004"/>
    </TTGlyph>
    <TTGlyph name="Ocircumflex" xMin="32" yMin="-16" xMax="568" yMax="782">
      <component glyphName="O" x="0" y="0" flags="0x1004"/>
      <component glyphName="circumflex" x="0" y="130" flags="0x1004"/>
    </TTGlyph>
    <TTGlyph name="Odieresis" xMin="32" yMin="-16" xMax="568" yMax="778">
      <component glyphName="O" x="0" y="0" flags="0x1004"/>
      <component glyphName="dieresis" x="0" y="130" flags="0x1004"/>
    </TTGlyph>
    <TTGlyph name="Ograve" xMin="32" yMin="-16" xMax="568" yMax="772">
      <component glyphName="O" x="0" y="0" flags="0x1004"/>
      <component glyphName="grave" x="0" y="130" flags="0x1004"/>
    </TTGlyph>
    <TTGlyph name="Ohungarumlaut" xMin="32" yMin="-16" xMax="568" yMax="787">
      <component glyphName="O" x="0" y="0" flags="0x1004"/>
      <component glyphName="hungarumlaut" x="0" y="130" flags="0x1004"/>
    </TTGlyph>
    <TTGlyph name="Omacron" xMin="32" yMin="-16" xMax="568" yMax="765">
      <component glyphName="O" x="0" y="0" flags="0x1004"/>
      <component glyphName="macron" x="0" y="130" flags="0x1004"/>
    </TTGlyph>
    <TTGlyph name="Omega" xMin="19" yMin="0" xMax="581" yMax="599">
      <contour>
        <pt x="22" y="0" on="1"/>
        <pt x="22" y="116" on="1"/>
        <pt x="93" y="116" on="1"/>
        <pt x="93" y="76" on="1"/>
        <pt x="196" y="76" on="1"/>
        <pt x="196" y="96" on="1"/>
        <pt x="108" y="117" on="0"/>
        <pt x="19" y="245" on="0"/>
        <pt x="19" y="328" on="1"/>
        <pt x="19" y="447" on="0"/>
        <pt x="185" y="599" on="0"/>
        <pt x="300" y="599" on="1"/>
        <pt x="416" y="599" on="0"/>
        <pt x="581" y="446" on="0"/>
        <pt x="581" y="329" on="1"/>
        <pt x="581" y="317" on="0"/>
        <pt x="579" y="294" on="0"/>
        <pt x="570" y="242" on="0"/>
        <pt x="547" y="197" on="0"/>
        <pt x="511" y="147" on="0"/>
        <pt x="447" y="107" on="0"/>
        <pt x="405" y="96" on="1"/>
        <pt x="405" y="76" on="1"/>
        <pt x="507" y="76" on="1"/>
        <pt x="507" y="116" on="1"/>
        <pt x="578" y="116" on="1"/>
        <pt x="578" y="0" on="1"/>
        <pt x="329" y="0" on="1"/>
        <pt x="329" y="146" on="1"/>
        <pt x="497" y="177" on="0"/>
        <pt x="497" y="324" on="1"/>
        <pt x="497" y="371" on="0"/>
        <pt x="459" y="449" on="0"/>
        <pt x="399" y="494" on="0"/>
        <pt x="332" y="518" on="0"/>
        <pt x="300" y="518" on="1"/>
        <pt x="229" y="518" on="0"/>
        <pt x="103" y="416" on="0"/>
        <pt x="103" y="324" on="1"/>
        <pt x="103" y="175" on="0"/>
        <pt x="272" y="146" on="1"/>
        <pt x="272" y="0" on="1"/>
      </contour>
    </TTGlyph>
    <TTGlyph name="Oslash" xMin="32" yMin="-30" xMax="568" yMax="600">
      <contour>
        <pt x="491" y="596" on="1"/>
        <pt x="556" y="548" on="1"/>
        <pt x="511" y="488" on="1"/>
        <pt x="568" y="399" on="0"/>
        <pt x="568" y="292" on="1"/>
        <pt x="568" y="160" on="0"/>
        <pt x="419" y="-16" on="0"/>
        <pt x="301" y="-16" on="1"/>
        <pt x="214" y="-16" on="0"/>
        <pt x="155" y="29" on="1"/>
        <pt x="109" y="-30" on="1"/>
        <pt x="44" y="20" on="1"/>
        <pt x="96" y="86" on="1"/>
        <pt x="32" y="166" on="0"/>
        <pt x="32" y="293" on="1"/>
        <pt x="32" y="421" on="0"/>
        <pt x="180" y="600" on="0"/>
        <pt x="299" y="600" on="1"/>
        <pt x="390" y="600" on="0"/>
        <pt x="455" y="548" on="1"/>
      </contour>
      <contour>
        <pt x="451" y="411" on="1"/>
        <pt x="208" y="98" on="1"/>
        <pt x="240" y="70" on="0"/>
        <pt x="301" y="70" on="1"/>
        <pt x="375" y="70" on="0"/>
        <pt x="478" y="194" on="0"/>
        <pt x="478" y="295" on="1"/>
        <pt x="478" y="351" on="0"/>
      </contour>
      <contour>
        <pt x="155" y="162" on="1"/>
        <pt x="401" y="479" on="1"/>
        <pt x="357" y="514" on="0"/>
        <pt x="300" y="514" on="1"/>
        <pt x="219" y="514" on="0"/>
        <pt x="124" y="381" on="0"/>
        <pt x="124" y="294" on="1"/>
        <pt x="124" y="217" on="0"/>
      </contour>
    </TTGlyph>
    <TTGlyph name="Otilde" xMin="32" yMin="-16" xMax="568" yMax="790">
      <component glyphName="O" x="0" y="0" flags="0x1004"/>
      <component glyphName="tilde" x="0" y="130" flags="0x1004"/>
    </TTGlyph>
    <TTGlyph name="P" xMin="81" yMin="0" xMax="566" yMax="583">
      <contour>
        <pt x="81" y="583" on="1"/>
        <pt x="320" y="583" on="1"/>
        <pt x="422" y="583" on="0"/>
        <pt x="472" y="555" on="1"/>
        <pt x="514" y="532" on="0"/>
        <pt x="566" y="443" on="0"/>
        <pt x="566" y="394" on="1"/>
        <pt x="566" y="350" on="0"/>
        <pt x="521" y="265" on="0"/>
        <pt x="487" y="246" on="1"/>
        <pt x="448" y="224" on="0"/>
        <pt x="373" y="213" on="0"/>
        <pt x="280" y="213" on="1"/>
        <pt x="245" y="213" on="1"/>
        <pt x="245" y="82" on="1"/>
        <pt x="387" y="82" on="1"/>
        <pt x="387" y="0" on="1"/>
        <pt x="81" y="0" on="1"/>
        <pt x="81" y="82" on="1"/>
        <pt x="158" y="82" on="1"/>
        <pt x="158" y="501" on="1"/>
        <pt x="81" y="501" on="1"/>
      </contour>
      <contour>
        <pt x="321" y="501" on="1"/>
        <pt x="245" y="501" on="1"/>
        <pt x="245" y="295" on="1"/>
        <pt x="281" y="295" on="1"/>
        <pt x="354" y="295" on="0"/>
        <pt x="413" y="305" on="0"/>
        <pt x="434" y="316" on="1"/>
        <pt x="448" y="323" on="0"/>
        <pt x="474" y="368" on="0"/>
        <pt x="474" y="426" on="0"/>
        <pt x="446" y="474" on="0"/>
        <pt x="427" y="484" on="1"/>
        <pt x="396" y="501" on="0"/>
      </contour>
    </TTGlyph>
    <TTGlyph name="Phi" xMin="40" yMin="0" xMax="560" yMax="583">
      <contour>
        <pt x="259" y="516" on="1"/>
        <pt x="176" y="516" on="1"/>
        <pt x="176" y="583" on="1"/>
        <pt x="424" y="583" on="1"/>
        <pt x="424" y="516" on="1"/>
        <pt x="341" y="516" on="1"/>
        <pt x="341" y="475" on="1"/>
        <pt x="444" y="470" on="0"/>
        <pt x="490" y="435" on="1"/>
        <pt x="560" y="383" on="0"/>
        <pt x="560" y="293" on="1"/>
        <pt x="560" y="206" on="0"/>
        <pt x="438" y="116" on="0"/>
        <pt x="341" y="113" on="1"/>
        <pt x="341" y="65" on="1"/>
        <pt x="424" y="65" on="1"/>
        <pt x="424" y="0" on="1"/>
        <pt x="176" y="0" on="1"/>
        <pt x="176" y="65" on="1"/>
        <pt x="259" y="65" on="1"/>
        <pt x="259" y="113" on="1"/>
        <pt x="158" y="117" on="0"/>
        <pt x="40" y="206" on="0"/>
        <pt x="40" y="293" on="1"/>
        <pt x="40" y="306" on="0"/>
        <pt x="43" y="333" on="0"/>
        <pt x="66" y="392" on="0"/>
        <pt x="108" y="435" on="0"/>
        <pt x="197" y="472" on="0"/>
        <pt x="259" y="475" on="1"/>
      </contour>
      <contour>
        <pt x="259" y="190" on="1"/>
        <pt x="259" y="397" on="1"/>
        <pt x="241" y="396" on="0"/>
        <pt x="226" y="396" on="0"/>
        <pt x="176" y="384" on="0"/>
        <pt x="149" y="365" on="0"/>
        <pt x="124" y="323" on="0"/>
        <pt x="124" y="265" on="0"/>
        <pt x="148" y="223" on="0"/>
        <pt x="175" y="203" on="0"/>
        <pt x="222" y="192" on="0"/>
        <pt x="241" y="191" on="0"/>
      </contour>
      <contour>
        <pt x="341" y="397" on="1"/>
        <pt x="341" y="190" on="1"/>
        <pt x="409" y="192" on="0"/>
        <pt x="476" y="242" on="0"/>
        <pt x="476" y="295" on="1"/>
        <pt x="476" y="393" on="0"/>
      </contour>
    </TTGlyph>
    <TTGlyph name="Pts" xMin="7" yMin="-14" xMax="596" yMax="583">
      <contour>
        <pt x="7" y="583" on="1"/>
        <pt x="209" y="583" on="1"/>
        <pt x="421" y="583" on="0"/>
        <pt x="421" y="439" on="1"/>
        <pt x="421" y="399" on="0"/>
        <pt x="383" y="337" on="0"/>
        <pt x="356" y="323" on="1"/>
        <pt x="323" y="308" on="0"/>
        <pt x="255" y="300" on="0"/>
        <pt x="169" y="300" on="1"/>
        <pt x="127" y="300" on="1"/>
        <pt x="127" y="74" on="1"/>
        <pt x="169" y="74" on="1"/>
        <pt x="169" y="0" on="1"/>
        <pt x="7" y="0" on="1"/>
        <pt x="7" y="74" on="1"/>
        <pt x="46" y="74" on="1"/>
        <pt x="46" y="515" on="1"/>
        <pt x="7" y="515" on="1"/>
      </contour>
      <contour>
        <pt x="195" y="271" on="1"/>
        <pt x="260" y="271" on="1"/>
        <pt x="260" y="207" on="1"/>
        <pt x="360" y="207" on="1"/>
        <pt x="360" y="143" on="1"/>
        <pt x="260" y="143" on="1"/>
        <pt x="260" y="102" on="1"/>
        <pt x="260" y="84" on="0"/>
        <pt x="262" y="68" on="0"/>
        <pt x="275" y="53" on="0"/>
        <pt x="288" y="53" on="1"/>
        <pt x="311" y="53" on="0"/>
        <pt x="360" y="74" on="1"/>
        <pt x="382" y="12" on="1"/>
        <pt x="327" y="-14" on="0"/>
        <pt x="285" y="-14" on="1"/>
        <pt x="259" y="-14" on="0"/>
        <pt x="223" y="2" on="0"/>
        <pt x="206" y="22" on="0"/>
        <pt x="196" y="60" on="0"/>
        <pt x="195" y="82" on="0"/>
        <pt x="195" y="102" on="1"/>
        <pt x="195" y="143" on="1"/>
        <pt x="162" y="143" on="1"/>
        <pt x="162" y="207" on="1"/>
        <pt x="195" y="207" on="1"/>
      </contour>
      <contour>
        <pt x="532" y="213" on="1"/>
        <pt x="532" y="224" on="1"/>
        <pt x="583" y="216" on="1"/>
        <pt x="581" y="178" on="0"/>
        <pt x="583" y="143" on="1"/>
        <pt x="540" y="143" on="1"/>
        <pt x="537" y="171" on="0"/>
        <pt x="494" y="171" on="1"/>
        <pt x="463" y="171" on="0"/>
        <pt x="463" y="149" on="1"/>
        <pt x="463" y="131" on="0"/>
        <pt x="496" y="128" on="1"/>
        <pt x="508" y="125" on="0"/>
        <pt x="522" y="125" on="1"/>
        <pt x="552" y="121" on="0"/>
        <pt x="587" y="94" on="0"/>
        <pt x="596" y="71" on="0"/>
        <pt x="596" y="59" on="1"/>
        <pt x="596" y="28" on="0"/>
        <pt x="549" y="-14" on="0"/>
        <pt x="517" y="-14" on="1"/>
        <pt x="495" y="-14" on="0"/>
        <pt x="463" y="0" on="1"/>
        <pt x="463" y="-13" on="1"/>
        <pt x="408" y="-6" on="1"/>
        <pt x="410" y="2" on="0"/>
        <pt x="410" y="23" on="1"/>
        <pt x="410" y="43" on="0"/>
        <pt x="408" y="69" on="1"/>
        <pt x="454" y="69" on="1"/>
        <pt x="462" y="41" on="0"/>
        <pt x="501" y="41" on="1"/>
        <pt x="539" y="41" on="0"/>
        <pt x="539" y="64" on="1"/>
        <pt x="539" y="81" on="0"/>
        <pt x="516" y="83" on="1"/>
        <pt x="494" y="85" on="0"/>
        <pt x="470" y="89" on="0"/>
        <pt x="436" y="99" on="0"/>
        <pt x="419" y="113" on="0"/>
        <pt x="406" y="138" on="0"/>
        <pt x="406" y="156" on="1"/>
        <pt x="406" y="184" on="0"/>
        <pt x="442" y="218" on="0"/>
        <pt x="472" y="225" on="0"/>
        <pt x="484" y="225" on="1"/>
        <pt x="503" y="225" on="0"/>
      </contour>
      <contour>
        <pt x="203" y="509" on="1"/>
        <pt x="127" y="509" on="1"/>
        <pt x="127" y="371" on="1"/>
        <pt x="180" y="371" on="1"/>
        <pt x="222" y="371" on="0"/>
        <pt x="271" y="375" on="0"/>
        <pt x="320" y="387" on="0"/>
        <pt x="341" y="416" on="0"/>
        <pt x="341" y="439" on="1"/>
        <pt x="341" y="459" on="0"/>
        <pt x="320" y="487" on="0"/>
        <pt x="293" y="501" on="0"/>
        <pt x="248" y="508" on="0"/>
        <pt x="223" y="509" on="0"/>
      </contour>
    </TTGlyph>
    <TTGlyph name="Q" xMin="33" yMin="-125" xMax="567" yMax="600">
      <contour>
        <pt x="515" y="-3" on="1"/>
        <pt x="567" y="-67" on="1"/>
        <pt x="558" y="-73" on="1"/>
        <pt x="533" y="-90" on="0"/>
        <pt x="512" y="-102" on="0"/>
        <pt x="465" y="-119" on="0"/>
        <pt x="442" y="-119" on="1"/>
        <pt x="405" y="-119" on="0"/>
        <pt x="351" y="-95" on="1"/>
        <pt x="312" y="-78" on="0"/>
        <pt x="284" y="-78" on="1"/>
        <pt x="257" y="-78" on="0"/>
        <pt x="216" y="-94" on="0"/>
        <pt x="171" y="-120" on="1"/>
        <pt x="170" y="-120" on="0"/>
        <pt x="164" y="-124" on="0"/>
        <pt x="163" y="-125" on="1"/>
        <pt x="121" y="-53" on="1"/>
        <pt x="148" y="-37" on="0"/>
        <pt x="173" y="-18" on="0"/>
        <pt x="197" y="8" on="1"/>
        <pt x="135" y="37" on="0"/>
        <pt x="103" y="77" on="1"/>
        <pt x="33" y="164" on="0"/>
        <pt x="33" y="295" on="1"/>
        <pt x="33" y="435" on="0"/>
        <pt x="189" y="600" on="0"/>
        <pt x="299" y="600" on="1"/>
        <pt x="412" y="600" on="0"/>
        <pt x="567" y="432" on="0"/>
        <pt x="567" y="291" on="1"/>
        <pt x="567" y="221" on="0"/>
        <pt x="528" y="110" on="0"/>
        <pt x="474" y="49" on="0"/>
        <pt x="406" y="9" on="0"/>
        <pt x="359" y="-3" on="0"/>
        <pt x="341" y="-4" on="1"/>
        <pt x="341" y="-6" on="1"/>
        <pt x="354" y="-6" on="1"/>
        <pt x="371" y="-20" on="0"/>
        <pt x="421" y="-38" on="0"/>
        <pt x="439" y="-38" on="1"/>
        <pt x="468" y="-38" on="0"/>
      </contour>
      <contour>
        <pt x="296" y="73" on="1"/>
        <pt x="311" y="73" on="0"/>
        <pt x="341" y="77" on="0"/>
        <pt x="400" y="101" on="0"/>
        <pt x="442" y="143" on="0"/>
        <pt x="475" y="230" on="0"/>
        <pt x="475" y="290" on="1"/>
        <pt x="475" y="345" on="0"/>
        <pt x="447" y="430" on="0"/>
        <pt x="407" y="476" on="0"/>
        <pt x="355" y="506" on="0"/>
        <pt x="316" y="514" on="0"/>
        <pt x="299" y="514" on="1"/>
        <pt x="273" y="514" on="0"/>
        <pt x="219" y="494" on="0"/>
        <pt x="162" y="449" on="0"/>
        <pt x="125" y="357" on="0"/>
        <pt x="125" y="295" on="1"/>
        <pt x="125" y="186" on="0"/>
        <pt x="224" y="73" on="0"/>
      </contour>
    </TTGlyph>
    <TTGlyph name="R" xMin="35" yMin="0" xMax="588" yMax="583">
      <contour>
        <pt x="35" y="583" on="1"/>
        <pt x="302" y="583" on="1"/>
        <pt x="356" y="583" on="0"/>
        <pt x="417" y="572" on="0"/>
        <pt x="445" y="553" on="1"/>
        <pt x="474" y="533" on="0"/>
        <pt x="511" y="459" on="0"/>
        <pt x="511" y="419" on="1"/>
        <pt x="511" y="408" on="0"/>
        <pt x="509" y="388" on="0"/>
        <pt x="495" y="343" on="0"/>
        <pt x="471" y="308" on="0"/>
        <pt x="418" y="270" on="0"/>
        <pt x="382" y="259" on="1"/>
        <pt x="421" y="205" on="0"/>
        <pt x="494" y="82" on="1"/>
        <pt x="588" y="82" on="1"/>
        <pt x="588" y="0" on="1"/>
        <pt x="434" y="0" on="1"/>
        <pt x="392" y="91" on="0"/>
        <pt x="337" y="174" on="1"/>
        <pt x="305" y="222" on="0"/>
        <pt x="275" y="249" on="0"/>
        <pt x="251" y="249" on="1"/>
        <pt x="200" y="249" on="1"/>
        <pt x="200" y="82" on="1"/>
        <pt x="287" y="82" on="1"/>
        <pt x="287" y="0" on="1"/>
        <pt x="35" y="0" on="1"/>
        <pt x="35" y="82" on="1"/>
        <pt x="113" y="82" on="1"/>
        <pt x="113" y="501" on="1"/>
        <pt x="35" y="501" on="1"/>
      </contour>
      <contour>
        <pt x="302" y="501" on="1"/>
        <pt x="200" y="501" on="1"/>
        <pt x="200" y="331" on="1"/>
        <pt x="274" y="331" on="1"/>
        <pt x="353" y="331" on="0"/>
        <pt x="385" y="352" on="1"/>
        <pt x="419" y="375" on="0"/>
        <pt x="419" y="422" on="1"/>
        <pt x="419" y="468" on="0"/>
        <pt x="362" y="501" on="0"/>
      </contour>
    </TTGlyph>
    <TTGlyph name="Racute" xMin="35" yMin="0" xMax="588" yMax="772">
      <component glyphName="R" x="0" y="0" flags="0x1004"/>
      <component glyphName="acute" x="0" y="130" flags="0x1004"/>
    </TTGlyph>
    <TTGlyph name="Rcaron" xMin="35" yMin="0" xMax="588" yMax="782">
      <component glyphName="R" x="0" y="0" flags="0x1004"/>
      <component glyphName="caron" x="0" y="130" flags="0x1004"/>
    </TTGlyph>
    <TTGlyph name="Rcedilla" xMin="35" yMin="-171" xMax="588" yMax="583">
      <contour>
        <pt x="35" y="583" on="1"/>
        <pt x="302" y="583" on="1"/>
        <pt x="356" y="583" on="0"/>
        <pt x="417" y="572" on="0"/>
        <pt x="445" y="553" on="1"/>
        <pt x="474" y="533" on="0"/>
        <pt x="511" y="459" on="0"/>
        <pt x="511" y="419" on="1"/>
        <pt x="511" y="408" on="0"/>
        <pt x="509" y="388" on="0"/>
        <pt x="495" y="343" on="0"/>
        <pt x="471" y="308" on="0"/>
        <pt x="418" y="270" on="0"/>
        <pt x="382" y="259" on="1"/>
        <pt x="421" y="205" on="0"/>
        <pt x="494" y="82" on="1"/>
        <pt x="588" y="82" on="1"/>
        <pt x="588" y="0" on="1"/>
        <pt x="434" y="0" on="1"/>
        <pt x="392" y="91" on="0"/>
        <pt x="337" y="174" on="1"/>
        <pt x="305" y="222" on="0"/>
        <pt x="275" y="249" on="0"/>
        <pt x="251" y="249" on="1"/>
        <pt x="200" y="249" on="1"/>
        <pt x="200" y="82" on="1"/>
        <pt x="287" y="82" on="1"/>
        <pt x="287" y="0" on="1"/>
        <pt x="35" y="0" on="1"/>
        <pt x="35" y="82" on="1"/>
        <pt x="113" y="82" on="1"/>
        <pt x="113" y="501" on="1"/>
        <pt x="35" y="501" on="1"/>
      </contour>
      <contour>
        <pt x="302" y="501" on="1"/>
        <pt x="200" y="501" on="1"/>
        <pt x="200" y="331" on="1"/>
        <pt x="274" y="331" on="1"/>
        <pt x="353" y="331" on="0"/>
        <pt x="385" y="352" on="1"/>
        <pt x="419" y="375" on="0"/>
        <pt x="419" y="422" on="1"/>
        <pt x="419" y="468" on="0"/>
        <pt x="362" y="501" on="0"/>
      </contour>
      <contour>
        <pt x="388" y="6" on="1"/>
        <pt x="385" y="-18" on="1"/>
        <pt x="403" y="-18" on="0"/>
        <pt x="460" y="-60" on="0"/>
        <pt x="460" y="-96" on="1"/>
        <pt x="460" y="-106" on="0"/>
        <pt x="453" y="-127" on="0"/>
        <pt x="436" y="-154" on="0"/>
        <pt x="393" y="-171" on="0"/>
        <pt x="363" y="-171" on="1"/>
        <pt x="318" y="-171" on="0"/>
        <pt x="234" y="-152" on="1"/>
        <pt x="246" y="-83" on="1"/>
        <pt x="318" y="-101" on="0"/>
        <pt x="357" y="-101" on="1"/>
        <pt x="371" y="-101" on="0"/>
        <pt x="376" y="-96" on="1"/>
        <pt x="374" y="-89" on="0"/>
        <pt x="353" y="-84" on="0"/>
        <pt x="306" y="-78" on="1"/>
        <pt x="315" y="6" on="1"/>
      </contour>
    </TTGlyph>
    <TTGlyph name="S" xMin="85" yMin="-19" xMax="525" yMax="600">
      <contour>
        <pt x="435" y="593" on="1"/>
        <pt x="515" y="593" on="1"/>
        <pt x="511" y="549" on="0"/>
        <pt x="511" y="507" on="1"/>
        <pt x="511" y="467" on="0"/>
        <pt x="517" y="395" on="1"/>
        <pt x="519" y="389" on="0"/>
        <pt x="519" y="371" on="1"/>
        <pt x="440" y="360" on="1"/>
        <pt x="437" y="384" on="0"/>
        <pt x="432" y="411" on="0"/>
        <pt x="414" y="462" on="0"/>
        <pt x="387" y="491" on="0"/>
        <pt x="337" y="514" on="0"/>
        <pt x="304" y="514" on="1"/>
        <pt x="241" y="514" on="0"/>
        <pt x="175" y="454" on="0"/>
        <pt x="175" y="417" on="1"/>
        <pt x="175" y="392" on="0"/>
        <pt x="201" y="359" on="0"/>
        <pt x="252" y="342" on="0"/>
        <pt x="281" y="336" on="0"/>
        <pt x="307" y="333" on="1"/>
        <pt x="398" y="322" on="0"/>
        <pt x="427" y="310" on="1"/>
        <pt x="441" y="304" on="0"/>
        <pt x="454" y="296" on="1"/>
        <pt x="525" y="251" on="0"/>
        <pt x="525" y="166" on="1"/>
        <pt x="525" y="89" on="0"/>
        <pt x="403" y="-16" on="0"/>
        <pt x="315" y="-16" on="1"/>
        <pt x="277" y="-16" on="0"/>
        <pt x="220" y="4" on="0"/>
        <pt x="196" y="24" on="0"/>
        <pt x="180" y="41" on="1"/>
        <pt x="172" y="-19" on="1"/>
        <pt x="91" y="-19" on="1"/>
        <pt x="94" y="11" on="0"/>
        <pt x="94" y="48" on="1"/>
        <pt x="94" y="123" on="0"/>
        <pt x="86" y="208" on="1"/>
        <pt x="166" y="208" on="1"/>
        <pt x="179" y="70" on="0"/>
        <pt x="302" y="70" on="1"/>
        <pt x="354" y="70" on="0"/>
        <pt x="435" y="117" on="0"/>
        <pt x="435" y="164" on="1"/>
        <pt x="435" y="193" on="0"/>
        <pt x="398" y="229" on="0"/>
        <pt x="353" y="240" on="0"/>
        <pt x="317" y="244" on="1"/>
        <pt x="295" y="246" on="0"/>
        <pt x="268" y="250" on="0"/>
        <pt x="214" y="261" on="0"/>
        <pt x="178" y="275" on="0"/>
        <pt x="132" y="301" on="0"/>
        <pt x="104" y="334" on="0"/>
        <pt x="85" y="384" on="0"/>
        <pt x="85" y="415" on="1"/>
        <pt x="85" y="492" on="0"/>
        <pt x="213" y="600" on="0"/>
        <pt x="291" y="600" on="1"/>
        <pt x="368" y="600" on="0"/>
        <pt x="427" y="537" on="1"/>
      </contour>
    </TTGlyph>
    <TTGlyph name="SF010000" xMin="264" yMin="-288" xMax="600" yMax="288">
      <contour>
        <pt x="336" y="216" on="1"/>
        <pt x="336" y="-288" on="1"/>
        <pt x="264" y="-288" on="1"/>
        <pt x="264" y="288" on="1"/>
        <pt x="600" y="288" on="1"/>
        <pt x="600" y="216" on="1"/>
      </contour>
    </TTGlyph>
    <TTGlyph name="SF020000" xMin="264" yMin="216" xMax="600" yMax="792">
      <contour>
        <pt x="336" y="288" on="1"/>
        <pt x="600" y="288" on="1"/>
        <pt x="600" y="216" on="1"/>
        <pt x="264" y="216" on="1"/>
        <pt x="264" y="792" on="1"/>
        <pt x="336" y="792" on="1"/>
      </contour>
    </TTGlyph>
    <TTGlyph name="SF030000" xMin="0" yMin="-288" xMax="336" yMax="288">
      <contour>
        <pt x="0" y="216" on="1"/>
        <pt x="0" y="288" on="1"/>
        <pt x="336" y="288" on="1"/>
        <pt x="336" y="-288" on="1"/>
        <pt x="264" y="-288" on="1"/>
        <pt x="264" y="216" on="1"/>
      </contour>
    </TTGlyph>
    <TTGlyph name="SF040000" xMin="0" yMin="216" xMax="336" yMax="792">
      <contour>
        <pt x="264" y="288" on="1"/>
        <pt x="264" y="792" on="1"/>
        <pt x="336" y="792" on="1"/>
        <pt x="336" y="216" on="1"/>
        <pt x="0" y="216" on="1"/>
        <pt x="0" y="288" on="1"/>
      </contour>
    </TTGlyph>
    <TTGlyph name="SF050000" xMin="0" yMin="-288" xMax="600" yMax="792">
      <contour>
        <pt x="336" y="288" on="1"/>
        <pt x="600" y="288" on="1"/>
        <pt x="600" y="216" on="1"/>
        <pt x="336" y="216" on="1"/>
        <pt x="336" y="-288" on="1"/>
        <pt x="264" y="-288" on="1"/>
        <pt x="264" y="216" on="1"/>
        <pt x="0" y="216" on="1"/>
        <pt x="0" y="288" on="1"/>
        <pt x="264" y="288" on="1"/>
        <pt x="264" y="792" on="1"/>
        <pt x="336" y="792" on="1"/>
      </contour>
    </TTGlyph>
    <TTGlyph name="SF060000" xMin="0" yMin="-288" xMax="600" yMax="288">
      <contour>
        <pt x="336" y="216" on="1"/>
        <pt x="336" y="-288" on="1"/>
        <pt x="264" y="-288" on="1"/>
        <pt x="264" y="216" on="1"/>
        <pt x="0" y="216" on="1"/>
        <pt x="0" y="288" on="1"/>
        <pt x="600" y="288" on="1"/>
        <pt x="600" y="216" on="1"/>
      </contour>
    </TTGlyph>
    <TTGlyph name="SF070000" xMin="0" yMin="216" xMax="600" yMax="792">
      <contour>
        <pt x="336" y="288" on="1"/>
        <pt x="600" y="288" on="1"/>
        <pt x="600" y="216" on="1"/>
        <pt x="0" y="216" on="1"/>
        <pt x="0" y="288" on="1"/>
        <pt x="264" y="288" on="1"/>
        <pt x="264" y="792" on="1"/>
        <pt x="336" y="792" on="1"/>
      </contour>
    </TTGlyph>
    <TTGlyph name="SF080000" xMin="264" yMin="-288" xMax="600" yMax="792">
      <contour>
        <pt x="264" y="-288" on="1"/>
        <pt x="264" y="792" on="1"/>
        <pt x="336" y="792" on="1"/>
        <pt x="336" y="288" on="1"/>
        <pt x="600" y="288" on="1"/>
        <pt x="600" y="216" on="1"/>
        <pt x="336" y="216" on="1"/>
        <pt x="336" y="-288" on="1"/>
      </contour>
    </TTGlyph>
    <TTGlyph name="SF090000" xMin="0" yMin="-288" xMax="336" yMax="792">
      <contour>
        <pt x="336" y="-288" on="1"/>
        <pt x="264" y="-288" on="1"/>
        <pt x="264" y="216" on="1"/>
        <pt x="0" y="216" on="1"/>
        <pt x="0" y="288" on="1"/>
        <pt x="264" y="288" on="1"/>
        <pt x="264" y="792" on="1"/>
        <pt x="336" y="792" on="1"/>
      </contour>
    </TTGlyph>
    <TTGlyph name="SF100000" xMin="0" yMin="216" xMax="600" yMax="288">
      <contour>
        <pt x="0" y="216" on="1"/>
        <pt x="0" y="288" on="1"/>
        <pt x="600" y="288" on="1"/>
        <pt x="600" y="216" on="1"/>
      </contour>
    </TTGlyph>
    <TTGlyph name="SF110000" xMin="264" yMin="-288" xMax="336" yMax="792">
      <contour>
        <pt x="264" y="-288" on="1"/>
        <pt x="264" y="792" on="1"/>
        <pt x="336" y="792" on="1"/>
        <pt x="336" y="-288" on="1"/>
      </contour>
    </TTGlyph>
    <TTGlyph name="SF140000" xMin="0" yMin="-167" xMax="500" yMax="733">
      <contour>
        <pt x="500" y="533" on="1"/>
        <pt x="500" y="433" on="1"/>
        <pt x="400" y="433" on="1"/>
        <pt x="400" y="533" on="1"/>
      </contour>
      <contour>
        <pt x="300" y="533" on="1"/>
        <pt x="300" y="433" on="1"/>
        <pt x="200" y="433" on="1"/>
        <pt x="200" y="533" on="1"/>
      </contour>
      <contour>
        <pt x="500" y="333" on="1"/>
        <pt x="500" y="233" on="1"/>
        <pt x="400" y="233" on="1"/>
        <pt x="400" y="333" on="1"/>
      </contour>
      <contour>
        <pt x="300" y="333" on="1"/>
        <pt x="300" y="233" on="1"/>
        <pt x="200" y="233" on="1"/>
        <pt x="200" y="333" on="1"/>
      </contour>
      <contour>
        <pt x="500" y="133" on="1"/>
        <pt x="500" y="33" on="1"/>
        <pt x="400" y="33" on="1"/>
        <pt x="400" y="133" on="1"/>
      </contour>
      <contour>
        <pt x="300" y="133" on="1"/>
        <pt x="300" y="33" on="1"/>
        <pt x="200" y="33" on="1"/>
        <pt x="200" y="133" on="1"/>
      </contour>
      <contour>
        <pt x="500" y="-67" on="1"/>
        <pt x="500" y="-167" on="1"/>
        <pt x="400" y="-167" on="1"/>
        <pt x="400" y="-67" on="1"/>
      </contour>
      <contour>
        <pt x="300" y="-67" on="1"/>
        <pt x="300" y="-167" on="1"/>
        <pt x="200" y="-167" on="1"/>
        <pt x="200" y="-67" on="1"/>
      </contour>
      <contour>
        <pt x="100" y="533" on="1"/>
        <pt x="100" y="433" on="1"/>
        <pt x="0" y="433" on="1"/>
        <pt x="0" y="533" on="1"/>
      </contour>
      <contour>
        <pt x="100" y="333" on="1"/>
        <pt x="100" y="233" on="1"/>
        <pt x="0" y="233" on="1"/>
        <pt x="0" y="333" on="1"/>
      </contour>
      <contour>
        <pt x="100" y="133" on="1"/>
        <pt x="100" y="33" on="1"/>
        <pt x="0" y="33" on="1"/>
        <pt x="0" y="133" on="1"/>
      </contour>
      <contour>
        <pt x="100" y="-67" on="1"/>
        <pt x="100" y="-167" on="1"/>
        <pt x="0" y="-167" on="1"/>
        <pt x="0" y="-67" on="1"/>
      </contour>
      <contour>
        <pt x="100" y="733" on="1"/>
        <pt x="100" y="633" on="1"/>
        <pt x="0" y="633" on="1"/>
        <pt x="0" y="733" on="1"/>
      </contour>
      <contour>
        <pt x="300" y="733" on="1"/>
        <pt x="300" y="633" on="1"/>
        <pt x="200" y="633" on="1"/>
        <pt x="200" y="733" on="1"/>
      </contour>
      <contour>
        <pt x="500" y="733" on="1"/>
        <pt x="500" y="633" on="1"/>
        <pt x="400" y="633" on="1"/>
        <pt x="400" y="733" on="1"/>
      </contour>
    </TTGlyph>
    <TTGlyph name="SF150000" xMin="0" yMin="-267" xMax="600" yMax="733">
      <contour>
        <pt x="0" y="733" on="1"/>
        <pt x="100" y="733" on="1"/>
        <pt x="100" y="634" on="1"/>
        <pt x="99" y="633" on="1"/>
        <pt x="0" y="633" on="1"/>
      </contour>
      <contour>
        <pt x="200" y="733" on="1"/>
        <pt x="300" y="733" on="1"/>
        <pt x="300" y="634" on="1"/>
        <pt x="299" y="633" on="1"/>
        <pt x="201" y="633" on="1"/>
        <pt x="200" y="634" on="1"/>
      </contour>
      <contour>
        <pt x="400" y="733" on="1"/>
        <pt x="500" y="733" on="1"/>
        <pt x="500" y="634" on="1"/>
        <pt x="499" y="633" on="1"/>
        <pt x="401" y="633" on="1"/>
        <pt x="400" y="634" on="1"/>
      </contour>
      <contour>
        <pt x="100" y="632" on="1"/>
        <pt x="101" y="633" on="1"/>
        <pt x="199" y="633" on="1"/>
        <pt x="200" y="632" on="1"/>
        <pt x="200" y="534" on="1"/>
        <pt x="199" y="533" on="1"/>
        <pt x="101" y="533" on="1"/>
        <pt x="100" y="534" on="1"/>
      </contour>
      <contour>
        <pt x="300" y="632" on="1"/>
        <pt x="301" y="633" on="1"/>
        <pt x="399" y="633" on="1"/>
        <pt x="400" y="632" on="1"/>
        <pt x="400" y="534" on="1"/>
        <pt x="399" y="533" on="1"/>
        <pt x="301" y="533" on="1"/>
        <pt x="300" y="534" on="1"/>
      </contour>
      <contour>
        <pt x="501" y="633" on="1"/>
        <pt x="600" y="633" on="1"/>
        <pt x="600" y="533" on="1"/>
        <pt x="501" y="533" on="1"/>
        <pt x="500" y="534" on="1"/>
        <pt x="500" y="632" on="1"/>
      </contour>
      <contour>
        <pt x="0" y="533" on="1"/>
        <pt x="99" y="533" on="1"/>
        <pt x="100" y="532" on="1"/>
        <pt x="100" y="434" on="1"/>
        <pt x="99" y="433" on="1"/>
        <pt x="0" y="433" on="1"/>
      </contour>
      <contour>
        <pt x="200" y="532" on="1"/>
        <pt x="201" y="533" on="1"/>
        <pt x="299" y="533" on="1"/>
        <pt x="300" y="532" on="1"/>
        <pt x="300" y="434" on="1"/>
        <pt x="299" y="433" on="1"/>
        <pt x="201" y="433" on="1"/>
        <pt x="200" y="434" on="1"/>
      </contour>
      <contour>
        <pt x="400" y="532" on="1"/>
        <pt x="401" y="533" on="1"/>
        <pt x="499" y="533" on="1"/>
        <pt x="500" y="532" on="1"/>
        <pt x="500" y="434" on="1"/>
        <pt x="499" y="433" on="1"/>
        <pt x="401" y="433" on="1"/>
        <pt x="400" y="434" on="1"/>
      </contour>
      <contour>
        <pt x="100" y="432" on="1"/>
        <pt x="101" y="433" on="1"/>
        <pt x="199" y="433" on="1"/>
        <pt x="200" y="432" on="1"/>
        <pt x="200" y="334" on="1"/>
        <pt x="199" y="333" on="1"/>
        <pt x="101" y="333" on="1"/>
        <pt x="100" y="334" on="1"/>
      </contour>
      <contour>
        <pt x="300" y="432" on="1"/>
        <pt x="301" y="433" on="1"/>
        <pt x="399" y="433" on="1"/>
        <pt x="400" y="432" on="1"/>
        <pt x="400" y="334" on="1"/>
        <pt x="399" y="333" on="1"/>
        <pt x="301" y="333" on="1"/>
        <pt x="300" y="334" on="1"/>
      </contour>
      <contour>
        <pt x="501" y="433" on="1"/>
        <pt x="600" y="433" on="1"/>
        <pt x="600" y="333" on="1"/>
        <pt x="501" y="333" on="1"/>
        <pt x="500" y="334" on="1"/>
        <pt x="500" y="432" on="1"/>
      </contour>
      <contour>
        <pt x="0" y="333" on="1"/>
        <pt x="99" y="333" on="1"/>
        <pt x="100" y="332" on="1"/>
        <pt x="100" y="234" on="1"/>
        <pt x="99" y="233" on="1"/>
        <pt x="0" y="233" on="1"/>
      </contour>
      <contour>
        <pt x="200" y="332" on="1"/>
        <pt x="201" y="333" on="1"/>
        <pt x="299" y="333" on="1"/>
        <pt x="300" y="332" on="1"/>
        <pt x="300" y="234" on="1"/>
        <pt x="299" y="233" on="1"/>
        <pt x="201" y="233" on="1"/>
        <pt x="200" y="234" on="1"/>
      </contour>
      <contour>
        <pt x="400" y="332" on="1"/>
        <pt x="401" y="333" on="1"/>
        <pt x="499" y="333" on="1"/>
        <pt x="500" y="332" on="1"/>
        <pt x="500" y="234" on="1"/>
        <pt x="499" y="233" on="1"/>
        <pt x="401" y="233" on="1"/>
        <pt x="400" y="234" on="1"/>
      </contour>
      <contour>
        <pt x="100" y="232" on="1"/>
        <pt x="101" y="233" on="1"/>
        <pt x="199" y="233" on="1"/>
        <pt x="200" y="232" on="1"/>
        <pt x="200" y="134" on="1"/>
        <pt x="199" y="133" on="1"/>
        <pt x="101" y="133" on="1"/>
        <pt x="100" y="134" on="1"/>
      </contour>
      <contour>
        <pt x="300" y="232" on="1"/>
        <pt x="301" y="233" on="1"/>
        <pt x="399" y="233" on="1"/>
        <pt x="400" y="232" on="1"/>
        <pt x="400" y="134" on="1"/>
        <pt x="399" y="133" on="1"/>
        <pt x="301" y="133" on="1"/>
        <pt x="300" y="134" on="1"/>
      </contour>
      <contour>
        <pt x="501" y="233" on="1"/>
        <pt x="600" y="233" on="1"/>
        <pt x="600" y="133" on="1"/>
        <pt x="501" y="133" on="1"/>
        <pt x="500" y="134" on="1"/>
        <pt x="500" y="232" on="1"/>
      </contour>
      <contour>
        <pt x="0" y="133" on="1"/>
        <pt x="99" y="133" on="1"/>
        <pt x="100" y="132" on="1"/>
        <pt x="100" y="34" on="1"/>
        <pt x="99" y="33" on="1"/>
        <pt x="0" y="33" on="1"/>
      </contour>
      <contour>
        <pt x="200" y="132" on="1"/>
        <pt x="201" y="133" on="1"/>
        <pt x="299" y="133" on="1"/>
        <pt x="300" y="132" on="1"/>
        <pt x="300" y="34" on="1"/>
        <pt x="299" y="33" on="1"/>
        <pt x="201" y="33" on="1"/>
        <pt x="200" y="34" on="1"/>
      </contour>
      <contour>
        <pt x="400" y="132" on="1"/>
        <pt x="401" y="133" on="1"/>
        <pt x="499" y="133" on="1"/>
        <pt x="500" y="132" on="1"/>
        <pt x="500" y="34" on="1"/>
        <pt x="499" y="33" on="1"/>
        <pt x="401" y="33" on="1"/>
        <pt x="400" y="34" on="1"/>
      </contour>
      <contour>
        <pt x="100" y="32" on="1"/>
        <pt x="101" y="33" on="1"/>
        <pt x="199" y="33" on="1"/>
        <pt x="200" y="32" on="1"/>
        <pt x="200" y="-66" on="1"/>
        <pt x="199" y="-67" on="1"/>
        <pt x="101" y="-67" on="1"/>
        <pt x="100" y="-66" on="1"/>
      </contour>
      <contour>
        <pt x="300" y="32" on="1"/>
        <pt x="301" y="33" on="1"/>
        <pt x="399" y="33" on="1"/>
        <pt x="400" y="32" on="1"/>
        <pt x="400" y="-66" on="1"/>
        <pt x="399" y="-67" on="1"/>
        <pt x="301" y="-67" on="1"/>
        <pt x="300" y="-66" on="1"/>
      </contour>
      <contour>
        <pt x="501" y="33" on="1"/>
        <pt x="600" y="33" on="1"/>
        <pt x="600" y="-67" on="1"/>
        <pt x="501" y="-67" on="1"/>
        <pt x="500" y="-66" on="1"/>
        <pt x="500" y="32" on="1"/>
      </contour>
      <contour>
        <pt x="0" y="-67" on="1"/>
        <pt x="99" y="-67" on="1"/>
        <pt x="100" y="-68" on="1"/>
        <pt x="100" y="-166" on="1"/>
        <pt x="99" y="-167" on="1"/>
        <pt x="0" y="-167" on="1"/>
      </contour>
      <contour>
        <pt x="200" y="-68" on="1"/>
        <pt x="201" y="-67" on="1"/>
        <pt x="299" y="-67" on="1"/>
        <pt x="300" y="-68" on="1"/>
        <pt x="300" y="-166" on="1"/>
        <pt x="299" y="-167" on="1"/>
        <pt x="201" y="-167" on="1"/>
        <pt x="200" y="-166" on="1"/>
      </contour>
      <contour>
        <pt x="400" y="-68" on="1"/>
        <pt x="401" y="-67" on="1"/>
        <pt x="499" y="-67" on="1"/>
        <pt x="500" y="-68" on="1"/>
        <pt x="500" y="-166" on="1"/>
        <pt x="499" y="-167" on="1"/>
        <pt x="401" y="-167" on="1"/>
        <pt x="400" y="-166" on="1"/>
      </contour>
      <contour>
        <pt x="101" y="-167" on="1"/>
        <pt x="199" y="-167" on="1"/>
        <pt x="200" y="-168" on="1"/>
        <pt x="200" y="-267" on="1"/>
        <pt x="100" y="-267" on="1"/>
        <pt x="100" y="-168" on="1"/>
      </contour>
      <contour>
        <pt x="301" y="-167" on="1"/>
        <pt x="399" y="-167" on="1"/>
        <pt x="400" y="-168" on="1"/>
        <pt x="400" y="-267" on="1"/>
        <pt x="300" y="-267" on="1"/>
        <pt x="300" y="-168" on="1"/>
      </contour>
      <contour>
        <pt x="501" y="-167" on="1"/>
        <pt x="600" y="-167" on="1"/>
        <pt x="600" y="-267" on="1"/>
        <pt x="500" y="-267" on="1"/>
        <pt x="500" y="-168" on="1"/>
      </contour>
    </TTGlyph>
    <TTGlyph name="SF160000" xMin="0" yMin="-267" xMax="600" yMax="733">
      <contour>
        <pt x="600" y="-267" on="1"/>
        <pt x="0" y="-267" on="1"/>
        <pt x="0" y="-167" on="1"/>
        <pt x="100" y="-167" on="1"/>
        <pt x="100" y="-67" on="1"/>
        <pt x="0" y="-67" on="1"/>
        <pt x="0" y="33" on="1"/>
        <pt x="100" y="33" on="1"/>
        <pt x="100" y="133" on="1"/>
        <pt x="0" y="133" on="1"/>
        <pt x="0" y="233" on="1"/>
        <pt x="100" y="233" on="1"/>
        <pt x="100" y="333" on="1"/>
        <pt x="0" y="333" on="1"/>
        <pt x="0" y="433" on="1"/>
        <pt x="100" y="433" on="1"/>
        <pt x="100" y="533" on="1"/>
        <pt x="0" y="533" on="1"/>
        <pt x="0" y="633" on="1"/>
        <pt x="100" y="633" on="1"/>
        <pt x="100" y="733" on="1"/>
        <pt x="200" y="733" on="1"/>
        <pt x="200" y="633" on="1"/>
        <pt x="300" y="633" on="1"/>
        <pt x="300" y="733" on="1"/>
        <pt x="400" y="733" on="1"/>
        <pt x="400" y="633" on="1"/>
        <pt x="500" y="633" on="1"/>
        <pt x="500" y="733" on="1"/>
        <pt x="600" y="733" on="1"/>
      </contour>
      <contour>
        <pt x="500" y="233" on="1"/>
        <pt x="500" y="333" on="1"/>
        <pt x="400" y="333" on="1"/>
        <pt x="400" y="233" on="1"/>
      </contour>
      <contour>
        <pt x="300" y="233" on="1"/>
        <pt x="300" y="333" on="1"/>
        <pt x="200" y="333" on="1"/>
        <pt x="200" y="233" on="1"/>
      </contour>
      <contour>
        <pt x="500" y="33" on="1"/>
        <pt x="500" y="133" on="1"/>
        <pt x="400" y="133" on="1"/>
        <pt x="400" y="33" on="1"/>
      </contour>
      <contour>
        <pt x="300" y="33" on="1"/>
        <pt x="300" y="133" on="1"/>
        <pt x="200" y="133" on="1"/>
        <pt x="200" y="33" on="1"/>
      </contour>
      <contour>
        <pt x="500" y="433" on="1"/>
        <pt x="500" y="533" on="1"/>
        <pt x="400" y="533" on="1"/>
        <pt x="400" y="433" on="1"/>
      </contour>
      <contour>
        <pt x="300" y="433" on="1"/>
        <pt x="300" y="533" on="1"/>
        <pt x="200" y="533" on="1"/>
        <pt x="200" y="433" on="1"/>
      </contour>
      <contour>
        <pt x="500" y="-167" on="1"/>
        <pt x="500" y="-67" on="1"/>
        <pt x="400" y="-67" on="1"/>
        <pt x="400" y="-167" on="1"/>
      </contour>
      <contour>
        <pt x="300" y="-167" on="1"/>
        <pt x="300" y="-67" on="1"/>
        <pt x="200" y="-67" on="1"/>
        <pt x="200" y="-167" on="1"/>
      </contour>
    </TTGlyph>
    <TTGlyph name="SF190000" xMin="0" yMin="-288" xMax="336" yMax="792">
      <contour>
        <pt x="336" y="-288" on="1"/>
        <pt x="264" y="-288" on="1"/>
        <pt x="264" y="144" on="1"/>
        <pt x="0" y="144" on="1"/>
        <pt x="0" y="216" on="1"/>
        <pt x="264" y="216" on="1"/>
        <pt x="264" y="288" on="1"/>
        <pt x="0" y="288" on="1"/>
        <pt x="0" y="360" on="1"/>
        <pt x="264" y="360" on="1"/>
        <pt x="264" y="792" on="1"/>
        <pt x="336" y="792" on="1"/>
      </contour>
    </TTGlyph>
    <TTGlyph name="SF200000" xMin="0" yMin="-288" xMax="408" yMax="792">
      <contour>
        <pt x="264" y="792" on="1"/>
        <pt x="264" y="-288" on="1"/>
        <pt x="192" y="-288" on="1"/>
        <pt x="192" y="216" on="1"/>
        <pt x="0" y="216" on="1"/>
        <pt x="0" y="288" on="1"/>
        <pt x="192" y="288" on="1"/>
        <pt x="192" y="792" on="1"/>
      </contour>
      <contour>
        <pt x="408" y="-288" on="1"/>
        <pt x="336" y="-288" on="1"/>
        <pt x="336" y="792" on="1"/>
        <pt x="408" y="792" on="1"/>
      </contour>
    </TTGlyph>
    <TTGlyph name="SF210000" xMin="0" yMin="-288" xMax="408" yMax="288">
      <contour>
        <pt x="264" y="216" on="1"/>
        <pt x="264" y="-288" on="1"/>
        <pt x="192" y="-288" on="1"/>
        <pt x="192" y="216" on="1"/>
        <pt x="0" y="216" on="1"/>
        <pt x="0" y="288" on="1"/>
        <pt x="408" y="288" on="1"/>
        <pt x="408" y="-288" on="1"/>
        <pt x="336" y="-288" on="1"/>
        <pt x="336" y="216" on="1"/>
      </contour>
    </TTGlyph>
    <TTGlyph name="SF220000" xMin="0" yMin="-288" xMax="336" yMax="360">
      <contour>
        <pt x="0" y="216" on="1"/>
        <pt x="264" y="216" on="1"/>
        <pt x="264" y="288" on="1"/>
        <pt x="0" y="288" on="1"/>
        <pt x="0" y="360" on="1"/>
        <pt x="336" y="360" on="1"/>
        <pt x="336" y="-288" on="1"/>
        <pt x="264" y="-288" on="1"/>
        <pt x="264" y="144" on="1"/>
        <pt x="0" y="144" on="1"/>
      </contour>
    </TTGlyph>
    <TTGlyph name="SF230000" xMin="0" yMin="-288" xMax="408" yMax="792">
      <contour>
        <pt x="336" y="-288" on="1"/>
        <pt x="336" y="792" on="1"/>
        <pt x="408" y="792" on="1"/>
        <pt x="408" y="-288" on="1"/>
      </contour>
      <contour>
        <pt x="192" y="144" on="1"/>
        <pt x="0" y="144" on="1"/>
        <pt x="0" y="216" on="1"/>
        <pt x="264" y="216" on="1"/>
        <pt x="264" y="-288" on="1"/>
        <pt x="192" y="-288" on="1"/>
      </contour>
      <contour>
        <pt x="264" y="288" on="1"/>
        <pt x="0" y="288" on="1"/>
        <pt x="0" y="360" on="1"/>
        <pt x="192" y="360" on="1"/>
        <pt x="192" y="792" on="1"/>
        <pt x="264" y="792" on="1"/>
      </contour>
    </TTGlyph>
    <TTGlyph name="SF240000" xMin="192" yMin="-288" xMax="408" yMax="792">
      <contour>
        <pt x="408" y="-288" on="1"/>
        <pt x="336" y="-288" on="1"/>
        <pt x="336" y="792" on="1"/>
        <pt x="408" y="792" on="1"/>
      </contour>
      <contour>
        <pt x="192" y="-288" on="1"/>
        <pt x="192" y="792" on="1"/>
        <pt x="264" y="792" on="1"/>
        <pt x="264" y="-288" on="1"/>
      </contour>
    </TTGlyph>
    <TTGlyph name="SF250000" xMin="0" yMin="-288" xMax="408" yMax="360">
      <contour>
        <pt x="192" y="144" on="1"/>
        <pt x="0" y="144" on="1"/>
        <pt x="0" y="216" on="1"/>
        <pt x="264" y="216" on="1"/>
        <pt x="264" y="-288" on="1"/>
        <pt x="192" y="-288" on="1"/>
      </contour>
      <contour>
        <pt x="336" y="-288" on="1"/>
        <pt x="336" y="288" on="1"/>
        <pt x="0" y="288" on="1"/>
        <pt x="0" y="360" on="1"/>
        <pt x="408" y="360" on="1"/>
        <pt x="408" y="-288" on="1"/>
      </contour>
    </TTGlyph>
    <TTGlyph name="SF260000" xMin="0" yMin="144" xMax="408" yMax="792">
      <contour>
        <pt x="264" y="288" on="1"/>
        <pt x="0" y="288" on="1"/>
        <pt x="0" y="360" on="1"/>
        <pt x="192" y="360" on="1"/>
        <pt x="192" y="792" on="1"/>
        <pt x="264" y="792" on="1"/>
      </contour>
      <contour>
        <pt x="336" y="216" on="1"/>
        <pt x="336" y="792" on="1"/>
        <pt x="408" y="792" on="1"/>
        <pt x="408" y="144" on="1"/>
        <pt x="0" y="144" on="1"/>
        <pt x="0" y="216" on="1"/>
      </contour>
    </TTGlyph>
    <TTGlyph name="SF270000" xMin="0" yMin="216" xMax="408" yMax="792">
      <contour>
        <pt x="264" y="288" on="1"/>
        <pt x="336" y="288" on="1"/>
        <pt x="336" y="792" on="1"/>
        <pt x="408" y="792" on="1"/>
        <pt x="408" y="216" on="1"/>
        <pt x="0" y="216" on="1"/>
        <pt x="0" y="288" on="1"/>
        <pt x="192" y="288" on="1"/>
        <pt x="192" y="792" on="1"/>
        <pt x="264" y="792" on="1"/>
      </contour>
    </TTGlyph>
    <TTGlyph name="SF280000" xMin="0" yMin="144" xMax="336" yMax="792">
      <contour>
        <pt x="336" y="792" on="1"/>
        <pt x="336" y="144" on="1"/>
        <pt x="0" y="144" on="1"/>
        <pt x="0" y="216" on="1"/>
        <pt x="264" y="216" on="1"/>
        <pt x="264" y="288" on="1"/>
        <pt x="0" y="288" on="1"/>
        <pt x="0" y="360" on="1"/>
        <pt x="264" y="360" on="1"/>
        <pt x="264" y="792" on="1"/>
      </contour>
    </TTGlyph>
    <TTGlyph name="SF360000" xMin="264" yMin="-288" xMax="600" yMax="792">
      <contour>
        <pt x="264" y="-288" on="1"/>
        <pt x="264" y="792" on="1"/>
        <pt x="336" y="792" on="1"/>
        <pt x="336" y="360" on="1"/>
        <pt x="600" y="360" on="1"/>
        <pt x="600" y="288" on="1"/>
        <pt x="336" y="288" on="1"/>
        <pt x="336" y="216" on="1"/>
        <pt x="600" y="216" on="1"/>
        <pt x="600" y="144" on="1"/>
        <pt x="336" y="144" on="1"/>
        <pt x="336" y="-288" on="1"/>
      </contour>
    </TTGlyph>
    <TTGlyph name="SF370000" xMin="192" yMin="-288" xMax="600" yMax="792">
      <contour>
        <pt x="336" y="792" on="1"/>
        <pt x="408" y="792" on="1"/>
        <pt x="408" y="288" on="1"/>
        <pt x="600" y="288" on="1"/>
        <pt x="600" y="216" on="1"/>
        <pt x="408" y="216" on="1"/>
        <pt x="408" y="-288" on="1"/>
        <pt x="336" y="-288" on="1"/>
      </contour>
      <contour>
        <pt x="192" y="-288" on="1"/>
        <pt x="192" y="792" on="1"/>
        <pt x="264" y="792" on="1"/>
        <pt x="264" y="-288" on="1"/>
      </contour>
    </TTGlyph>
    <TTGlyph name="SF380000" xMin="192" yMin="144" xMax="600" yMax="792">
      <contour>
        <pt x="336" y="288" on="1"/>
        <pt x="336" y="792" on="1"/>
        <pt x="408" y="792" on="1"/>
        <pt x="408" y="360" on="1"/>
        <pt x="600" y="360" on="1"/>
        <pt x="600" y="288" on="1"/>
      </contour>
      <contour>
        <pt x="264" y="216" on="1"/>
        <pt x="600" y="216" on="1"/>
        <pt x="600" y="144" on="1"/>
        <pt x="192" y="144" on="1"/>
        <pt x="192" y="792" on="1"/>
        <pt x="264" y="792" on="1"/>
      </contour>
    </TTGlyph>
    <TTGlyph name="SF390000" xMin="192" yMin="-288" xMax="600" yMax="360">
      <contour>
        <pt x="336" y="216" on="1"/>
        <pt x="600" y="216" on="1"/>
        <pt x="600" y="144" on="1"/>
        <pt x="408" y="144" on="1"/>
        <pt x="408" y="-288" on="1"/>
        <pt x="336" y="-288" on="1"/>
      </contour>
      <contour>
        <pt x="264" y="288" on="1"/>
        <pt x="264" y="-288" on="1"/>
        <pt x="192" y="-288" on="1"/>
        <pt x="192" y="360" on="1"/>
        <pt x="600" y="360" on="1"/>
        <pt x="600" y="288" on="1"/>
      </contour>
    </TTGlyph>
    <TTGlyph name="SF400000" xMin="0" yMin="144" xMax="600" yMax="792">
      <contour>
        <pt x="600" y="288" on="1"/>
        <pt x="336" y="288" on="1"/>
        <pt x="336" y="792" on="1"/>
        <pt x="408" y="792" on="1"/>
        <pt x="408" y="360" on="1"/>
        <pt x="600" y="360" on="1"/>
      </contour>
      <contour>
        <pt x="0" y="288" on="1"/>
        <pt x="0" y="360" on="1"/>
        <pt x="192" y="360" on="1"/>
        <pt x="192" y="792" on="1"/>
        <pt x="264" y="792" on="1"/>
        <pt x="264" y="288" on="1"/>
      </contour>
      <contour>
        <pt x="600" y="216" on="1"/>
        <pt x="600" y="144" on="1"/>
        <pt x="0" y="144" on="1"/>
        <pt x="0" y="216" on="1"/>
      </contour>
    </TTGlyph>
    <TTGlyph name="SF410000" xMin="0" yMin="-288" xMax="600" yMax="360">
      <contour>
        <pt x="408" y="-288" on="1"/>
        <pt x="336" y="-288" on="1"/>
        <pt x="336" y="216" on="1"/>
        <pt x="600" y="216" on="1"/>
        <pt x="600" y="144" on="1"/>
        <pt x="408" y="144" on="1"/>
      </contour>
      <contour>
        <pt x="0" y="216" on="1"/>
        <pt x="264" y="216" on="1"/>
        <pt x="264" y="-288" on="1"/>
        <pt x="192" y="-288" on="1"/>
        <pt x="192" y="144" on="1"/>
        <pt x="0" y="144" on="1"/>
      </contour>
      <contour>
        <pt x="600" y="288" on="1"/>
        <pt x="0" y="288" on="1"/>
        <pt x="0" y="360" on="1"/>
        <pt x="600" y="360" on="1"/>
      </contour>
    </TTGlyph>
    <TTGlyph name="SF420000" xMin="192" yMin="-288" xMax="600" yMax="792">
      <contour>
        <pt x="192" y="-288" on="1"/>
        <pt x="192" y="792" on="1"/>
        <pt x="264" y="792" on="1"/>
        <pt x="264" y="-288" on="1"/>
      </contour>
      <contour>
        <pt x="336" y="216" on="1"/>
        <pt x="600" y="216" on="1"/>
        <pt x="600" y="144" on="1"/>
        <pt x="408" y="144" on="1"/>
        <pt x="408" y="-288" on="1"/>
        <pt x="336" y="-288" on="1"/>
      </contour>
      <contour>
        <pt x="336" y="288" on="1"/>
        <pt x="336" y="792" on="1"/>
        <pt x="408" y="792" on="1"/>
        <pt x="408" y="360" on="1"/>
        <pt x="600" y="360" on="1"/>
        <pt x="600" y="288" on="1"/>
      </contour>
    </TTGlyph>
    <TTGlyph name="SF430000" xMin="0" yMin="144" xMax="600" yMax="360">
      <contour>
        <pt x="600" y="360" on="1"/>
        <pt x="600" y="288" on="1"/>
        <pt x="0" y="288" on="1"/>
        <pt x="0" y="360" on="1"/>
      </contour>
      <contour>
        <pt x="600" y="216" on="1"/>
        <pt x="600" y="144" on="1"/>
        <pt x="0" y="144" on="1"/>
        <pt x="0" y="216" on="1"/>
      </contour>
    </TTGlyph>
    <TTGlyph name="SF440000" xMin="0" yMin="-288" xMax="600" yMax="792">
      <contour>
        <pt x="264" y="216" on="1"/>
        <pt x="264" y="-288" on="1"/>
        <pt x="192" y="-288" on="1"/>
        <pt x="192" y="144" on="1"/>
        <pt x="0" y="144" on="1"/>
        <pt x="0" y="216" on="1"/>
      </contour>
      <contour>
        <pt x="264" y="288" on="1"/>
        <pt x="0" y="288" on="1"/>
        <pt x="0" y="360" on="1"/>
        <pt x="192" y="360" on="1"/>
        <pt x="192" y="792" on="1"/>
        <pt x="264" y="792" on="1"/>
      </contour>
      <contour>
        <pt x="336" y="216" on="1"/>
        <pt x="600" y="216" on="1"/>
        <pt x="600" y="144" on="1"/>
        <pt x="408" y="144" on="1"/>
        <pt x="408" y="-288" on="1"/>
        <pt x="336" y="-288" on="1"/>
      </contour>
      <contour>
        <pt x="336" y="288" on="1"/>
        <pt x="336" y="792" on="1"/>
        <pt x="408" y="792" on="1"/>
        <pt x="408" y="360" on="1"/>
        <pt x="600" y="360" on="1"/>
        <pt x="600" y="288" on="1"/>
      </contour>
    </TTGlyph>
    <TTGlyph name="SF450000" xMin="0" yMin="144" xMax="600" yMax="792">
      <contour>
        <pt x="336" y="360" on="1"/>
        <pt x="600" y="360" on="1"/>
        <pt x="600" y="288" on="1"/>
        <pt x="0" y="288" on="1"/>
        <pt x="0" y="360" on="1"/>
        <pt x="264" y="360" on="1"/>
        <pt x="264" y="792" on="1"/>
        <pt x="336" y="792" on="1"/>
      </contour>
      <contour>
        <pt x="600" y="144" on="1"/>
        <pt x="0" y="144" on="1"/>
        <pt x="0" y="216" on="1"/>
        <pt x="600" y="216" on="1"/>
      </contour>
    </TTGlyph>
    <TTGlyph name="SF460000" xMin="0" yMin="216" xMax="600" yMax="792">
      <contour>
        <pt x="336" y="288" on="1"/>
        <pt x="336" y="792" on="1"/>
        <pt x="408" y="792" on="1"/>
        <pt x="408" y="288" on="1"/>
        <pt x="600" y="288" on="1"/>
        <pt x="600" y="216" on="1"/>
        <pt x="0" y="216" on="1"/>
        <pt x="0" y="288" on="1"/>
        <pt x="192" y="288" on="1"/>
        <pt x="192" y="792" on="1"/>
        <pt x="264" y="792" on="1"/>
        <pt x="264" y="288" on="1"/>
      </contour>
    </TTGlyph>
    <TTGlyph name="SF470000" xMin="0" yMin="-288" xMax="600" yMax="360">
      <contour>
        <pt x="336" y="144" on="1"/>
        <pt x="336" y="-288" on="1"/>
        <pt x="264" y="-288" on="1"/>
        <pt x="264" y="144" on="1"/>
        <pt x="0" y="144" on="1"/>
        <pt x="0" y="216" on="1"/>
        <pt x="600" y="216" on="1"/>
        <pt x="600" y="144" on="1"/>
      </contour>
      <contour>
        <pt x="600" y="288" on="1"/>
        <pt x="0" y="288" on="1"/>
        <pt x="0" y="360" on="1"/>
        <pt x="600" y="360" on="1"/>
      </contour>
    </TTGlyph>
    <TTGlyph name="SF480000" xMin="0" yMin="-288" xMax="600" yMax="288">
      <contour>
        <pt x="336" y="216" on="1"/>
        <pt x="264" y="216" on="1"/>
        <pt x="264" y="-288" on="1"/>
        <pt x="192" y="-288" on="1"/>
        <pt x="192" y="216" on="1"/>
        <pt x="0" y="216" on="1"/>
        <pt x="0" y="288" on="1"/>
        <pt x="600" y="288" on="1"/>
        <pt x="600" y="216" on="1"/>
        <pt x="408" y="216" on="1"/>
        <pt x="408" y="-288" on="1"/>
        <pt x="336" y="-288" on="1"/>
      </contour>
    </TTGlyph>
    <TTGlyph name="SF490000" xMin="192" yMin="216" xMax="600" yMax="792">
      <contour>
        <pt x="336" y="288" on="1"/>
        <pt x="336" y="792" on="1"/>
        <pt x="408" y="792" on="1"/>
        <pt x="408" y="288" on="1"/>
        <pt x="600" y="288" on="1"/>
        <pt x="600" y="216" on="1"/>
        <pt x="192" y="216" on="1"/>
        <pt x="192" y="792" on="1"/>
        <pt x="264" y="792" on="1"/>
        <pt x="264" y="288" on="1"/>
      </contour>
    </TTGlyph>
    <TTGlyph name="SF500000" xMin="264" yMin="144" xMax="600" yMax="792">
      <contour>
        <pt x="264" y="792" on="1"/>
        <pt x="336" y="792" on="1"/>
        <pt x="336" y="360" on="1"/>
        <pt x="600" y="360" on="1"/>
        <pt x="600" y="288" on="1"/>
        <pt x="336" y="288" on="1"/>
        <pt x="336" y="216" on="1"/>
        <pt x="600" y="216" on="1"/>
        <pt x="600" y="144" on="1"/>
        <pt x="264" y="144" on="1"/>
      </contour>
    </TTGlyph>
    <TTGlyph name="SF510000" xMin="264" yMin="-288" xMax="600" yMax="360">
      <contour>
        <pt x="336" y="216" on="1"/>
        <pt x="600" y="216" on="1"/>
        <pt x="600" y="144" on="1"/>
        <pt x="336" y="144" on="1"/>
        <pt x="336" y="-288" on="1"/>
        <pt x="264" y="-288" on="1"/>
        <pt x="264" y="360" on="1"/>
        <pt x="600" y="360" on="1"/>
        <pt x="600" y="288" on="1"/>
        <pt x="336" y="288" on="1"/>
      </contour>
    </TTGlyph>
    <TTGlyph name="SF520000" xMin="192" yMin="-288" xMax="600" yMax="288">
      <contour>
        <pt x="336" y="216" on="1"/>
        <pt x="264" y="216" on="1"/>
        <pt x="264" y="-288" on="1"/>
        <pt x="192" y="-288" on="1"/>
        <pt x="192" y="288" on="1"/>
        <pt x="600" y="288" on="1"/>
        <pt x="600" y="216" on="1"/>
        <pt x="408" y="216" on="1"/>
        <pt x="408" y="-288" on="1"/>
        <pt x="336" y="-288" on="1"/>
      </contour>
    </TTGlyph>
    <TTGlyph name="SF530000" xMin="0" yMin="-288" xMax="600" yMax="792">
      <contour>
        <pt x="264" y="288" on="1"/>
        <pt x="336" y="288" on="1"/>
        <pt x="336" y="792" on="1"/>
        <pt x="408" y="792" on="1"/>
        <pt x="408" y="288" on="1"/>
        <pt x="600" y="288" on="1"/>
        <pt x="600" y="216" on="1"/>
        <pt x="408" y="216" on="1"/>
        <pt x="408" y="-288" on="1"/>
        <pt x="336" y="-288" on="1"/>
        <pt x="336" y="216" on="1"/>
        <pt x="264" y="216" on="1"/>
        <pt x="264" y="-288" on="1"/>
        <pt x="192" y="-288" on="1"/>
        <pt x="192" y="216" on="1"/>
        <pt x="0" y="216" on="1"/>
        <pt x="0" y="288" on="1"/>
        <pt x="192" y="288" on="1"/>
        <pt x="192" y="792" on="1"/>
        <pt x="264" y="792" on="1"/>
      </contour>
    </TTGlyph>
    <TTGlyph name="SF540000" xMin="0" yMin="-288" xMax="600" yMax="792">
      <contour>
        <pt x="336" y="360" on="1"/>
        <pt x="600" y="360" on="1"/>
        <pt x="600" y="288" on="1"/>
        <pt x="336" y="288" on="1"/>
        <pt x="336" y="216" on="1"/>
        <pt x="600" y="216" on="1"/>
        <pt x="600" y="144" on="1"/>
        <pt x="336" y="144" on="1"/>
        <pt x="336" y="-288" on="1"/>
        <pt x="264" y="-288" on="1"/>
        <pt x="264" y="144" on="1"/>
        <pt x="0" y="144" on="1"/>
        <pt x="0" y="216" on="1"/>
        <pt x="264" y="216" on="1"/>
        <pt x="264" y="288" on="1"/>
        <pt x="0" y="288" on="1"/>
        <pt x="0" y="360" on="1"/>
        <pt x="264" y="360" on="1"/>
        <pt x="264" y="792" on="1"/>
        <pt x="336" y="792" on="1"/>
      </contour>
    </TTGlyph>
    <TTGlyph name="SF570000" xMin="0" yMin="-288" xMax="600" yMax="252">
      <contour>
        <pt x="0" y="-288" on="1"/>
        <pt x="0" y="252" on="1"/>
        <pt x="600" y="252" on="1"/>
        <pt x="600" y="-288" on="1"/>
      </contour>
    </TTGlyph>
    <TTGlyph name="SF580000" xMin="0" yMin="-288" xMax="300" yMax="792">
      <contour>
        <pt x="0" y="-288" on="1"/>
        <pt x="0" y="792" on="1"/>
        <pt x="300" y="792" on="1"/>
        <pt x="300" y="-288" on="1"/>
      </contour>
    </TTGlyph>
    <TTGlyph name="SF590000" xMin="300" yMin="-288" xMax="600" yMax="792">
      <contour>
        <pt x="300" y="-288" on="1"/>
        <pt x="300" y="792" on="1"/>
        <pt x="600" y="792" on="1"/>
        <pt x="600" y="-288" on="1"/>
      </contour>
    </TTGlyph>
    <TTGlyph name="SF600000" xMin="0" yMin="252" xMax="600" yMax="792">
      <contour>
        <pt x="0" y="252" on="1"/>
        <pt x="0" y="792" on="1"/>
        <pt x="600" y="792" on="1"/>
        <pt x="600" y="252" on="1"/>
      </contour>
    </TTGlyph>
    <TTGlyph name="SF610000" xMin="0" yMin="-288" xMax="600" yMax="792">
      <contour>
        <pt x="0" y="-288" on="1"/>
        <pt x="0" y="792" on="1"/>
        <pt x="600" y="792" on="1"/>
        <pt x="600" y="-288" on="1"/>
      </contour>
    </TTGlyph>
    <TTGlyph name="SM490000" xMin="21" yMin="0" xMax="579" yMax="670">
      <contour>
        <pt x="21" y="612" on="1"/>
        <pt x="71" y="670" on="1"/>
        <pt x="134" y="630" on="0"/>
        <pt x="237" y="597" on="0"/>
        <pt x="300" y="597" on="1"/>
        <pt x="364" y="597" on="0"/>
        <pt x="465" y="629" on="0"/>
        <pt x="531" y="670" on="1"/>
        <pt x="579" y="612" on="1"/>
        <pt x="516" y="472" on="0"/>
        <pt x="517" y="334" on="1"/>
        <pt x="519" y="183" on="0"/>
        <pt x="579" y="59" on="1"/>
        <pt x="531" y="0" on="1"/>
        <pt x="427" y="72" on="0"/>
        <pt x="305" y="72" on="1"/>
        <pt x="180" y="72" on="0"/>
        <pt x="71" y="0" on="1"/>
        <pt x="21" y="59" on="1"/>
        <pt x="83" y="185" on="0"/>
        <pt x="83" y="334" on="1"/>
        <pt x="83" y="473" on="0"/>
      </contour>
      <contour>
        <pt x="100" y="588" on="1"/>
        <pt x="114" y="535" on="1"/>
        <pt x="147" y="443" on="0"/>
        <pt x="147" y="334" on="1"/>
        <pt x="147" y="230" on="0"/>
        <pt x="115" y="135" on="1"/>
        <pt x="100" y="81" on="1"/>
        <pt x="203" y="136" on="0"/>
        <pt x="298" y="136" on="1"/>
        <pt x="399" y="136" on="0"/>
        <pt x="499" y="81" on="1"/>
        <pt x="484" y="135" on="1"/>
        <pt x="453" y="245" on="0"/>
        <pt x="453" y="334" on="1"/>
        <pt x="453" y="450" on="0"/>
        <pt x="483" y="535" on="1"/>
        <pt x="501" y="586" on="1"/>
        <pt x="499" y="588" on="1"/>
        <pt x="417" y="533" on="0"/>
        <pt x="298" y="533" on="1"/>
        <pt x="198" y="533" on="0"/>
      </contour>
    </TTGlyph>
    <TTGlyph name="SM570001" xMin="61" yMin="0" xMax="539" yMax="479">
      <contour>
        <pt x="61" y="0" on="1"/>
        <pt x="61" y="479" on="1"/>
        <pt x="539" y="479" on="1"/>
        <pt x="539" y="0" on="1"/>
      </contour>
      <contour>
        <pt x="341" y="338" on="0"/>
        <pt x="259" y="338" on="0"/>
        <pt x="201" y="280" on="0"/>
        <pt x="201" y="239" on="1"/>
        <pt x="201" y="199" on="0"/>
        <pt x="259" y="141" on="0"/>
        <pt x="341" y="141" on="0"/>
        <pt x="399" y="199" on="0"/>
        <pt x="399" y="239" on="1"/>
        <pt x="399" y="280" on="0"/>
      </contour>
    </TTGlyph>
    <TTGlyph name="SM580000" xMin="85" yMin="67" xMax="515" yMax="497">
      <contour>
        <pt x="211" y="497" on="0"/>
        <pt x="389" y="497" on="0"/>
        <pt x="515" y="371" on="0"/>
        <pt x="515" y="193" on="0"/>
        <pt x="389" y="67" on="0"/>
        <pt x="211" y="67" on="0"/>
        <pt x="85" y="193" on="0"/>
        <pt x="85" y="371" on="0"/>
      </contour>
    </TTGlyph>
    <TTGlyph name="SM590000" xMin="40" yMin="83" xMax="600" yMax="480">
      <contour>
        <pt x="40" y="83" on="1"/>
        <pt x="40" y="480" on="1"/>
        <pt x="600" y="282" on="1"/>
      </contour>
    </TTGlyph>
    <TTGlyph name="SM600000" xMin="102" yMin="95" xMax="498" yMax="466">
      <contour>
        <pt x="102" y="95" on="1"/>
        <pt x="300" y="466" on="1"/>
        <pt x="498" y="95" on="1"/>
      </contour>
    </TTGlyph>
    <TTGlyph name="SM630000" xMin="0" yMin="83" xMax="560" yMax="480">
      <contour>
        <pt x="560" y="83" on="1"/>
        <pt x="0" y="282" on="1"/>
        <pt x="560" y="480" on="1"/>
      </contour>
    </TTGlyph>
    <TTGlyph name="SM680000" xMin="69" yMin="163" xMax="523" yMax="462">
      <contour>
        <pt x="523" y="462" on="1"/>
        <pt x="523" y="373" on="1"/>
        <pt x="158" y="373" on="1"/>
        <pt x="158" y="163" on="1"/>
        <pt x="69" y="163" on="1"/>
        <pt x="69" y="462" on="1"/>
      </contour>
    </TTGlyph>
    <TTGlyph name="SM690000" xMin="6" yMin="-13" xMax="594" yMax="576">
      <contour>
        <pt x="137" y="404" on="1"/>
        <pt x="71" y="469" on="1"/>
        <pt x="113" y="510" on="1"/>
        <pt x="179" y="444" on="1"/>
        <pt x="193" y="458" on="0"/>
        <pt x="251" y="482" on="0"/>
        <pt x="271" y="482" on="1"/>
        <pt x="271" y="576" on="1"/>
        <pt x="329" y="576" on="1"/>
        <pt x="329" y="482" on="1"/>
        <pt x="349" y="482" on="0"/>
        <pt x="403" y="459" on="0"/>
        <pt x="421" y="444" on="1"/>
        <pt x="488" y="510" on="1"/>
        <pt x="529" y="469" on="1"/>
        <pt x="463" y="403" on="1"/>
        <pt x="477" y="389" on="0"/>
        <pt x="500" y="332" on="0"/>
        <pt x="500" y="311" on="1"/>
        <pt x="594" y="311" on="1"/>
        <pt x="594" y="253" on="1"/>
        <pt x="500" y="253" on="1"/>
        <pt x="500" y="206" on="0"/>
        <pt x="463" y="160" on="1"/>
        <pt x="529" y="94" on="1"/>
        <pt x="488" y="53" on="1"/>
        <pt x="421" y="119" on="1"/>
        <pt x="409" y="107" on="0"/>
        <pt x="351" y="82" on="0"/>
        <pt x="329" y="81" on="1"/>
        <pt x="329" y="-13" on="1"/>
        <pt x="271" y="-13" on="1"/>
        <pt x="271" y="82" on="1"/>
        <pt x="214" y="82" on="0"/>
        <pt x="179" y="119" on="1"/>
        <pt x="113" y="53" on="1"/>
        <pt x="71" y="94" on="1"/>
        <pt x="138" y="160" on="1"/>
        <pt x="123" y="175" on="0"/>
        <pt x="101" y="231" on="0"/>
        <pt x="101" y="253" on="1"/>
        <pt x="6" y="253" on="1"/>
        <pt x="6" y="311" on="1"/>
        <pt x="101" y="311" on="1"/>
        <pt x="101" y="329" on="0"/>
        <pt x="124" y="388" on="0"/>
      </contour>
      <contour>
        <pt x="356" y="416" on="0"/>
        <pt x="244" y="416" on="0"/>
        <pt x="167" y="338" on="0"/>
        <pt x="167" y="283" on="1"/>
        <pt x="167" y="227" on="0"/>
        <pt x="245" y="148" on="0"/>
        <pt x="355" y="148" on="0"/>
        <pt x="434" y="227" on="0"/>
        <pt x="434" y="283" on="1"/>
        <pt x="434" y="338" on="0"/>
      </contour>
    </TTGlyph>
    <TTGlyph name="SM700000" xMin="7" yMin="149" xMax="593" yMax="328">
      <contour>
        <pt x="7" y="149" on="1"/>
        <pt x="7" y="328" on="1"/>
        <pt x="593" y="328" on="1"/>
        <pt x="593" y="149" on="1"/>
      </contour>
    </TTGlyph>
    <TTGlyph name="SM750000" xMin="83" yMin="65" xMax="517" yMax="499">
      <contour>
        <pt x="210" y="499" on="0"/>
        <pt x="390" y="499" on="0"/>
        <pt x="517" y="372" on="0"/>
        <pt x="517" y="192" on="0"/>
        <pt x="389" y="65" on="0"/>
        <pt x="211" y="65" on="0"/>
        <pt x="83" y="192" on="0"/>
        <pt x="83" y="372" on="0"/>
      </contour>
      <contour>
        <pt x="300" y="449" on="1"/>
        <pt x="231" y="449" on="0"/>
        <pt x="133" y="351" on="0"/>
        <pt x="133" y="282" on="1"/>
        <pt x="133" y="214" on="0"/>
        <pt x="231" y="115" on="0"/>
        <pt x="369" y="115" on="0"/>
        <pt x="467" y="214" on="0"/>
        <pt x="467" y="282" on="1"/>
        <pt x="467" y="351" on="0"/>
        <pt x="368" y="449" on="0"/>
      </contour>
    </TTGlyph>
    <TTGlyph name="SM750002" xMin="18" yMin="0" xMax="582" yMax="564">
      <contour>
        <pt x="390" y="499" on="0"/>
        <pt x="210" y="499" on="0"/>
        <pt x="83" y="372" on="0"/>
        <pt x="83" y="192" on="0"/>
        <pt x="211" y="65" on="0"/>
        <pt x="389" y="65" on="0"/>
        <pt x="517" y="192" on="0"/>
        <pt x="517" y="372" on="0"/>
      </contour>
      <contour>
        <pt x="18" y="0" on="1"/>
        <pt x="18" y="564" on="1"/>
        <pt x="582" y="564" on="1"/>
        <pt x="582" y="0" on="1"/>
      </contour>
      <contour>
        <pt x="300" y="449" on="1"/>
        <pt x="368" y="449" on="0"/>
        <pt x="467" y="351" on="0"/>
        <pt x="467" y="282" on="1"/>
        <pt x="467" y="214" on="0"/>
        <pt x="369" y="115" on="0"/>
        <pt x="231" y="115" on="0"/>
        <pt x="133" y="214" on="0"/>
        <pt x="133" y="282" on="1"/>
        <pt x="133" y="351" on="0"/>
        <pt x="231" y="449" on="0"/>
      </contour>
    </TTGlyph>
    <TTGlyph name="SM760000" xMin="163" yMin="15" xMax="430" yMax="607">
      <contour>
        <pt x="326" y="462" on="1"/>
        <pt x="326" y="161" on="1"/>
        <pt x="390" y="201" on="0"/>
        <pt x="411" y="201" on="1"/>
        <pt x="417" y="201" on="0"/>
        <pt x="430" y="191" on="0"/>
        <pt x="430" y="180" on="1"/>
        <pt x="430" y="173" on="0"/>
        <pt x="421" y="161" on="0"/>
        <pt x="400" y="143" on="1"/>
        <pt x="362" y="110" on="0"/>
        <pt x="322" y="39" on="1"/>
        <pt x="314" y="25" on="0"/>
        <pt x="305" y="15" on="0"/>
        <pt x="298" y="15" on="1"/>
        <pt x="290" y="15" on="0"/>
        <pt x="281" y="25" on="0"/>
        <pt x="265" y="50" on="1"/>
        <pt x="238" y="94" on="0"/>
        <pt x="207" y="131" on="0"/>
        <pt x="176" y="158" on="1"/>
        <pt x="163" y="170" on="0"/>
        <pt x="163" y="180" on="1"/>
        <pt x="163" y="191" on="0"/>
        <pt x="176" y="201" on="0"/>
        <pt x="182" y="201" on="1"/>
        <pt x="207" y="201" on="0"/>
        <pt x="266" y="161" on="1"/>
        <pt x="266" y="462" on="1"/>
        <pt x="209" y="422" on="0"/>
        <pt x="182" y="422" on="1"/>
        <pt x="176" y="422" on="0"/>
        <pt x="163" y="433" on="0"/>
        <pt x="163" y="442" on="1"/>
        <pt x="163" y="449" on="0"/>
        <pt x="170" y="458" on="0"/>
        <pt x="189" y="475" on="1"/>
        <pt x="234" y="517" on="0"/>
        <pt x="275" y="589" on="1"/>
        <pt x="286" y="607" on="0"/>
        <pt x="298" y="607" on="1"/>
        <pt x="305" y="607" on="0"/>
        <pt x="314" y="596" on="0"/>
        <pt x="331" y="569" on="1"/>
        <pt x="346" y="544" on="0"/>
        <pt x="362" y="522" on="0"/>
        <pt x="394" y="483" on="0"/>
        <pt x="413" y="468" on="1"/>
        <pt x="430" y="453" on="0"/>
        <pt x="430" y="433" on="0"/>
        <pt x="418" y="422" on="0"/>
        <pt x="412" y="422" on="1"/>
        <pt x="389" y="422" on="0"/>
      </contour>
    </TTGlyph>
    <TTGlyph name="SM770000" xMin="163" yMin="-97" xMax="430" yMax="607">
      <contour>
        <pt x="185" y="-37" on="1"/>
        <pt x="418" y="-37" on="1"/>
        <pt x="418" y="-97" on="1"/>
        <pt x="185" y="-97" on="1"/>
      </contour>
      <contour>
        <pt x="326" y="462" on="1"/>
        <pt x="326" y="161" on="1"/>
        <pt x="390" y="201" on="0"/>
        <pt x="411" y="201" on="1"/>
        <pt x="417" y="201" on="0"/>
        <pt x="430" y="191" on="0"/>
        <pt x="430" y="180" on="1"/>
        <pt x="430" y="173" on="0"/>
        <pt x="421" y="161" on="0"/>
        <pt x="400" y="143" on="1"/>
        <pt x="362" y="110" on="0"/>
        <pt x="322" y="39" on="1"/>
        <pt x="314" y="25" on="0"/>
        <pt x="305" y="15" on="0"/>
        <pt x="298" y="15" on="1"/>
        <pt x="290" y="15" on="0"/>
        <pt x="281" y="25" on="0"/>
        <pt x="265" y="50" on="1"/>
        <pt x="238" y="94" on="0"/>
        <pt x="207" y="131" on="0"/>
        <pt x="176" y="158" on="1"/>
        <pt x="163" y="170" on="0"/>
        <pt x="163" y="180" on="1"/>
        <pt x="163" y="191" on="0"/>
        <pt x="176" y="201" on="0"/>
        <pt x="182" y="201" on="1"/>
        <pt x="207" y="201" on="0"/>
        <pt x="266" y="161" on="1"/>
        <pt x="266" y="462" on="1"/>
        <pt x="209" y="422" on="0"/>
        <pt x="182" y="422" on="1"/>
        <pt x="176" y="422" on="0"/>
        <pt x="163" y="433" on="0"/>
        <pt x="163" y="442" on="1"/>
        <pt x="163" y="449" on="0"/>
        <pt x="170" y="458" on="0"/>
        <pt x="189" y="475" on="1"/>
        <pt x="234" y="517" on="0"/>
        <pt x="275" y="589" on="1"/>
        <pt x="286" y="607" on="0"/>
        <pt x="298" y="607" on="1"/>
        <pt x="305" y="607" on="0"/>
        <pt x="314" y="596" on="0"/>
        <pt x="331" y="569" on="1"/>
        <pt x="346" y="544" on="0"/>
        <pt x="362" y="522" on="0"/>
        <pt x="394" y="483" on="0"/>
        <pt x="413" y="468" on="1"/>
        <pt x="430" y="453" on="0"/>
        <pt x="430" y="433" on="0"/>
        <pt x="418" y="422" on="0"/>
        <pt x="412" y="422" on="1"/>
        <pt x="389" y="422" on="0"/>
      </contour>
    </TTGlyph>
    <TTGlyph name="SM790000" xMin="73" yMin="0" xMax="527" yMax="567">
      <contour>
        <pt x="73" y="0" on="1"/>
        <pt x="73" y="312" on="1"/>
        <pt x="300" y="567" on="1"/>
        <pt x="527" y="312" on="1"/>
        <pt x="527" y="0" on="1"/>
      </contour>
      <contour>
        <pt x="126" y="290" on="1"/>
        <pt x="126" y="53" on="1"/>
        <pt x="474" y="53" on="1"/>
        <pt x="474" y="290" on="1"/>
        <pt x="300" y="485" on="1"/>
      </contour>
    </TTGlyph>
    <TTGlyph name="SP500000" xMin="18" yMin="0" xMax="582" yMax="564">
      <contour>
        <pt x="265" y="282" on="1"/>
        <pt x="118" y="430" on="1"/>
        <pt x="154" y="464" on="1"/>
        <pt x="300" y="317" on="1"/>
        <pt x="446" y="464" on="1"/>
        <pt x="482" y="430" on="1"/>
        <pt x="335" y="282" on="1"/>
        <pt x="482" y="136" on="1"/>
        <pt x="446" y="100" on="1"/>
        <pt x="300" y="247" on="1"/>
        <pt x="154" y="100" on="1"/>
        <pt x="118" y="136" on="1"/>
      </contour>
      <contour>
        <pt x="18" y="0" on="1"/>
        <pt x="18" y="564" on="1"/>
        <pt x="582" y="564" on="1"/>
        <pt x="582" y="0" on="1"/>
      </contour>
      <contour>
        <pt x="75" y="507" on="1"/>
        <pt x="75" y="57" on="1"/>
        <pt x="525" y="57" on="1"/>
        <pt x="525" y="507" on="1"/>
      </contour>
    </TTGlyph>
    <TTGlyph name="SS000000" xMin="18" yMin="0" xMax="582" yMax="563">
      <contour>
        <pt x="300" y="563" on="1"/>
        <pt x="416" y="563" on="0"/>
        <pt x="582" y="398" on="0"/>
        <pt x="582" y="282" on="1"/>
        <pt x="582" y="165" on="0"/>
        <pt x="416" y="0" on="0"/>
        <pt x="184" y="0" on="0"/>
        <pt x="18" y="165" on="0"/>
        <pt x="18" y="282" on="1"/>
        <pt x="18" y="398" on="0"/>
        <pt x="183" y="563" on="0"/>
      </contour>
      <contour>
        <pt x="401" y="525" on="0"/>
        <pt x="199" y="525" on="0"/>
        <pt x="56" y="383" on="0"/>
        <pt x="56" y="181" on="0"/>
        <pt x="199" y="38" on="0"/>
        <pt x="401" y="38" on="0"/>
        <pt x="544" y="181" on="0"/>
        <pt x="544" y="383" on="0"/>
      </contour>
      <contour>
        <pt x="200" y="399" on="0"/>
        <pt x="232" y="399" on="0"/>
        <pt x="255" y="376" on="0"/>
        <pt x="255" y="344" on="0"/>
        <pt x="232" y="321" on="0"/>
        <pt x="200" y="321" on="0"/>
        <pt x="177" y="344" on="0"/>
        <pt x="177" y="376" on="0"/>
      </contour>
      <contour>
        <pt x="368" y="399" on="0"/>
        <pt x="400" y="399" on="0"/>
        <pt x="423" y="376" on="0"/>
        <pt x="423" y="359" on="1"/>
        <pt x="423" y="343" on="0"/>
        <pt x="401" y="321" on="0"/>
        <pt x="384" y="321" on="1"/>
        <pt x="368" y="321" on="0"/>
        <pt x="345" y="343" on="0"/>
        <pt x="345" y="375" on="0"/>
      </contour>
      <contour>
        <pt x="483" y="316" on="1"/>
        <pt x="479" y="262" on="0"/>
        <pt x="460" y="200" on="0"/>
        <pt x="438" y="172" on="1"/>
        <pt x="390" y="110" on="0"/>
        <pt x="300" y="110" on="1"/>
        <pt x="202" y="110" on="0"/>
        <pt x="154" y="184" on="1"/>
        <pt x="123" y="231" on="0"/>
        <pt x="117" y="316" on="1"/>
        <pt x="128" y="268" on="0"/>
        <pt x="154" y="238" on="1"/>
        <pt x="208" y="175" on="0"/>
        <pt x="300" y="175" on="1"/>
        <pt x="393" y="175" on="0"/>
        <pt x="447" y="238" on="1"/>
        <pt x="472" y="266" on="0"/>
      </contour>
    </TTGlyph>
    <TTGlyph name="SS010000" xMin="18" yMin="0" xMax="582" yMax="563">
      <contour>
        <pt x="300" y="563" on="1"/>
        <pt x="416" y="563" on="0"/>
        <pt x="582" y="398" on="0"/>
        <pt x="582" y="282" on="1"/>
        <pt x="582" y="165" on="0"/>
        <pt x="416" y="0" on="0"/>
        <pt x="184" y="0" on="0"/>
        <pt x="18" y="165" on="0"/>
        <pt x="18" y="282" on="1"/>
        <pt x="18" y="398" on="0"/>
        <pt x="183" y="563" on="0"/>
      </contour>
      <contour>
        <pt x="213" y="403" on="1"/>
        <pt x="195" y="403" on="0"/>
        <pt x="170" y="378" on="0"/>
        <pt x="170" y="361" on="1"/>
        <pt x="170" y="343" on="0"/>
        <pt x="195" y="318" on="0"/>
        <pt x="213" y="318" on="1"/>
        <pt x="230" y="318" on="0"/>
        <pt x="255" y="343" on="0"/>
        <pt x="255" y="361" on="1"/>
        <pt x="255" y="378" on="0"/>
        <pt x="230" y="403" on="0"/>
      </contour>
      <contour>
        <pt x="391" y="403" on="1"/>
        <pt x="374" y="403" on="0"/>
        <pt x="349" y="378" on="0"/>
        <pt x="349" y="360" on="1"/>
        <pt x="349" y="343" on="0"/>
        <pt x="374" y="318" on="0"/>
        <pt x="391" y="318" on="1"/>
        <pt x="409" y="318" on="0"/>
        <pt x="434" y="343" on="0"/>
        <pt x="434" y="360" on="1"/>
        <pt x="434" y="378" on="0"/>
        <pt x="409" y="403" on="0"/>
      </contour>
      <contour>
        <pt x="483" y="316" on="1"/>
        <pt x="483" y="314" on="1"/>
        <pt x="481" y="316" on="1"/>
        <pt x="474" y="269" on="0"/>
        <pt x="447" y="238" on="1"/>
        <pt x="393" y="175" on="0"/>
        <pt x="300" y="175" on="1"/>
        <pt x="208" y="175" on="0"/>
        <pt x="154" y="238" on="1"/>
        <pt x="128" y="268" on="0"/>
        <pt x="119" y="316" on="1"/>
        <pt x="117" y="314" on="1"/>
        <pt x="123" y="231" on="0"/>
        <pt x="154" y="184" on="1"/>
        <pt x="202" y="110" on="0"/>
        <pt x="300" y="110" on="1"/>
        <pt x="389" y="110" on="0"/>
        <pt x="439" y="172" on="1"/>
        <pt x="461" y="199" on="0"/>
        <pt x="479" y="261" on="0"/>
      </contour>
    </TTGlyph>
    <TTGlyph name="SS260000" xMin="239" yMin="-243" xMax="563" yMax="839">
      <contour>
        <pt x="361" y="-243" on="1"/>
        <pt x="239" y="-243" on="1"/>
        <pt x="239" y="518" on="1"/>
        <pt x="239" y="601" on="0"/>
        <pt x="279" y="730" on="0"/>
        <pt x="344" y="803" on="0"/>
        <pt x="418" y="839" on="0"/>
        <pt x="457" y="839" on="1"/>
        <pt x="489" y="839" on="0"/>
        <pt x="535" y="819" on="0"/>
        <pt x="555" y="789" on="0"/>
        <pt x="563" y="764" on="0"/>
        <pt x="563" y="753" on="1"/>
        <pt x="563" y="719" on="0"/>
        <pt x="520" y="678" on="0"/>
        <pt x="490" y="678" on="1"/>
        <pt x="469" y="678" on="0"/>
        <pt x="435" y="697" on="0"/>
        <pt x="423" y="711" on="0"/>
        <pt x="413" y="726" on="1"/>
        <pt x="399" y="747" on="0"/>
        <pt x="386" y="747" on="1"/>
        <pt x="371" y="747" on="0"/>
        <pt x="361" y="703" on="0"/>
        <pt x="361" y="631" on="1"/>
      </contour>
    </TTGlyph>
    <TTGlyph name="SS270000" xMin="38" yMin="-243" xMax="361" yMax="839">
      <contour>
        <pt x="239" y="839" on="1"/>
        <pt x="361" y="839" on="1"/>
        <pt x="361" y="78" on="1"/>
        <pt x="361" y="-5" on="0"/>
        <pt x="321" y="-134" on="0"/>
        <pt x="255" y="-207" on="0"/>
        <pt x="181" y="-243" on="0"/>
        <pt x="143" y="-243" on="1"/>
        <pt x="111" y="-243" on="0"/>
        <pt x="66" y="-223" on="0"/>
        <pt x="46" y="-193" on="0"/>
        <pt x="38" y="-168" on="0"/>
        <pt x="38" y="-157" on="1"/>
        <pt x="38" y="-122" on="0"/>
        <pt x="80" y="-82" on="0"/>
        <pt x="110" y="-82" on="1"/>
        <pt x="156" y="-82" on="0"/>
        <pt x="187" y="-129" on="1"/>
        <pt x="199" y="-151" on="0"/>
        <pt x="213" y="-151" on="1"/>
        <pt x="228" y="-151" on="0"/>
        <pt x="239" y="-107" on="0"/>
        <pt x="239" y="-35" on="1"/>
      </contour>
    </TTGlyph>
    <TTGlyph name="SV040000" xMin="102" yMin="96" xMax="498" yMax="467">
      <contour>
        <pt x="102" y="467" on="1"/>
        <pt x="498" y="467" on="1"/>
        <pt x="300" y="96" on="1"/>
      </contour>
    </TTGlyph>
    <TTGlyph name="Sacute" xMin="85" yMin="-19" xMax="525" yMax="772">
      <component glyphName="S" x="0" y="0" flags="0x1004"/>
      <component glyphName="acute" x="0" y="130" flags="0x1004"/>
    </TTGlyph>
    <TTGlyph name="Scaron" xMin="85" yMin="-19" xMax="525" yMax="782">
      <component glyphName="S" x="0" y="0" flags="0x1004"/>
      <component glyphName="caron" x="0" y="130" flags="0x1004"/>
    </TTGlyph>
    <TTGlyph name="Scedilla" xMin="85" yMin="-171" xMax="525" yMax="600">
      <contour>
        <pt x="346" y="-13" on="1"/>
        <pt x="346" y="-17" on="1"/>
        <pt x="364" y="-17" on="0"/>
        <pt x="421" y="-60" on="0"/>
        <pt x="421" y="-96" on="1"/>
        <pt x="421" y="-106" on="0"/>
        <pt x="414" y="-127" on="0"/>
        <pt x="397" y="-154" on="0"/>
        <pt x="354" y="-171" on="0"/>
        <pt x="324" y="-171" on="1"/>
        <pt x="279" y="-171" on="0"/>
        <pt x="195" y="-152" on="1"/>
        <pt x="206" y="-83" on="1"/>
        <pt x="278" y="-101" on="0"/>
        <pt x="318" y="-101" on="1"/>
        <pt x="332" y="-101" on="0"/>
        <pt x="337" y="-96" on="1"/>
        <pt x="335" y="-89" on="0"/>
        <pt x="313" y="-84" on="0"/>
        <pt x="266" y="-78" on="1"/>
        <pt x="274" y="-12" on="1"/>
        <pt x="240" y="-6" on="0"/>
        <pt x="203" y="17" on="0"/>
        <pt x="180" y="41" on="1"/>
        <pt x="172" y="-19" on="1"/>
        <pt x="91" y="-19" on="1"/>
        <pt x="94" y="11" on="0"/>
        <pt x="94" y="48" on="1"/>
        <pt x="94" y="123" on="0"/>
        <pt x="86" y="208" on="1"/>
        <pt x="166" y="208" on="1"/>
        <pt x="179" y="68" on="0"/>
        <pt x="302" y="68" on="1"/>
        <pt x="353" y="68" on="0"/>
        <pt x="435" y="116" on="0"/>
        <pt x="435" y="164" on="1"/>
        <pt x="435" y="183" on="0"/>
        <pt x="421" y="210" on="0"/>
        <pt x="403" y="226" on="0"/>
        <pt x="355" y="238" on="0"/>
        <pt x="321" y="243" on="0"/>
        <pt x="281" y="248" on="1"/>
        <pt x="85" y="272" on="0"/>
        <pt x="85" y="415" on="1"/>
        <pt x="85" y="492" on="0"/>
        <pt x="213" y="600" on="0"/>
        <pt x="291" y="600" on="1"/>
        <pt x="368" y="600" on="0"/>
        <pt x="427" y="537" on="1"/>
        <pt x="435" y="593" on="1"/>
        <pt x="515" y="593" on="1"/>
        <pt x="511" y="549" on="0"/>
        <pt x="511" y="507" on="1"/>
        <pt x="511" y="463" on="0"/>
        <pt x="519" y="371" on="1"/>
        <pt x="440" y="360" on="1"/>
        <pt x="437" y="384" on="0"/>
        <pt x="432" y="411" on="0"/>
        <pt x="414" y="462" on="0"/>
        <pt x="387" y="491" on="0"/>
        <pt x="337" y="514" on="0"/>
        <pt x="304" y="514" on="1"/>
        <pt x="247" y="514" on="0"/>
        <pt x="175" y="455" on="0"/>
        <pt x="175" y="417" on="1"/>
        <pt x="175" y="392" on="0"/>
        <pt x="201" y="359" on="0"/>
        <pt x="251" y="342" on="0"/>
        <pt x="281" y="336" on="0"/>
        <pt x="307" y="333" on="1"/>
        <pt x="398" y="322" on="0"/>
        <pt x="427" y="310" on="1"/>
        <pt x="441" y="304" on="0"/>
        <pt x="454" y="296" on="1"/>
        <pt x="525" y="251" on="0"/>
        <pt x="525" y="166" on="1"/>
        <pt x="525" y="100" on="0"/>
        <pt x="429" y="-1" on="0"/>
      </contour>
    </TTGlyph>
    <TTGlyph name="Scircumflex" xMin="85" yMin="-19" xMax="525" yMax="782">
      <component glyphName="S" x="0" y="0" flags="0x1004"/>
      <component glyphName="circumflex" x="0" y="130" flags="0x1004"/>
    </TTGlyph>
    <TTGlyph name="Sigma" xMin="36" yMin="0" xMax="533" yMax="583">
      <contour>
        <pt x="533" y="583" on="1"/>
        <pt x="527" y="371" on="1"/>
        <pt x="449" y="371" on="1"/>
        <pt x="439" y="501" on="1"/>
        <pt x="147" y="501" on="1"/>
        <pt x="308" y="307" on="1"/>
        <pt x="139" y="82" on="1"/>
        <pt x="449" y="82" on="1"/>
        <pt x="454" y="214" on="1"/>
        <pt x="533" y="214" on="1"/>
        <pt x="533" y="0" on="1"/>
        <pt x="36" y="0" on="1"/>
        <pt x="36" y="73" on="1"/>
        <pt x="205" y="307" on="1"/>
        <pt x="36" y="510" on="1"/>
        <pt x="36" y="583" on="1"/>
      </contour>
    </TTGlyph>
    <TTGlyph name="T" xMin="31" yMin="0" xMax="570" yMax="583">
      <contour>
        <pt x="50" y="583" on="1"/>
        <pt x="551" y="583" on="1"/>
        <pt x="570" y="319" on="1"/>
        <pt x="484" y="307" on="1"/>
        <pt x="471" y="501" on="1"/>
        <pt x="344" y="501" on="1"/>
        <pt x="344" y="82" on="1"/>
        <pt x="462" y="82" on="1"/>
        <pt x="462" y="0" on="1"/>
        <pt x="141" y="0" on="1"/>
        <pt x="141" y="82" on="1"/>
        <pt x="257" y="82" on="1"/>
        <pt x="257" y="501" on="1"/>
        <pt x="130" y="501" on="1"/>
        <pt x="117" y="307" on="1"/>
        <pt x="31" y="319" on="1"/>
      </contour>
    </TTGlyph>
    <TTGlyph name="Tbar" xMin="31" yMin="0" xMax="570" yMax="583">
      <contour>
        <pt x="50" y="583" on="1"/>
        <pt x="551" y="583" on="1"/>
        <pt x="570" y="319" on="1"/>
        <pt x="484" y="307" on="1"/>
        <pt x="471" y="501" on="1"/>
        <pt x="344" y="501" on="1"/>
        <pt x="344" y="382" on="1"/>
        <pt x="433" y="382" on="1"/>
        <pt x="433" y="297" on="1"/>
        <pt x="344" y="297" on="1"/>
        <pt x="344" y="82" on="1"/>
        <pt x="462" y="82" on="1"/>
        <pt x="462" y="0" on="1"/>
        <pt x="141" y="0" on="1"/>
        <pt x="141" y="82" on="1"/>
        <pt x="257" y="82" on="1"/>
        <pt x="257" y="297" on="1"/>
        <pt x="167" y="297" on="1"/>
        <pt x="167" y="382" on="1"/>
        <pt x="257" y="382" on="1"/>
        <pt x="257" y="501" on="1"/>
        <pt x="130" y="501" on="1"/>
        <pt x="117" y="307" on="1"/>
        <pt x="31" y="319" on="1"/>
      </contour>
    </TTGlyph>
    <TTGlyph name="Tcaron" xMin="31" yMin="0" xMax="570" yMax="782">
      <component glyphName="T" x="0" y="0" flags="0x1004"/>
      <component glyphName="caron" x="0" y="130" flags="0x1004"/>
    </TTGlyph>
    <TTGlyph name="Tcedilla" xMin="31" yMin="-171" xMax="570" yMax="583">
      <contour>
        <pt x="326" y="0" on="1"/>
        <pt x="324" y="-18" on="1"/>
        <pt x="342" y="-18" on="0"/>
        <pt x="399" y="-60" on="0"/>
        <pt x="399" y="-96" on="1"/>
        <pt x="399" y="-106" on="0"/>
        <pt x="392" y="-127" on="0"/>
        <pt x="375" y="-154" on="0"/>
        <pt x="332" y="-171" on="0"/>
        <pt x="302" y="-171" on="1"/>
        <pt x="257" y="-171" on="0"/>
        <pt x="173" y="-152" on="1"/>
        <pt x="184" y="-83" on="1"/>
        <pt x="265" y="-101" on="0"/>
        <pt x="296" y="-101" on="1"/>
        <pt x="310" y="-101" on="0"/>
        <pt x="315" y="-96" on="1"/>
        <pt x="313" y="-89" on="0"/>
        <pt x="291" y="-84" on="0"/>
        <pt x="244" y="-78" on="1"/>
        <pt x="253" y="0" on="1"/>
        <pt x="141" y="0" on="1"/>
        <pt x="141" y="82" on="1"/>
        <pt x="257" y="82" on="1"/>
        <pt x="257" y="501" on="1"/>
        <pt x="130" y="501" on="1"/>
        <pt x="117" y="307" on="1"/>
        <pt x="31" y="319" on="1"/>
        <pt x="50" y="583" on="1"/>
        <pt x="551" y="583" on="1"/>
        <pt x="570" y="319" on="1"/>
        <pt x="484" y="307" on="1"/>
        <pt x="471" y="501" on="1"/>
        <pt x="344" y="501" on="1"/>
        <pt x="344" y="82" on="1"/>
        <pt x="462" y="82" on="1"/>
        <pt x="462" y="0" on="1"/>
      </contour>
    </TTGlyph>
    <TTGlyph name="Theta" xMin="32" yMin="-17" xMax="568" yMax="599">
      <contour>
        <pt x="186" y="193" on="1"/>
        <pt x="186" y="382" on="1"/>
        <pt x="257" y="382" on="1"/>
        <pt x="257" y="323" on="1"/>
        <pt x="342" y="323" on="1"/>
        <pt x="342" y="382" on="1"/>
        <pt x="413" y="382" on="1"/>
        <pt x="413" y="193" on="1"/>
        <pt x="342" y="193" on="1"/>
        <pt x="342" y="252" on="1"/>
        <pt x="257" y="252" on="1"/>
        <pt x="257" y="193" on="1"/>
      </contour>
      <contour>
        <pt x="32" y="160" on="0"/>
        <pt x="32" y="422" on="0"/>
        <pt x="181" y="599" on="0"/>
        <pt x="300" y="599" on="1"/>
        <pt x="420" y="599" on="0"/>
        <pt x="568" y="421" on="0"/>
        <pt x="568" y="161" on="0"/>
        <pt x="420" y="-17" on="0"/>
        <pt x="300" y="-17" on="1"/>
        <pt x="181" y="-17" on="0"/>
      </contour>
      <contour>
        <pt x="120" y="386" on="0"/>
        <pt x="120" y="196" on="0"/>
        <pt x="220" y="64" on="0"/>
        <pt x="380" y="64" on="0"/>
        <pt x="480" y="196" on="0"/>
        <pt x="480" y="291" on="1"/>
        <pt x="480" y="385" on="0"/>
        <pt x="381" y="518" on="0"/>
        <pt x="219" y="518" on="0"/>
      </contour>
    </TTGlyph>
    <TTGlyph name="Thorn" xMin="81" yMin="0" xMax="566" yMax="583">
      <contour>
        <pt x="245" y="460" on="1"/>
        <pt x="320" y="460" on="1"/>
        <pt x="352" y="460" on="0"/>
        <pt x="389" y="458" on="0"/>
        <pt x="457" y="450" on="0"/>
        <pt x="499" y="428" on="0"/>
        <pt x="544" y="393" on="0"/>
        <pt x="566" y="332" on="0"/>
        <pt x="566" y="292" on="1"/>
        <pt x="566" y="246" on="0"/>
        <pt x="526" y="167" on="0"/>
        <pt x="489" y="151" on="1"/>
        <pt x="459" y="138" on="0"/>
        <pt x="377" y="128" on="0"/>
        <pt x="280" y="128" on="1"/>
        <pt x="245" y="128" on="1"/>
        <pt x="245" y="82" on="1"/>
        <pt x="368" y="82" on="1"/>
        <pt x="368" y="0" on="1"/>
        <pt x="81" y="0" on="1"/>
        <pt x="81" y="82" on="1"/>
        <pt x="158" y="82" on="1"/>
        <pt x="158" y="501" on="1"/>
        <pt x="81" y="501" on="1"/>
        <pt x="81" y="583" on="1"/>
        <pt x="368" y="583" on="1"/>
        <pt x="368" y="501" on="1"/>
        <pt x="245" y="501" on="1"/>
      </contour>
      <contour>
        <pt x="332" y="383" on="1"/>
        <pt x="245" y="383" on="1"/>
        <pt x="245" y="204" on="1"/>
        <pt x="310" y="204" on="1"/>
        <pt x="403" y="204" on="0"/>
        <pt x="484" y="236" on="0"/>
        <pt x="484" y="292" on="1"/>
        <pt x="484" y="324" on="0"/>
        <pt x="457" y="364" on="0"/>
        <pt x="403" y="380" on="0"/>
        <pt x="365" y="383" on="0"/>
      </contour>
    </TTGlyph>
    <TTGlyph name="U" xMin="15" yMin="-16" xMax="585" yMax="583">
      <contour>
        <pt x="15" y="583" on="1"/>
        <pt x="269" y="583" on="1"/>
        <pt x="269" y="501" on="1"/>
        <pt x="171" y="501" on="1"/>
        <pt x="171" y="246" on="1"/>
        <pt x="171" y="213" on="0"/>
        <pt x="173" y="175" on="0"/>
        <pt x="187" y="121" on="0"/>
        <pt x="213" y="92" on="0"/>
        <pt x="264" y="70" on="0"/>
        <pt x="336" y="70" on="0"/>
        <pt x="387" y="92" on="0"/>
        <pt x="413" y="121" on="0"/>
        <pt x="427" y="175" on="0"/>
        <pt x="429" y="213" on="0"/>
        <pt x="429" y="246" on="1"/>
        <pt x="429" y="501" on="1"/>
        <pt x="331" y="501" on="1"/>
        <pt x="331" y="583" on="1"/>
        <pt x="585" y="583" on="1"/>
        <pt x="585" y="501" on="1"/>
        <pt x="516" y="501" on="1"/>
        <pt x="516" y="246" on="1"/>
        <pt x="516" y="120" on="0"/>
        <pt x="480" y="68" on="1"/>
        <pt x="447" y="19" on="0"/>
        <pt x="369" y="-16" on="0"/>
        <pt x="300" y="-16" on="1"/>
        <pt x="249" y="-16" on="0"/>
        <pt x="150" y="23" on="0"/>
        <pt x="120" y="68" on="1"/>
        <pt x="84" y="121" on="0"/>
        <pt x="84" y="246" on="1"/>
        <pt x="84" y="501" on="1"/>
        <pt x="15" y="501" on="1"/>
      </contour>
    </TTGlyph>
    <TTGlyph name="Uacute" xMin="15" yMin="-16" xMax="585" yMax="772">
      <component glyphName="U" x="0" y="0" flags="0x1004"/>
      <component glyphName="acute" x="0" y="130" flags="0x1004"/>
    </TTGlyph>
    <TTGlyph name="Ubreve" xMin="15" yMin="-16" xMax="585" yMax="792">
      <component glyphName="U" x="0" y="0" flags="0x1004"/>
      <component glyphName="breve" x="0" y="130" flags="0x1004"/>
    </TTGlyph>
    <TTGlyph name="Ucircumflex" xMin="15" yMin="-16" xMax="585" yMax="782">
      <component glyphName="U" x="0" y="0" flags="0x1004"/>
      <component glyphName="circumflex" x="0" y="130" flags="0x1004"/>
    </TTGlyph>
    <TTGlyph name="Udieresis" xMin="15" yMin="-16" xMax="585" yMax="778">
      <component glyphName="U" x="0" y="0" flags="0x1004"/>
      <component glyphName="dieresis" x="0" y="130" flags="0x1004"/>
    </TTGlyph>
    <TTGlyph name="Ugrave" xMin="15" yMin="-16" xMax="585" yMax="772">
      <component glyphName="U" x="0" y="0" flags="0x1004"/>
      <component glyphName="grave" x="0" y="130" flags="0x1004"/>
    </TTGlyph>
    <TTGlyph name="Uhungarumlaut" xMin="15" yMin="-16" xMax="585" yMax="787">
      <component glyphName="U" x="0" y="0" flags="0x1004"/>
      <component glyphName="hungarumlaut" x="0" y="130" flags="0x1004"/>
    </TTGlyph>
    <TTGlyph name="Umacron" xMin="15" yMin="-16" xMax="585" yMax="765">
      <component glyphName="U" x="0" y="0" flags="0x1004"/>
      <component glyphName="macron" x="0" y="130" flags="0x1004"/>
    </TTGlyph>
    <TTGlyph name="Uogonek" xMin="15" yMin="-144" xMax="585" yMax="583">
      <contour>
        <pt x="408" y="-49" on="1"/>
        <pt x="393" y="-115" on="1"/>
        <pt x="349" y="-144" on="0"/>
        <pt x="301" y="-144" on="1"/>
        <pt x="262" y="-144" on="0"/>
        <pt x="211" y="-102" on="0"/>
        <pt x="211" y="-72" on="1"/>
        <pt x="211" y="-39" on="0"/>
        <pt x="247" y="-11" on="1"/>
        <pt x="209" y="-3" on="0"/>
        <pt x="151" y="29" on="0"/>
        <pt x="117" y="76" on="0"/>
        <pt x="96" y="118" on="0"/>
        <pt x="88" y="180" on="0"/>
        <pt x="86" y="216" on="0"/>
        <pt x="86" y="246" on="1"/>
        <pt x="86" y="501" on="1"/>
        <pt x="15" y="501" on="1"/>
        <pt x="15" y="583" on="1"/>
        <pt x="271" y="583" on="1"/>
        <pt x="271" y="501" on="1"/>
        <pt x="173" y="501" on="1"/>
        <pt x="173" y="246" on="1"/>
        <pt x="173" y="213" on="0"/>
        <pt x="175" y="175" on="0"/>
        <pt x="189" y="122" on="0"/>
        <pt x="215" y="94" on="0"/>
        <pt x="266" y="72" on="0"/>
        <pt x="302" y="72" on="1"/>
        <pt x="329" y="72" on="0"/>
        <pt x="371" y="83" on="0"/>
        <pt x="397" y="95" on="0"/>
        <pt x="416" y="125" on="0"/>
        <pt x="424" y="144" on="0"/>
        <pt x="429" y="189" on="0"/>
        <pt x="429" y="209" on="0"/>
        <pt x="429" y="236" on="1"/>
        <pt x="429" y="501" on="1"/>
        <pt x="333" y="501" on="1"/>
        <pt x="333" y="583" on="1"/>
        <pt x="585" y="583" on="1"/>
        <pt x="585" y="501" on="1"/>
        <pt x="516" y="501" on="1"/>
        <pt x="516" y="236" on="1"/>
        <pt x="516" y="131" on="0"/>
        <pt x="466" y="26" on="0"/>
        <pt x="384" y="-3" on="1"/>
        <pt x="361" y="-11" on="0"/>
        <pt x="339" y="-20" on="0"/>
        <pt x="312" y="-33" on="0"/>
        <pt x="302" y="-47" on="0"/>
        <pt x="302" y="-55" on="1"/>
        <pt x="302" y="-66" on="0"/>
        <pt x="321" y="-78" on="0"/>
        <pt x="333" y="-78" on="1"/>
        <pt x="357" y="-78" on="0"/>
      </contour>
    </TTGlyph>
    <TTGlyph name="Uring" xMin="15" yMin="-16" xMax="585" yMax="823">
      <component glyphName="U" x="0" y="0" flags="0x1004"/>
      <component glyphName="ring" x="0" y="130" flags="0x1004"/>
    </TTGlyph>
    <TTGlyph name="Utilde" xMin="15" yMin="-16" xMax="585" yMax="790">
      <component glyphName="U" x="0" y="0" flags="0x1004"/>
      <component glyphName="tilde" x="0" y="130" flags="0x1004"/>
    </TTGlyph>
    <TTGlyph name="V" xMin="0" yMin="0" xMax="600" yMax="583">
      <contour>
        <pt x="303" y="124" on="1"/>
        <pt x="445" y="501" on="1"/>
        <pt x="355" y="501" on="1"/>
        <pt x="355" y="583" on="1"/>
        <pt x="600" y="583" on="1"/>
        <pt x="600" y="501" on="1"/>
        <pt x="534" y="501" on="1"/>
        <pt x="345" y="0" on="1"/>
        <pt x="259" y="0" on="1"/>
        <pt x="72" y="501" on="1"/>
        <pt x="0" y="501" on="1"/>
        <pt x="0" y="583" on="1"/>
        <pt x="246" y="583" on="1"/>
        <pt x="246" y="501" on="1"/>
        <pt x="164" y="501" on="1"/>
      </contour>
    </TTGlyph>
    <TTGlyph name="W" xMin="0" yMin="0" xMax="600" yMax="583">
      <contour>
        <pt x="0" y="583" on="1"/>
        <pt x="230" y="583" on="1"/>
        <pt x="230" y="501" on="1"/>
        <pt x="134" y="501" on="1"/>
        <pt x="168" y="196" on="1"/>
        <pt x="170" y="196" on="1"/>
        <pt x="272" y="460" on="1"/>
        <pt x="332" y="460" on="1"/>
        <pt x="431" y="196" on="1"/>
        <pt x="433" y="196" on="1"/>
        <pt x="469" y="501" on="1"/>
        <pt x="372" y="501" on="1"/>
        <pt x="372" y="583" on="1"/>
        <pt x="600" y="583" on="1"/>
        <pt x="600" y="501" on="1"/>
        <pt x="553" y="501" on="1"/>
        <pt x="488" y="0" on="1"/>
        <pt x="409" y="0" on="1"/>
        <pt x="297" y="307" on="1"/>
        <pt x="295" y="307" on="1"/>
        <pt x="187" y="0" on="1"/>
        <pt x="108" y="0" on="1"/>
        <pt x="48" y="501" on="1"/>
        <pt x="0" y="501" on="1"/>
      </contour>
    </TTGlyph>
    <TTGlyph name="X" xMin="22" yMin="0" xMax="578" yMax="583">
      <contour>
        <pt x="41" y="583" on="1"/>
        <pt x="267" y="583" on="1"/>
        <pt x="267" y="501" on="1"/>
        <pt x="208" y="501" on="1"/>
        <pt x="301" y="371" on="1"/>
        <pt x="396" y="501" on="1"/>
        <pt x="343" y="501" on="1"/>
        <pt x="343" y="583" on="1"/>
        <pt x="559" y="583" on="1"/>
        <pt x="559" y="501" on="1"/>
        <pt x="500" y="501" on="1"/>
        <pt x="352" y="305" on="1"/>
        <pt x="518" y="82" on="1"/>
        <pt x="578" y="82" on="1"/>
        <pt x="578" y="0" on="1"/>
        <pt x="343" y="0" on="1"/>
        <pt x="343" y="82" on="1"/>
        <pt x="411" y="82" on="1"/>
        <pt x="301" y="237" on="1"/>
        <pt x="185" y="82" on="1"/>
        <pt x="267" y="82" on="1"/>
        <pt x="267" y="0" on="1"/>
        <pt x="22" y="0" on="1"/>
        <pt x="22" y="82" on="1"/>
        <pt x="81" y="82" on="1"/>
        <pt x="249" y="305" on="1"/>
        <pt x="102" y="501" on="1"/>
        <pt x="41" y="501" on="1"/>
      </contour>
    </TTGlyph>
    <TTGlyph name="Y" xMin="21" yMin="0" xMax="579" yMax="583">
      <contour>
        <pt x="21" y="583" on="1"/>
        <pt x="250" y="583" on="1"/>
        <pt x="250" y="501" on="1"/>
        <pt x="192" y="501" on="1"/>
        <pt x="303" y="316" on="1"/>
        <pt x="412" y="501" on="1"/>
        <pt x="352" y="501" on="1"/>
        <pt x="352" y="583" on="1"/>
        <pt x="579" y="583" on="1"/>
        <pt x="579" y="501" on="1"/>
        <pt x="509" y="501" on="1"/>
        <pt x="344" y="224" on="1"/>
        <pt x="344" y="82" on="1"/>
        <pt x="458" y="82" on="1"/>
        <pt x="458" y="0" on="1"/>
        <pt x="142" y="0" on="1"/>
        <pt x="142" y="82" on="1"/>
        <pt x="258" y="82" on="1"/>
        <pt x="258" y="224" on="1"/>
        <pt x="91" y="501" on="1"/>
        <pt x="21" y="501" on="1"/>
      </contour>
    </TTGlyph>
    <TTGlyph name="Yacute" xMin="21" yMin="0" xMax="579" yMax="772">
      <component glyphName="Y" x="0" y="0" flags="0x1004"/>
      <component glyphName="acute" x="0" y="130" flags="0x1004"/>
    </TTGlyph>
    <TTGlyph name="Ydieresis" xMin="21" yMin="0" xMax="579" yMax="778">
      <component glyphName="Y" x="0" y="0" flags="0x1004"/>
      <component glyphName="dieresis" x="0" y="130" flags="0x1004"/>
    </TTGlyph>
    <TTGlyph name="Z" xMin="72" yMin="0" xMax="528" yMax="583">
      <contour>
        <pt x="78" y="583" on="1"/>
        <pt x="506" y="583" on="1"/>
        <pt x="506" y="517" on="1"/>
        <pt x="188" y="82" on="1"/>
        <pt x="441" y="82" on="1"/>
        <pt x="441" y="240" on="1"/>
        <pt x="528" y="240" on="1"/>
        <pt x="528" y="0" on="1"/>
        <pt x="72" y="0" on="1"/>
        <pt x="72" y="70" on="1"/>
        <pt x="386" y="501" on="1"/>
        <pt x="165" y="501" on="1"/>
        <pt x="165" y="358" on="1"/>
        <pt x="78" y="358" on="1"/>
      </contour>
    </TTGlyph>
    <TTGlyph name="Zacute" xMin="72" yMin="0" xMax="528" yMax="772">
      <component glyphName="Z" x="0" y="0" flags="0x1004"/>
      <component glyphName="acute" x="0" y="130" flags="0x1004"/>
    </TTGlyph>
    <TTGlyph name="Zcaron" xMin="72" yMin="0" xMax="528" yMax="782">
      <component glyphName="Z" x="0" y="0" flags="0x1004"/>
      <component glyphName="caron" x="0" y="130" flags="0x1004"/>
    </TTGlyph>
    <TTGlyph name="Zdotaccent" xMin="72" yMin="0" xMax="528" yMax="783">
      <component glyphName="Z" x="0" y="0" flags="0x1004"/>
      <component glyphName="dotaccent" x="0" y="130" flags="0x1004"/>
    </TTGlyph>
    <TTGlyph name="a" xMin="48" yMin="-14" xMax="561" yMax="474">
      <contour>
        <pt x="475" y="307" on="1"/>
        <pt x="475" y="82" on="1"/>
        <pt x="561" y="82" on="1"/>
        <pt x="561" y="0" on="1"/>
        <pt x="388" y="0" on="1"/>
        <pt x="388" y="48" on="1"/>
        <pt x="303" y="-14" on="0"/>
        <pt x="223" y="-14" on="1"/>
        <pt x="147" y="-14" on="0"/>
        <pt x="48" y="81" on="0"/>
        <pt x="48" y="142" on="1"/>
        <pt x="48" y="167" on="0"/>
        <pt x="70" y="220" on="0"/>
        <pt x="118" y="273" on="0"/>
        <pt x="212" y="307" on="0"/>
        <pt x="274" y="307" on="1"/>
        <pt x="316" y="307" on="0"/>
        <pt x="388" y="299" on="1"/>
        <pt x="388" y="318" on="0"/>
        <pt x="384" y="339" on="0"/>
        <pt x="368" y="372" on="0"/>
        <pt x="325" y="388" on="0"/>
        <pt x="290" y="388" on="1"/>
        <pt x="221" y="388" on="0"/>
        <pt x="115" y="342" on="1"/>
        <pt x="81" y="422" on="1"/>
        <pt x="208" y="474" on="0"/>
        <pt x="291" y="474" on="1"/>
        <pt x="384" y="474" on="0"/>
        <pt x="475" y="387" on="0"/>
      </contour>
      <contour>
        <pt x="388" y="162" on="1"/>
        <pt x="388" y="214" on="1"/>
        <pt x="311" y="225" on="0"/>
        <pt x="284" y="225" on="1"/>
        <pt x="244" y="225" on="0"/>
        <pt x="186" y="209" on="0"/>
        <pt x="157" y="189" on="0"/>
        <pt x="141" y="162" on="0"/>
        <pt x="138" y="147" on="0"/>
        <pt x="138" y="141" on="1"/>
        <pt x="138" y="114" on="0"/>
        <pt x="189" y="72" on="0"/>
        <pt x="222" y="72" on="1"/>
        <pt x="307" y="72" on="0"/>
      </contour>
    </TTGlyph>
    <TTGlyph name="aacute" xMin="48" yMin="-14" xMax="561" yMax="642">
      <component glyphName="a" x="0" y="0" flags="0x1004"/>
      <component glyphName="acute" x="0" y="0" flags="0x1004"/>
    </TTGlyph>
    <TTGlyph name="abreve" xMin="48" yMin="-14" xMax="561" yMax="662">
      <component glyphName="a" x="0" y="0" flags="0x1004"/>
      <component glyphName="breve" x="0" y="0" flags="0x1004"/>
    </TTGlyph>
    <TTGlyph name="acircumflex" xMin="48" yMin="-14" xMax="561" yMax="652">
      <component glyphName="a" x="0" y="0" flags="0x1004"/>
      <component glyphName="circumflex" x="0" y="0" flags="0x1004"/>
    </TTGlyph>
    <TTGlyph name="acute" xMin="210" yMin="544" xMax="464" yMax="642">
      <contour>
        <pt x="464" y="638" on="1"/>
        <pt x="297" y="544" on="1"/>
        <pt x="210" y="544" on="1"/>
        <pt x="315" y="642" on="1"/>
        <pt x="464" y="642" on="1"/>
      </contour>
    </TTGlyph>
    <TTGlyph name="adieresis" xMin="48" yMin="-14" xMax="561" yMax="648">
      <component glyphName="a" x="0" y="0" flags="0x1004"/>
      <component glyphName="dieresis" x="0" y="0" flags="0x1004"/>
    </TTGlyph>
    <TTGlyph name="ae" xMin="8" yMin="-14" xMax="590" yMax="474">
      <contour>
        <pt x="581" y="198" on="1"/>
        <pt x="336" y="198" on="1"/>
        <pt x="343" y="134" on="0"/>
        <pt x="386" y="72" on="0"/>
        <pt x="446" y="72" on="1"/>
        <pt x="496" y="72" on="0"/>
        <pt x="558" y="97" on="1"/>
        <pt x="590" y="19" on="1"/>
        <pt x="589" y="18" on="0"/>
        <pt x="584" y="16" on="1"/>
        <pt x="582" y="15" on="0"/>
        <pt x="581" y="15" on="1"/>
        <pt x="494" y="-14" on="0"/>
        <pt x="436" y="-14" on="1"/>
        <pt x="351" y="-14" on="0"/>
        <pt x="302" y="50" on="1"/>
        <pt x="224" y="-14" on="0"/>
        <pt x="154" y="-14" on="1"/>
        <pt x="86" y="-14" on="0"/>
        <pt x="8" y="73" on="0"/>
        <pt x="8" y="130" on="1"/>
        <pt x="8" y="190" on="0"/>
        <pt x="100" y="293" on="0"/>
        <pt x="182" y="293" on="1"/>
        <pt x="201" y="293" on="0"/>
        <pt x="249" y="287" on="1"/>
        <pt x="249" y="346" on="0"/>
        <pt x="229" y="388" on="0"/>
        <pt x="196" y="388" on="1"/>
        <pt x="147" y="388" on="0"/>
        <pt x="61" y="355" on="1"/>
        <pt x="35" y="436" on="1"/>
        <pt x="133" y="474" on="0"/>
        <pt x="200" y="474" on="1"/>
        <pt x="232" y="474" on="0"/>
        <pt x="278" y="456" on="0"/>
        <pt x="298" y="437" on="0"/>
        <pt x="310" y="420" on="1"/>
        <pt x="356" y="474" on="0"/>
        <pt x="427" y="474" on="1"/>
        <pt x="492" y="474" on="0"/>
        <pt x="585" y="370" on="0"/>
        <pt x="585" y="264" on="1"/>
        <pt x="585" y="228" on="0"/>
      </contour>
      <contour>
        <pt x="249" y="110" on="1"/>
        <pt x="249" y="206" on="1"/>
        <pt x="199" y="211" on="0"/>
        <pt x="184" y="211" on="1"/>
        <pt x="142" y="211" on="0"/>
        <pt x="98" y="168" on="0"/>
        <pt x="98" y="128" on="1"/>
        <pt x="98" y="105" on="0"/>
        <pt x="122" y="72" on="0"/>
        <pt x="148" y="72" on="1"/>
        <pt x="194" y="72" on="0"/>
      </contour>
      <contour>
        <pt x="336" y="280" on="1"/>
        <pt x="498" y="280" on="1"/>
        <pt x="497" y="300" on="0"/>
        <pt x="492" y="328" on="0"/>
        <pt x="479" y="367" on="0"/>
        <pt x="448" y="388" on="0"/>
        <pt x="424" y="388" on="1"/>
        <pt x="402" y="388" on="0"/>
        <pt x="368" y="371" on="0"/>
        <pt x="351" y="350" on="0"/>
        <pt x="340" y="314" on="0"/>
        <pt x="337" y="295" on="0"/>
      </contour>
    </TTGlyph>
    <TTGlyph name="afii299" xMin="-48" yMin="649" xMax="68" yMax="786">
      <contour>
        <pt x="-48" y="649" on="1"/>
        <pt x="-48" y="786" on="1"/>
        <pt x="68" y="718" on="1"/>
      </contour>
    </TTGlyph>
    <TTGlyph name="afii300" xMin="-68" yMin="649" xMax="48" yMax="786">
      <contour>
        <pt x="-68" y="718" on="1"/>
        <pt x="48" y="786" on="1"/>
        <pt x="48" y="649" on="1"/>
      </contour>
    </TTGlyph>
    <TTGlyph name="afii301" xMin="-202" yMin="0" xMax="202" yMax="782">
      <contour>
        <pt x="0" y="782" on="1"/>
        <pt x="36" y="782" on="0"/>
        <pt x="95" y="767" on="0"/>
        <pt x="144" y="742" on="0"/>
        <pt x="184" y="712" on="0"/>
        <pt x="202" y="696" on="1"/>
        <pt x="202" y="695" on="0"/>
        <pt x="200" y="692" on="1"/>
        <pt x="196" y="686" on="1"/>
        <pt x="190" y="680" on="1"/>
        <pt x="170" y="693" on="0"/>
        <pt x="130" y="713" on="0"/>
        <pt x="84" y="725" on="0"/>
        <pt x="33" y="730" on="0"/>
        <pt x="-33" y="730" on="0"/>
        <pt x="-84" y="725" on="0"/>
        <pt x="-130" y="714" on="0"/>
        <pt x="-170" y="695" on="0"/>
        <pt x="-190" y="680" on="1"/>
        <pt x="-193" y="684" on="0"/>
        <pt x="-196" y="687" on="1"/>
        <pt x="-198" y="689" on="0"/>
        <pt x="-202" y="695" on="0"/>
        <pt x="-202" y="696" on="1"/>
        <pt x="-184" y="712" on="0"/>
        <pt x="-144" y="742" on="0"/>
        <pt x="-95" y="767" on="0"/>
        <pt x="-36" y="782" on="0"/>
      </contour>
      <contour>
        <pt x="22" y="636" on="1"/>
        <pt x="22" y="628" on="0"/>
        <pt x="10" y="614" on="0"/>
        <pt x="0" y="614" on="1"/>
        <pt x="-10" y="614" on="0"/>
        <pt x="-22" y="628" on="0"/>
        <pt x="-22" y="636" on="1"/>
        <pt x="-22" y="646" on="0"/>
        <pt x="-10" y="659" on="0"/>
        <pt x="0" y="659" on="1"/>
        <pt x="10" y="659" on="0"/>
        <pt x="22" y="646" on="0"/>
      </contour>
      <contour>
        <pt x="22" y="534" on="1"/>
        <pt x="22" y="524" on="0"/>
        <pt x="10" y="512" on="0"/>
        <pt x="0" y="512" on="1"/>
        <pt x="-10" y="512" on="0"/>
        <pt x="-22" y="524" on="0"/>
        <pt x="-22" y="534" on="1"/>
        <pt x="-22" y="543" on="0"/>
        <pt x="-10" y="555" on="0"/>
        <pt x="0" y="555" on="1"/>
        <pt x="10" y="555" on="0"/>
        <pt x="22" y="543" on="0"/>
      </contour>
      <contour>
        <pt x="22" y="432" on="1"/>
        <pt x="22" y="422" on="0"/>
        <pt x="10" y="410" on="0"/>
        <pt x="0" y="410" on="1"/>
        <pt x="-10" y="410" on="0"/>
        <pt x="-22" y="422" on="0"/>
        <pt x="-22" y="432" on="1"/>
        <pt x="-22" y="440" on="0"/>
        <pt x="-10" y="454" on="0"/>
        <pt x="0" y="454" on="1"/>
        <pt x="10" y="454" on="0"/>
        <pt x="22" y="440" on="0"/>
      </contour>
      <contour>
        <pt x="22" y="328" on="1"/>
        <pt x="22" y="320" on="0"/>
        <pt x="10" y="308" on="0"/>
        <pt x="0" y="308" on="1"/>
        <pt x="-10" y="308" on="0"/>
        <pt x="-22" y="320" on="0"/>
        <pt x="-22" y="328" on="1"/>
        <pt x="-22" y="338" on="0"/>
        <pt x="-10" y="351" on="0"/>
        <pt x="0" y="351" on="1"/>
        <pt x="10" y="351" on="0"/>
        <pt x="22" y="338" on="0"/>
      </contour>
      <contour>
        <pt x="22" y="226" on="1"/>
        <pt x="22" y="218" on="0"/>
        <pt x="10" y="204" on="0"/>
        <pt x="0" y="204" on="1"/>
        <pt x="-10" y="204" on="0"/>
        <pt x="-22" y="218" on="0"/>
        <pt x="-22" y="226" on="1"/>
        <pt x="-22" y="236" on="0"/>
        <pt x="-10" y="249" on="0"/>
        <pt x="0" y="249" on="1"/>
        <pt x="10" y="249" on="0"/>
        <pt x="22" y="236" on="0"/>
      </contour>
      <contour>
        <pt x="22" y="124" on="1"/>
        <pt x="22" y="114" on="0"/>
        <pt x="10" y="102" on="0"/>
        <pt x="0" y="102" on="1"/>
        <pt x="-10" y="102" on="0"/>
        <pt x="-22" y="114" on="0"/>
        <pt x="-22" y="124" on="1"/>
        <pt x="-22" y="133" on="0"/>
        <pt x="-10" y="146" on="0"/>
        <pt x="0" y="146" on="1"/>
        <pt x="10" y="146" on="0"/>
        <pt x="22" y="133" on="0"/>
      </contour>
      <contour>
        <pt x="22" y="22" on="1"/>
        <pt x="22" y="13" on="0"/>
        <pt x="10" y="0" on="0"/>
        <pt x="0" y="0" on="1"/>
        <pt x="-10" y="0" on="0"/>
        <pt x="-22" y="13" on="0"/>
        <pt x="-22" y="22" on="1"/>
        <pt x="-22" y="30" on="0"/>
        <pt x="-10" y="43" on="0"/>
        <pt x="0" y="43" on="1"/>
        <pt x="10" y="43" on="0"/>
        <pt x="22" y="30" on="0"/>
      </contour>
    </TTGlyph>
    <TTGlyph name="afii57505" xMin="9" yMin="0" xMax="628" yMax="585">
      <contour>
        <pt x="473" y="435" on="1"/>
        <pt x="416" y="378" on="1"/>
        <pt x="355" y="440" on="1"/>
        <pt x="411" y="496" on="1"/>
      </contour>
      <contour>
        <pt x="603" y="440" on="1"/>
        <pt x="546" y="383" on="1"/>
        <pt x="484" y="444" on="1"/>
        <pt x="541" y="502" on="1"/>
      </contour>
      <contour>
        <pt x="531" y="523" on="1"/>
        <pt x="475" y="466" on="1"/>
        <pt x="413" y="528" on="1"/>
        <pt x="469" y="585" on="1"/>
      </contour>
      <contour>
        <pt x="571" y="174" on="1"/>
        <pt x="558" y="208" on="0"/>
        <pt x="514" y="254" on="0"/>
        <pt x="496" y="254" on="1"/>
        <pt x="489" y="254" on="0"/>
        <pt x="469" y="238" on="0"/>
        <pt x="461" y="225" on="1"/>
        <pt x="475" y="217" on="0"/>
        <pt x="525" y="194" on="1"/>
        <pt x="557" y="180" on="0"/>
      </contour>
      <contour>
        <pt x="138" y="0" on="1"/>
        <pt x="75" y="0" on="0"/>
        <pt x="44" y="28" on="1"/>
        <pt x="9" y="59" on="0"/>
        <pt x="9" y="126" on="1"/>
        <pt x="9" y="162" on="0"/>
        <pt x="63" y="283" on="0"/>
        <pt x="89" y="306" on="1"/>
        <pt x="112" y="306" on="1"/>
        <pt x="97" y="280" on="0"/>
        <pt x="90" y="265" on="1"/>
        <pt x="68" y="216" on="0"/>
        <pt x="68" y="187" on="1"/>
        <pt x="68" y="153" on="0"/>
        <pt x="85" y="136" on="1"/>
        <pt x="109" y="113" on="0"/>
        <pt x="167" y="113" on="1"/>
        <pt x="504" y="113" on="1"/>
        <pt x="485" y="121" on="0"/>
        <pt x="465" y="129" on="1"/>
        <pt x="422" y="150" on="0"/>
        <pt x="422" y="170" on="1"/>
        <pt x="422" y="186" on="0"/>
        <pt x="429" y="230" on="1"/>
        <pt x="439" y="288" on="0"/>
        <pt x="455" y="323" on="1"/>
        <pt x="477" y="370" on="0"/>
        <pt x="507" y="370" on="1"/>
        <pt x="549" y="370" on="0"/>
        <pt x="587" y="298" on="1"/>
        <pt x="628" y="221" on="0"/>
        <pt x="628" y="122" on="1"/>
        <pt x="628" y="40" on="1"/>
        <pt x="628" y="19" on="0"/>
        <pt x="605" y="0" on="0"/>
        <pt x="578" y="0" on="1"/>
      </contour>
    </TTGlyph>
    <TTGlyph name="afii57511" xMin="19" yMin="0" xMax="618" yMax="501">
      <contour>
        <pt x="430" y="319" on="1"/>
        <pt x="430" y="288" on="0"/>
        <pt x="425" y="272" on="1"/>
        <pt x="418" y="249" on="0"/>
        <pt x="399" y="249" on="1"/>
        <pt x="260" y="249" on="1"/>
        <pt x="246" y="249" on="0"/>
        <pt x="236" y="265" on="1"/>
        <pt x="229" y="275" on="0"/>
        <pt x="225" y="292" on="1"/>
        <pt x="222" y="307" on="1"/>
        <pt x="227" y="303" on="0"/>
        <pt x="231" y="301" on="1"/>
        <pt x="242" y="294" on="0"/>
        <pt x="251" y="294" on="1"/>
        <pt x="269" y="294" on="1"/>
        <pt x="277" y="294" on="0"/>
        <pt x="284" y="300" on="1"/>
        <pt x="289" y="304" on="0"/>
        <pt x="295" y="311" on="1"/>
        <pt x="292" y="346" on="0"/>
        <pt x="284" y="387" on="1"/>
        <pt x="276" y="433" on="0"/>
        <pt x="270" y="446" on="1"/>
        <pt x="292" y="501" on="1"/>
        <pt x="299" y="486" on="0"/>
        <pt x="306" y="448" on="1"/>
        <pt x="310" y="419" on="0"/>
        <pt x="314" y="379" on="1"/>
        <pt x="316" y="346" on="0"/>
        <pt x="316" y="330" on="1"/>
        <pt x="321" y="336" on="0"/>
        <pt x="326" y="343" on="1"/>
        <pt x="339" y="358" on="0"/>
        <pt x="350" y="367" on="1"/>
        <pt x="366" y="380" on="0"/>
        <pt x="379" y="380" on="1"/>
        <pt x="397" y="380" on="0"/>
        <pt x="412" y="364" on="1"/>
        <pt x="430" y="344" on="0"/>
      </contour>
      <contour>
        <pt x="412" y="304" on="1"/>
        <pt x="407" y="316" on="0"/>
        <pt x="394" y="326" on="1"/>
        <pt x="382" y="334" on="0"/>
        <pt x="371" y="334" on="1"/>
        <pt x="361" y="334" on="0"/>
        <pt x="349" y="327" on="1"/>
        <pt x="331" y="317" on="0"/>
        <pt x="308" y="294" on="1"/>
        <pt x="393" y="294" on="1"/>
        <pt x="399" y="294" on="0"/>
        <pt x="409" y="300" on="0"/>
      </contour>
      <contour>
        <pt x="155" y="0" on="1"/>
        <pt x="94" y="0" on="0"/>
        <pt x="59" y="29" on="1"/>
        <pt x="19" y="63" on="0"/>
        <pt x="19" y="130" on="1"/>
        <pt x="19" y="171" on="0"/>
        <pt x="41" y="225" on="1"/>
        <pt x="65" y="283" on="0"/>
        <pt x="100" y="309" on="1"/>
        <pt x="122" y="309" on="1"/>
        <pt x="105" y="282" on="0"/>
        <pt x="97" y="266" on="1"/>
        <pt x="72" y="217" on="0"/>
        <pt x="72" y="187" on="1"/>
        <pt x="72" y="154" on="0"/>
        <pt x="92" y="136" on="1"/>
        <pt x="118" y="113" on="0"/>
        <pt x="176" y="113" on="1"/>
        <pt x="556" y="113" on="1"/>
        <pt x="556" y="140" on="0"/>
        <pt x="539" y="170" on="1"/>
        <pt x="532" y="180" on="0"/>
        <pt x="510" y="210" on="1"/>
        <pt x="548" y="320" on="1"/>
        <pt x="574" y="287" on="0"/>
        <pt x="594" y="229" on="1"/>
        <pt x="618" y="161" on="0"/>
        <pt x="618" y="97" on="1"/>
        <pt x="618" y="0" on="1"/>
      </contour>
    </TTGlyph>
    <TTGlyph name="afii57512" xMin="169" yMin="0" xMax="468" yMax="694">
      <contour>
        <pt x="405" y="512" on="1"/>
        <pt x="405" y="480" on="0"/>
        <pt x="400" y="465" on="1"/>
        <pt x="393" y="442" on="0"/>
        <pt x="374" y="442" on="1"/>
        <pt x="235" y="442" on="1"/>
        <pt x="221" y="442" on="0"/>
        <pt x="211" y="457" on="1"/>
        <pt x="204" y="468" on="0"/>
        <pt x="200" y="485" on="1"/>
        <pt x="200" y="485" on="0"/>
        <pt x="197" y="500" on="1"/>
        <pt x="202" y="496" on="0"/>
        <pt x="206" y="494" on="1"/>
        <pt x="217" y="487" on="0"/>
        <pt x="226" y="487" on="1"/>
        <pt x="244" y="487" on="1"/>
        <pt x="252" y="487" on="0"/>
        <pt x="259" y="492" on="1"/>
        <pt x="264" y="496" on="0"/>
        <pt x="270" y="504" on="1"/>
        <pt x="267" y="538" on="0"/>
        <pt x="259" y="579" on="1"/>
        <pt x="251" y="626" on="0"/>
        <pt x="245" y="639" on="1"/>
        <pt x="267" y="693" on="1"/>
        <pt x="274" y="679" on="0"/>
        <pt x="281" y="641" on="1"/>
        <pt x="285" y="611" on="0"/>
        <pt x="289" y="571" on="1"/>
        <pt x="291" y="538" on="0"/>
        <pt x="291" y="522" on="1"/>
        <pt x="296" y="529" on="0"/>
        <pt x="301" y="535" on="1"/>
        <pt x="314" y="551" on="0"/>
        <pt x="325" y="560" on="1"/>
        <pt x="341" y="573" on="0"/>
        <pt x="354" y="573" on="1"/>
        <pt x="372" y="573" on="0"/>
        <pt x="387" y="556" on="1"/>
        <pt x="405" y="537" on="0"/>
      </contour>
      <contour>
        <pt x="388" y="497" on="1"/>
        <pt x="382" y="509" on="0"/>
        <pt x="369" y="518" on="1"/>
        <pt x="357" y="527" on="0"/>
        <pt x="346" y="527" on="1"/>
        <pt x="336" y="527" on="0"/>
        <pt x="324" y="520" on="1"/>
        <pt x="306" y="510" on="0"/>
        <pt x="283" y="487" on="1"/>
        <pt x="368" y="487" on="1"/>
        <pt x="374" y="487" on="0"/>
        <pt x="384" y="492" on="0"/>
      </contour>
      <contour>
        <pt x="468" y="77" on="1"/>
        <pt x="468" y="42" on="0"/>
        <pt x="461" y="25" on="1"/>
        <pt x="451" y="0" on="0"/>
        <pt x="422" y="0" on="1"/>
        <pt x="213" y="0" on="1"/>
        <pt x="189" y="0" on="0"/>
        <pt x="178" y="27" on="1"/>
        <pt x="169" y="50" on="0"/>
        <pt x="169" y="92" on="1"/>
        <pt x="169" y="110" on="0"/>
        <pt x="180" y="155" on="0"/>
        <pt x="187" y="172" on="1"/>
        <pt x="196" y="152" on="0"/>
        <pt x="204" y="142" on="1"/>
        <pt x="228" y="113" on="0"/>
        <pt x="257" y="113" on="1"/>
        <pt x="392" y="113" on="1"/>
        <pt x="399" y="113" on="0"/>
        <pt x="414" y="127" on="0"/>
        <pt x="414" y="137" on="1"/>
        <pt x="414" y="165" on="0"/>
        <pt x="381" y="207" on="1"/>
        <pt x="346" y="250" on="0"/>
        <pt x="294" y="284" on="1"/>
        <pt x="307" y="416" on="1"/>
        <pt x="308" y="416" on="0"/>
        <pt x="327" y="400" on="1"/>
        <pt x="350" y="381" on="0"/>
        <pt x="371" y="359" on="1"/>
        <pt x="400" y="328" on="0"/>
        <pt x="419" y="299" on="1"/>
        <pt x="444" y="261" on="0"/>
        <pt x="457" y="196" on="1"/>
        <pt x="468" y="139" on="0"/>
      </contour>
    </TTGlyph>
    <TTGlyph name="afii57513" xMin="159" yMin="-249" xMax="480" yMax="622">
      <contour>
        <pt x="480" y="440" on="1"/>
        <pt x="480" y="409" on="0"/>
        <pt x="475" y="393" on="1"/>
        <pt x="468" y="370" on="0"/>
        <pt x="449" y="370" on="1"/>
        <pt x="310" y="370" on="1"/>
        <pt x="296" y="370" on="0"/>
        <pt x="286" y="386" on="1"/>
        <pt x="279" y="396" on="0"/>
        <pt x="275" y="413" on="1"/>
        <pt x="275" y="413" on="0"/>
        <pt x="272" y="428" on="1"/>
        <pt x="277" y="424" on="0"/>
        <pt x="281" y="422" on="1"/>
        <pt x="292" y="415" on="0"/>
        <pt x="301" y="415" on="1"/>
        <pt x="319" y="415" on="1"/>
        <pt x="327" y="415" on="0"/>
        <pt x="334" y="421" on="1"/>
        <pt x="339" y="425" on="0"/>
        <pt x="345" y="432" on="1"/>
        <pt x="342" y="467" on="0"/>
        <pt x="334" y="508" on="1"/>
        <pt x="326" y="554" on="0"/>
        <pt x="320" y="567" on="1"/>
        <pt x="342" y="622" on="1"/>
        <pt x="349" y="607" on="0"/>
        <pt x="356" y="569" on="1"/>
        <pt x="360" y="540" on="0"/>
        <pt x="364" y="500" on="1"/>
        <pt x="366" y="467" on="0"/>
        <pt x="366" y="451" on="1"/>
        <pt x="371" y="457" on="0"/>
        <pt x="376" y="464" on="1"/>
        <pt x="389" y="479" on="0"/>
        <pt x="400" y="488" on="1"/>
        <pt x="416" y="501" on="0"/>
        <pt x="429" y="501" on="1"/>
        <pt x="447" y="501" on="0"/>
        <pt x="462" y="485" on="1"/>
        <pt x="480" y="465" on="0"/>
      </contour>
      <contour>
        <pt x="462" y="425" on="1"/>
        <pt x="457" y="437" on="0"/>
        <pt x="444" y="447" on="1"/>
        <pt x="432" y="455" on="0"/>
        <pt x="421" y="455" on="1"/>
        <pt x="411" y="455" on="0"/>
        <pt x="399" y="448" on="1"/>
        <pt x="381" y="438" on="0"/>
        <pt x="358" y="415" on="1"/>
        <pt x="443" y="415" on="1"/>
        <pt x="449" y="415" on="0"/>
        <pt x="459" y="421" on="0"/>
      </contour>
      <contour>
        <pt x="260" y="-249" on="1"/>
        <pt x="238" y="-249" on="0"/>
        <pt x="177" y="-213" on="0"/>
        <pt x="159" y="-192" on="1"/>
        <pt x="262" y="-162" on="0"/>
        <pt x="348" y="-82" on="1"/>
        <pt x="431" y="-6" on="0"/>
        <pt x="431" y="50" on="1"/>
        <pt x="431" y="77" on="0"/>
        <pt x="396" y="126" on="1"/>
        <pt x="385" y="142" on="0"/>
        <pt x="362" y="170" on="1"/>
        <pt x="400" y="307" on="1"/>
        <pt x="403" y="307" on="0"/>
        <pt x="421" y="276" on="1"/>
        <pt x="443" y="237" on="0"/>
        <pt x="458" y="191" on="1"/>
        <pt x="478" y="126" on="0"/>
        <pt x="478" y="61" on="1"/>
        <pt x="478" y="-1" on="0"/>
        <pt x="453" y="-70" on="1"/>
        <pt x="425" y="-146" on="0"/>
        <pt x="379" y="-193" on="1"/>
        <pt x="326" y="-249" on="0"/>
      </contour>
    </TTGlyph>
    <TTGlyph name="afii57514" xMin="86" yMin="-113" xMax="551" yMax="299">
      <contour>
        <pt x="517" y="69" on="1"/>
        <pt x="505" y="101" on="0"/>
        <pt x="464" y="173" on="0"/>
        <pt x="451" y="187" on="1"/>
        <pt x="485" y="299" on="1"/>
        <pt x="486" y="299" on="0"/>
        <pt x="502" y="267" on="1"/>
        <pt x="522" y="228" on="0"/>
        <pt x="534" y="191" on="1"/>
        <pt x="551" y="137" on="0"/>
        <pt x="551" y="94" on="1"/>
        <pt x="551" y="50" on="1"/>
        <pt x="551" y="1" on="0"/>
        <pt x="495" y="-40" on="1"/>
        <pt x="447" y="-74" on="0"/>
        <pt x="373" y="-95" on="1"/>
        <pt x="310" y="-113" on="0"/>
        <pt x="259" y="-113" on="1"/>
        <pt x="169" y="-113" on="0"/>
        <pt x="125" y="-69" on="1"/>
        <pt x="86" y="-31" on="0"/>
        <pt x="86" y="33" on="1"/>
        <pt x="86" y="103" on="0"/>
        <pt x="110" y="174" on="1"/>
        <pt x="128" y="226" on="0"/>
        <pt x="144" y="246" on="1"/>
        <pt x="158" y="246" on="1"/>
        <pt x="150" y="233" on="0"/>
        <pt x="133" y="143" on="0"/>
        <pt x="133" y="116" on="1"/>
        <pt x="133" y="50" on="0"/>
        <pt x="178" y="22" on="1"/>
        <pt x="214" y="0" on="0"/>
        <pt x="280" y="0" on="1"/>
        <pt x="355" y="0" on="0"/>
        <pt x="425" y="23" on="1"/>
        <pt x="484" y="42" on="0"/>
      </contour>
    </TTGlyph>
    <TTGlyph name="afii61573" xMin="-62" yMin="-62" xMax="62" yMax="555">
      <contour>
        <pt x="14" y="486" on="1"/>
        <pt x="14" y="-34" on="1"/>
        <pt x="56" y="-34" on="1"/>
        <pt x="56" y="-62" on="1"/>
        <pt x="-56" y="-62" on="1"/>
        <pt x="-56" y="-34" on="1"/>
        <pt x="-14" y="-34" on="1"/>
        <pt x="-14" y="486" on="1"/>
        <pt x="-62" y="486" on="1"/>
        <pt x="0" y="555" on="1"/>
        <pt x="62" y="486" on="1"/>
      </contour>
    </TTGlyph>
    <TTGlyph name="afii61574" xMin="-99" yMin="0" xMax="114" yMax="815">
      <contour>
        <pt x="45" y="694" on="1"/>
        <pt x="45" y="740" on="1"/>
        <pt x="-99" y="740" on="1"/>
        <pt x="-99" y="768" on="1"/>
        <pt x="45" y="768" on="1"/>
        <pt x="45" y="815" on="1"/>
        <pt x="114" y="755" on="1"/>
      </contour>
      <contour>
        <pt x="22" y="636" on="1"/>
        <pt x="22" y="628" on="0"/>
        <pt x="10" y="614" on="0"/>
        <pt x="0" y="614" on="1"/>
        <pt x="-10" y="614" on="0"/>
        <pt x="-22" y="628" on="0"/>
        <pt x="-22" y="636" on="1"/>
        <pt x="-22" y="646" on="0"/>
        <pt x="-10" y="659" on="0"/>
        <pt x="0" y="659" on="1"/>
        <pt x="10" y="659" on="0"/>
        <pt x="22" y="646" on="0"/>
      </contour>
      <contour>
        <pt x="22" y="534" on="1"/>
        <pt x="22" y="524" on="0"/>
        <pt x="10" y="512" on="0"/>
        <pt x="0" y="512" on="1"/>
        <pt x="-10" y="512" on="0"/>
        <pt x="-22" y="524" on="0"/>
        <pt x="-22" y="534" on="1"/>
        <pt x="-22" y="543" on="0"/>
        <pt x="-10" y="555" on="0"/>
        <pt x="0" y="555" on="1"/>
        <pt x="10" y="555" on="0"/>
        <pt x="22" y="543" on="0"/>
      </contour>
      <contour>
        <pt x="22" y="432" on="1"/>
        <pt x="22" y="422" on="0"/>
        <pt x="10" y="410" on="0"/>
        <pt x="0" y="410" on="1"/>
        <pt x="-10" y="410" on="0"/>
        <pt x="-22" y="422" on="0"/>
        <pt x="-22" y="432" on="1"/>
        <pt x="-22" y="440" on="0"/>
        <pt x="-10" y="454" on="0"/>
        <pt x="0" y="454" on="1"/>
        <pt x="10" y="454" on="0"/>
        <pt x="22" y="440" on="0"/>
      </contour>
      <contour>
        <pt x="22" y="328" on="1"/>
        <pt x="22" y="320" on="0"/>
        <pt x="10" y="308" on="0"/>
        <pt x="0" y="308" on="1"/>
        <pt x="-10" y="308" on="0"/>
        <pt x="-22" y="320" on="0"/>
        <pt x="-22" y="328" on="1"/>
        <pt x="-22" y="338" on="0"/>
        <pt x="-10" y="351" on="0"/>
        <pt x="0" y="351" on="1"/>
        <pt x="10" y="351" on="0"/>
        <pt x="22" y="338" on="0"/>
      </contour>
      <contour>
        <pt x="22" y="226" on="1"/>
        <pt x="22" y="218" on="0"/>
        <pt x="10" y="204" on="0"/>
        <pt x="0" y="204" on="1"/>
        <pt x="-10" y="204" on="0"/>
        <pt x="-22" y="218" on="0"/>
        <pt x="-22" y="226" on="1"/>
        <pt x="-22" y="236" on="0"/>
        <pt x="-10" y="249" on="0"/>
        <pt x="0" y="249" on="1"/>
        <pt x="10" y="249" on="0"/>
        <pt x="22" y="236" on="0"/>
      </contour>
      <contour>
        <pt x="22" y="124" on="1"/>
        <pt x="22" y="114" on="0"/>
        <pt x="10" y="102" on="0"/>
        <pt x="0" y="102" on="1"/>
        <pt x="-10" y="102" on="0"/>
        <pt x="-22" y="114" on="0"/>
        <pt x="-22" y="124" on="1"/>
        <pt x="-22" y="133" on="0"/>
        <pt x="-10" y="146" on="0"/>
        <pt x="0" y="146" on="1"/>
        <pt x="10" y="146" on="0"/>
        <pt x="22" y="133" on="0"/>
      </contour>
      <contour>
        <pt x="22" y="22" on="1"/>
        <pt x="22" y="13" on="0"/>
        <pt x="10" y="0" on="0"/>
        <pt x="0" y="0" on="1"/>
        <pt x="-10" y="0" on="0"/>
        <pt x="-22" y="13" on="0"/>
        <pt x="-22" y="22" on="1"/>
        <pt x="-22" y="30" on="0"/>
        <pt x="-10" y="43" on="0"/>
        <pt x="0" y="43" on="1"/>
        <pt x="10" y="43" on="0"/>
        <pt x="22" y="30" on="0"/>
      </contour>
    </TTGlyph>
    <TTGlyph name="afii61575" xMin="-114" yMin="0" xMax="99" yMax="815">
      <contour>
        <pt x="-45" y="740" on="1"/>
        <pt x="-45" y="694" on="1"/>
        <pt x="-114" y="755" on="1"/>
        <pt x="-45" y="815" on="1"/>
        <pt x="-45" y="768" on="1"/>
        <pt x="99" y="768" on="1"/>
        <pt x="99" y="740" on="1"/>
      </contour>
      <contour>
        <pt x="22" y="636" on="1"/>
        <pt x="22" y="628" on="0"/>
        <pt x="10" y="614" on="0"/>
        <pt x="0" y="614" on="1"/>
        <pt x="-10" y="614" on="0"/>
        <pt x="-22" y="628" on="0"/>
        <pt x="-22" y="636" on="1"/>
        <pt x="-22" y="646" on="0"/>
        <pt x="-10" y="659" on="0"/>
        <pt x="0" y="659" on="1"/>
        <pt x="10" y="659" on="0"/>
        <pt x="22" y="646" on="0"/>
      </contour>
      <contour>
        <pt x="22" y="534" on="1"/>
        <pt x="22" y="524" on="0"/>
        <pt x="10" y="512" on="0"/>
        <pt x="0" y="512" on="1"/>
        <pt x="-10" y="512" on="0"/>
        <pt x="-22" y="524" on="0"/>
        <pt x="-22" y="534" on="1"/>
        <pt x="-22" y="543" on="0"/>
        <pt x="-10" y="555" on="0"/>
        <pt x="0" y="555" on="1"/>
        <pt x="10" y="555" on="0"/>
        <pt x="22" y="543" on="0"/>
      </contour>
      <contour>
        <pt x="22" y="432" on="1"/>
        <pt x="22" y="422" on="0"/>
        <pt x="10" y="410" on="0"/>
        <pt x="0" y="410" on="1"/>
        <pt x="-10" y="410" on="0"/>
        <pt x="-22" y="422" on="0"/>
        <pt x="-22" y="432" on="1"/>
        <pt x="-22" y="440" on="0"/>
        <pt x="-10" y="454" on="0"/>
        <pt x="0" y="454" on="1"/>
        <pt x="10" y="454" on="0"/>
        <pt x="22" y="440" on="0"/>
      </contour>
      <contour>
        <pt x="22" y="328" on="1"/>
        <pt x="22" y="320" on="0"/>
        <pt x="10" y="308" on="0"/>
        <pt x="0" y="308" on="1"/>
        <pt x="-10" y="308" on="0"/>
        <pt x="-22" y="320" on="0"/>
        <pt x="-22" y="328" on="1"/>
        <pt x="-22" y="338" on="0"/>
        <pt x="-10" y="351" on="0"/>
        <pt x="0" y="351" on="1"/>
        <pt x="10" y="351" on="0"/>
        <pt x="22" y="338" on="0"/>
      </contour>
      <contour>
        <pt x="22" y="226" on="1"/>
        <pt x="22" y="218" on="0"/>
        <pt x="10" y="204" on="0"/>
        <pt x="0" y="204" on="1"/>
        <pt x="-10" y="204" on="0"/>
        <pt x="-22" y="218" on="0"/>
        <pt x="-22" y="226" on="1"/>
        <pt x="-22" y="236" on="0"/>
        <pt x="-10" y="249" on="0"/>
        <pt x="0" y="249" on="1"/>
        <pt x="10" y="249" on="0"/>
        <pt x="22" y="236" on="0"/>
      </contour>
      <contour>
        <pt x="22" y="124" on="1"/>
        <pt x="22" y="114" on="0"/>
        <pt x="10" y="102" on="0"/>
        <pt x="0" y="102" on="1"/>
        <pt x="-10" y="102" on="0"/>
        <pt x="-22" y="114" on="0"/>
        <pt x="-22" y="124" on="1"/>
        <pt x="-22" y="133" on="0"/>
        <pt x="-10" y="146" on="0"/>
        <pt x="0" y="146" on="1"/>
        <pt x="10" y="146" on="0"/>
        <pt x="22" y="133" on="0"/>
      </contour>
      <contour>
        <pt x="22" y="22" on="1"/>
        <pt x="22" y="13" on="0"/>
        <pt x="10" y="0" on="0"/>
        <pt x="0" y="0" on="1"/>
        <pt x="-10" y="0" on="0"/>
        <pt x="-22" y="13" on="0"/>
        <pt x="-22" y="22" on="1"/>
        <pt x="-22" y="30" on="0"/>
        <pt x="-10" y="43" on="0"/>
        <pt x="0" y="43" on="1"/>
        <pt x="10" y="43" on="0"/>
        <pt x="22" y="30" on="0"/>
      </contour>
    </TTGlyph>
    <TTGlyph name="afii61664" xMin="-202" yMin="0" xMax="202" yMax="914">
      <contour>
        <pt x="190" y="680" on="1"/>
        <pt x="156" y="703" on="0"/>
        <pt x="90" y="725" on="0"/>
        <pt x="53" y="728" on="1"/>
        <pt x="154" y="628" on="1"/>
        <pt x="133" y="606" on="1"/>
        <pt x="7" y="730" on="1"/>
        <pt x="-8" y="730" on="1"/>
        <pt x="-132" y="607" on="1"/>
        <pt x="-154" y="630" on="1"/>
        <pt x="-54" y="728" on="1"/>
        <pt x="-91" y="725" on="0"/>
        <pt x="-156" y="704" on="0"/>
        <pt x="-190" y="680" on="1"/>
        <pt x="-202" y="696" on="1"/>
        <pt x="-164" y="730" on="0"/>
        <pt x="-88" y="772" on="0"/>
        <pt x="-40" y="779" on="1"/>
        <pt x="-152" y="891" on="1"/>
        <pt x="-130" y="912" on="1"/>
        <pt x="0" y="782" on="1"/>
        <pt x="132" y="914" on="1"/>
        <pt x="152" y="892" on="1"/>
        <pt x="39" y="779" on="1"/>
        <pt x="86" y="772" on="0"/>
        <pt x="163" y="730" on="0"/>
        <pt x="202" y="696" on="1"/>
      </contour>
      <contour>
        <pt x="22" y="636" on="1"/>
        <pt x="22" y="628" on="0"/>
        <pt x="10" y="614" on="0"/>
        <pt x="0" y="614" on="1"/>
        <pt x="-10" y="614" on="0"/>
        <pt x="-22" y="628" on="0"/>
        <pt x="-22" y="636" on="1"/>
        <pt x="-22" y="646" on="0"/>
        <pt x="-10" y="659" on="0"/>
        <pt x="0" y="659" on="1"/>
        <pt x="10" y="659" on="0"/>
        <pt x="22" y="646" on="0"/>
      </contour>
      <contour>
        <pt x="22" y="534" on="1"/>
        <pt x="22" y="524" on="0"/>
        <pt x="10" y="512" on="0"/>
        <pt x="0" y="512" on="1"/>
        <pt x="-10" y="512" on="0"/>
        <pt x="-22" y="524" on="0"/>
        <pt x="-22" y="534" on="1"/>
        <pt x="-22" y="543" on="0"/>
        <pt x="-10" y="555" on="0"/>
        <pt x="0" y="555" on="1"/>
        <pt x="10" y="555" on="0"/>
        <pt x="22" y="543" on="0"/>
      </contour>
      <contour>
        <pt x="22" y="432" on="1"/>
        <pt x="22" y="422" on="0"/>
        <pt x="10" y="410" on="0"/>
        <pt x="0" y="410" on="1"/>
        <pt x="-10" y="410" on="0"/>
        <pt x="-22" y="422" on="0"/>
        <pt x="-22" y="432" on="1"/>
        <pt x="-22" y="440" on="0"/>
        <pt x="-10" y="454" on="0"/>
        <pt x="0" y="454" on="1"/>
        <pt x="10" y="454" on="0"/>
        <pt x="22" y="440" on="0"/>
      </contour>
      <contour>
        <pt x="22" y="328" on="1"/>
        <pt x="22" y="320" on="0"/>
        <pt x="10" y="308" on="0"/>
        <pt x="0" y="308" on="1"/>
        <pt x="-10" y="308" on="0"/>
        <pt x="-22" y="320" on="0"/>
        <pt x="-22" y="328" on="1"/>
        <pt x="-22" y="338" on="0"/>
        <pt x="-10" y="351" on="0"/>
        <pt x="0" y="351" on="1"/>
        <pt x="10" y="351" on="0"/>
        <pt x="22" y="338" on="0"/>
      </contour>
      <contour>
        <pt x="22" y="226" on="1"/>
        <pt x="22" y="218" on="0"/>
        <pt x="10" y="204" on="0"/>
        <pt x="0" y="204" on="1"/>
        <pt x="-10" y="204" on="0"/>
        <pt x="-22" y="218" on="0"/>
        <pt x="-22" y="226" on="1"/>
        <pt x="-22" y="236" on="0"/>
        <pt x="-10" y="249" on="0"/>
        <pt x="0" y="249" on="1"/>
        <pt x="10" y="249" on="0"/>
        <pt x="22" y="236" on="0"/>
      </contour>
      <contour>
        <pt x="22" y="124" on="1"/>
        <pt x="22" y="114" on="0"/>
        <pt x="10" y="102" on="0"/>
        <pt x="0" y="102" on="1"/>
        <pt x="-10" y="102" on="0"/>
        <pt x="-22" y="114" on="0"/>
        <pt x="-22" y="124" on="1"/>
        <pt x="-22" y="133" on="0"/>
        <pt x="-10" y="146" on="0"/>
        <pt x="0" y="146" on="1"/>
        <pt x="10" y="146" on="0"/>
        <pt x="22" y="133" on="0"/>
      </contour>
      <contour>
        <pt x="22" y="22" on="1"/>
        <pt x="22" y="13" on="0"/>
        <pt x="10" y="0" on="0"/>
        <pt x="0" y="0" on="1"/>
        <pt x="-10" y="0" on="0"/>
        <pt x="-22" y="13" on="0"/>
        <pt x="-22" y="22" on="1"/>
        <pt x="-22" y="30" on="0"/>
        <pt x="-10" y="43" on="0"/>
        <pt x="0" y="43" on="1"/>
        <pt x="10" y="43" on="0"/>
        <pt x="22" y="30" on="0"/>
      </contour>
    </TTGlyph>
    <TTGlyph name="agrave" xMin="48" yMin="-14" xMax="561" yMax="642">
      <component glyphName="a" x="0" y="0" flags="0x1004"/>
      <component glyphName="grave" x="0" y="0" flags="0x1004"/>
    </TTGlyph>
    <TTGlyph name="ain" xMin="89" yMin="-361" xMax="548" yMax="367">
      <contour>
        <pt x="168" y="89" on="1"/>
        <pt x="136" y="115" on="0"/>
        <pt x="121" y="135" on="1"/>
        <pt x="94" y="168" on="0"/>
        <pt x="94" y="204" on="1"/>
        <pt x="94" y="263" on="0"/>
        <pt x="140" y="317" on="1"/>
        <pt x="181" y="367" on="0"/>
        <pt x="222" y="367" on="1"/>
        <pt x="259" y="367" on="0"/>
        <pt x="325" y="323" on="0"/>
        <pt x="356" y="274" on="1"/>
        <pt x="354" y="265" on="1"/>
        <pt x="354" y="265" on="0"/>
        <pt x="320" y="275" on="1"/>
        <pt x="284" y="284" on="0"/>
        <pt x="269" y="284" on="1"/>
        <pt x="228" y="284" on="0"/>
        <pt x="187" y="262" on="1"/>
        <pt x="155" y="243" on="0"/>
        <pt x="135" y="220" on="1"/>
        <pt x="158" y="199" on="0"/>
        <pt x="193" y="180" on="1"/>
        <pt x="237" y="158" on="0"/>
        <pt x="267" y="158" on="1"/>
        <pt x="279" y="158" on="0"/>
        <pt x="288" y="162" on="1"/>
        <pt x="445" y="220" on="1"/>
        <pt x="412" y="105" on="1"/>
        <pt x="411" y="105" on="0"/>
        <pt x="382" y="95" on="1"/>
        <pt x="344" y="82" on="0"/>
        <pt x="314" y="70" on="1"/>
        <pt x="271" y="52" on="0"/>
        <pt x="243" y="37" on="1"/>
        <pt x="205" y="16" on="0"/>
        <pt x="171" y="-22" on="1"/>
        <pt x="131" y="-67" on="0"/>
        <pt x="131" y="-101" on="1"/>
        <pt x="131" y="-150" on="0"/>
        <pt x="214" y="-199" on="1"/>
        <pt x="299" y="-250" on="0"/>
        <pt x="393" y="-250" on="1"/>
        <pt x="548" y="-250" on="1"/>
        <pt x="488" y="-302" on="0"/>
        <pt x="448" y="-331" on="1"/>
        <pt x="404" y="-361" on="0"/>
        <pt x="383" y="-361" on="1"/>
        <pt x="316" y="-361" on="0"/>
        <pt x="251" y="-333" on="1"/>
        <pt x="179" y="-303" on="0"/>
        <pt x="137" y="-250" on="1"/>
        <pt x="89" y="-192" on="0"/>
        <pt x="89" y="-116" on="1"/>
        <pt x="89" y="-64" on="0"/>
        <pt x="113" y="-5" on="1"/>
        <pt x="135" y="49" on="0"/>
      </contour>
    </TTGlyph>
    <TTGlyph name="ainfinal" xMin="91" yMin="-312" xMax="648" yMax="332">
      <contour>
        <pt x="368" y="237" on="1"/>
        <pt x="351" y="246" on="0"/>
        <pt x="335" y="251" on="1"/>
        <pt x="311" y="260" on="0"/>
        <pt x="293" y="260" on="1"/>
        <pt x="271" y="260" on="0"/>
        <pt x="232" y="251" on="1"/>
        <pt x="213" y="246" on="0"/>
        <pt x="195" y="242" on="1"/>
        <pt x="230" y="231" on="0"/>
        <pt x="240" y="228" on="1"/>
        <pt x="267" y="218" on="0"/>
        <pt x="286" y="208" on="1"/>
        <pt x="307" y="218" on="0"/>
        <pt x="349" y="233" on="0"/>
      </contour>
      <contour>
        <pt x="196" y="141" on="1"/>
        <pt x="172" y="155" on="0"/>
        <pt x="113" y="172" on="0"/>
        <pt x="91" y="172" on="1"/>
        <pt x="91" y="183" on="1"/>
        <pt x="98" y="200" on="0"/>
        <pt x="112" y="235" on="1"/>
        <pt x="130" y="278" on="0"/>
        <pt x="136" y="287" on="1"/>
        <pt x="165" y="305" on="0"/>
        <pt x="195" y="316" on="1"/>
        <pt x="243" y="332" on="0"/>
        <pt x="297" y="332" on="1"/>
        <pt x="339" y="332" on="0"/>
        <pt x="397" y="312" on="1"/>
        <pt x="456" y="292" on="0"/>
        <pt x="461" y="276" on="1"/>
        <pt x="462" y="275" on="0"/>
        <pt x="462" y="270" on="1"/>
        <pt x="462" y="249" on="0"/>
        <pt x="435" y="175" on="0"/>
        <pt x="426" y="170" on="1"/>
        <pt x="417" y="166" on="0"/>
        <pt x="411" y="164" on="1"/>
        <pt x="392" y="157" on="0"/>
        <pt x="377" y="150" on="1"/>
        <pt x="404" y="132" on="0"/>
        <pt x="425" y="124" on="1"/>
        <pt x="455" y="113" on="0"/>
        <pt x="491" y="113" on="1"/>
        <pt x="648" y="113" on="1"/>
        <pt x="648" y="0" on="1"/>
        <pt x="475" y="0" on="1"/>
        <pt x="424" y="0" on="0"/>
        <pt x="357" y="35" on="1"/>
        <pt x="303" y="64" on="0"/>
        <pt x="269" y="95" on="1"/>
        <pt x="229" y="72" on="0"/>
        <pt x="193" y="39" on="1"/>
        <pt x="136" y="-11" on="0"/>
        <pt x="136" y="-50" on="1"/>
        <pt x="136" y="-115" on="0"/>
        <pt x="215" y="-159" on="1"/>
        <pt x="290" y="-200" on="0"/>
        <pt x="390" y="-200" on="1"/>
        <pt x="546" y="-200" on="1"/>
        <pt x="486" y="-252" on="0"/>
        <pt x="446" y="-280" on="1"/>
        <pt x="402" y="-312" on="0"/>
        <pt x="381" y="-312" on="1"/>
        <pt x="274" y="-312" on="0"/>
        <pt x="189" y="-254" on="1"/>
        <pt x="93" y="-188" on="0"/>
        <pt x="93" y="-77" on="1"/>
        <pt x="93" y="-19" on="0"/>
        <pt x="146" y="92" on="0"/>
      </contour>
    </TTGlyph>
    <TTGlyph name="aininitial" xMin="-10" yMin="0" xMax="499" yMax="387">
      <contour>
        <pt x="176" y="129" on="1"/>
        <pt x="163" y="146" on="0"/>
        <pt x="154" y="161" on="1"/>
        <pt x="137" y="192" on="0"/>
        <pt x="137" y="222" on="1"/>
        <pt x="137" y="286" on="0"/>
        <pt x="174" y="337" on="1"/>
        <pt x="209" y="387" on="0"/>
        <pt x="249" y="387" on="1"/>
        <pt x="306" y="387" on="0"/>
        <pt x="353" y="345" on="1"/>
        <pt x="381" y="320" on="0"/>
        <pt x="404" y="282" on="1"/>
        <pt x="404" y="266" on="1"/>
        <pt x="374" y="279" on="0"/>
        <pt x="323" y="287" on="0"/>
        <pt x="280" y="287" on="1"/>
        <pt x="262" y="287" on="0"/>
        <pt x="198" y="251" on="0"/>
        <pt x="177" y="232" on="1"/>
        <pt x="208" y="197" on="0"/>
        <pt x="249" y="179" on="1"/>
        <pt x="283" y="163" on="0"/>
        <pt x="318" y="163" on="1"/>
        <pt x="354" y="163" on="0"/>
        <pt x="432" y="187" on="1"/>
        <pt x="465" y="197" on="0"/>
        <pt x="499" y="208" on="1"/>
        <pt x="484" y="171" on="0"/>
        <pt x="476" y="152" on="1"/>
        <pt x="450" y="97" on="0"/>
        <pt x="443" y="92" on="1"/>
        <pt x="359" y="61" on="1"/>
        <pt x="330" y="51" on="0"/>
        <pt x="286" y="38" on="1"/>
        <pt x="234" y="23" on="0"/>
        <pt x="183" y="13" on="1"/>
        <pt x="121" y="0" on="0"/>
        <pt x="80" y="0" on="1"/>
        <pt x="-10" y="0" on="1"/>
        <pt x="-10" y="113" on="1"/>
        <pt x="71" y="113" on="1"/>
        <pt x="104" y="113" on="0"/>
        <pt x="155" y="122" on="0"/>
      </contour>
    </TTGlyph>
    <TTGlyph name="ainisolated" xMin="89" yMin="-361" xMax="548" yMax="367">
      <component glyphName="ain" x="0" y="0" flags="0x1004"/>
    </TTGlyph>
    <TTGlyph name="ainmedial" xMin="-10" yMin="0" xMax="650" yMax="320">
      <contour>
        <pt x="650" y="0" on="1"/>
        <pt x="519" y="0" on="1"/>
        <pt x="476" y="0" on="0"/>
        <pt x="407" y="39" on="1"/>
        <pt x="350" y="71" on="0"/>
        <pt x="310" y="107" on="1"/>
        <pt x="274" y="67" on="0"/>
        <pt x="217" y="35" on="1"/>
        <pt x="153" y="0" on="0"/>
        <pt x="102" y="0" on="1"/>
        <pt x="-10" y="0" on="1"/>
        <pt x="-10" y="113" on="1"/>
        <pt x="84" y="113" on="1"/>
        <pt x="130" y="113" on="0"/>
        <pt x="158" y="123" on="1"/>
        <pt x="177" y="130" on="0"/>
        <pt x="216" y="150" on="1"/>
        <pt x="192" y="164" on="0"/>
        <pt x="136" y="181" on="0"/>
        <pt x="105" y="181" on="1"/>
        <pt x="105" y="192" on="1"/>
        <pt x="106" y="195" on="0"/>
        <pt x="135" y="250" on="1"/>
        <pt x="146" y="270" on="0"/>
        <pt x="152" y="282" on="1"/>
        <pt x="177" y="296" on="0"/>
        <pt x="221" y="307" on="1"/>
        <pt x="275" y="320" on="0"/>
        <pt x="332" y="320" on="1"/>
        <pt x="375" y="320" on="0"/>
        <pt x="441" y="302" on="1"/>
        <pt x="509" y="284" on="0"/>
        <pt x="514" y="269" on="1"/>
        <pt x="514" y="267" on="0"/>
        <pt x="514" y="263" on="1"/>
        <pt x="514" y="245" on="0"/>
        <pt x="481" y="170" on="0"/>
        <pt x="472" y="165" on="1"/>
        <pt x="416" y="150" on="1"/>
        <pt x="445" y="133" on="0"/>
        <pt x="471" y="124" on="1"/>
        <pt x="503" y="113" on="0"/>
        <pt x="536" y="113" on="1"/>
        <pt x="650" y="113" on="1"/>
      </contour>
      <contour>
        <pt x="395" y="228" on="1"/>
        <pt x="386" y="235" on="0"/>
        <pt x="340" y="250" on="0"/>
        <pt x="323" y="250" on="1"/>
        <pt x="305" y="250" on="0"/>
        <pt x="254" y="238" on="0"/>
        <pt x="237" y="233" on="1"/>
        <pt x="270" y="221" on="0"/>
        <pt x="280" y="218" on="1"/>
        <pt x="305" y="209" on="0"/>
        <pt x="321" y="200" on="1"/>
        <pt x="334" y="207" on="0"/>
        <pt x="379" y="224" on="0"/>
      </contour>
    </TTGlyph>
    <TTGlyph name="aleffinal" xMin="208" yMin="0" xMax="649" yMax="605">
      <contour>
        <pt x="649" y="0" on="1"/>
        <pt x="315" y="0" on="1"/>
        <pt x="299" y="0" on="0"/>
        <pt x="290" y="10" on="1"/>
        <pt x="278" y="22" on="0"/>
        <pt x="276" y="39" on="1"/>
        <pt x="267" y="114" on="0"/>
        <pt x="259" y="184" on="1"/>
        <pt x="248" y="275" on="0"/>
        <pt x="234" y="361" on="1"/>
        <pt x="219" y="452" on="0"/>
        <pt x="208" y="474" on="1"/>
        <pt x="222" y="513" on="0"/>
        <pt x="229" y="533" on="1"/>
        <pt x="251" y="594" on="0"/>
        <pt x="261" y="605" on="1"/>
        <pt x="274" y="582" on="0"/>
        <pt x="290" y="462" on="1"/>
        <pt x="300" y="385" on="0"/>
        <pt x="310" y="257" on="1"/>
        <pt x="318" y="151" on="1"/>
        <pt x="322" y="127" on="0"/>
        <pt x="332" y="119" on="1"/>
        <pt x="339" y="113" on="0"/>
        <pt x="355" y="113" on="1"/>
        <pt x="649" y="113" on="1"/>
      </contour>
    </TTGlyph>
    <TTGlyph name="alefisolated" xMin="255" yMin="-49" xMax="382" yMax="581">
      <component glyphName="arabicalef" x="0" y="0" flags="0x1004"/>
    </TTGlyph>
</ttFont>
